<svg xmlns="http://www.w3.org/2000/svg" viewBox="0 0 1657.98 350.62"><defs><style>.cls-1,.cls-2{fill:none;}.cls-2{stroke:#fff;stroke-miterlimit:10;}</style></defs><g id="Calque_2" data-name="Calque 2"><g id="Calque_1-2" data-name="Calque 1"><line class="cls-1" x1="237.15" y1="163.5" x2="221.35" y2="163.5"/><path class="cls-2" d="M264,109.25c-4.14-5.51,5.83-13.78,11.67-36.25,1.06-4.08,1.35-6.54,3-7,5-1.39,13.92,17.68,15,20,4.43,9.56,10.33,21.6,6,26-1.6,1.62-3.52,1.13-16,0C266.46,110.44,265.24,110.93,264,109.25Z"/><path class="cls-2" d="M242.65,105c11.08-34.1,8-55.36,21-60,3.08-1.1,8.72-1.06,20-1,10.17.06,15.26.09,18,1,13.51,4.5,10.92,26.36,23,60,9.87,27.51,24.15,47.87,19,52-1.15.92-2,0-11,0-10.9-.05-11.69,1.25-14,0-7-3.77-1.49-16.84-9-23-2.38-1.95-4.76-2.31-19-2-29.81.66-32.46,2.55-34,4-7.31,6.89-3.06,18.31-10,21-2,.78-2.55-.08-12,0-7.62.06-8.13.62-9,0C220.62,153.4,233.87,132,242.65,105Z"/><path class="cls-2" d="M350.15,45.5c2.42-1.61,6-1.57,12.5-1.5s9.51.11,11.5,1.5c7.38,5.17,0,22.56.5,46.5.06,3.15.29,7.86,0,15-.35,8.47-1,8.86-.5,11.5,1.29,7.44,8,14.79,16.5,17.5,9.6,3.05,20.42-.16,26-7,2.14-2.63,3.59-5.9,4-23,.57-24.08.86-36.12-1-45-1.28-6.08-3.09-12.14,0-15,1.34-1.24,3-1.31,13-1,11.91.37,12.41.56,13,1,5.24,4-1,14.59-2,33-1.08,20.19,5.58,23.65,2,40-1.11,5.06-3.3,14.5-11,23-13,14.33-31.51,14.87-36,15-5,.15-20,.58-33-10a47,47,0,0,1-15-23c-3.92-12.53.41-15.83,0-36C350.15,63.81,343.53,49.92,350.15,45.5Z"/><path class="cls-2" d="M463.65,45c3.93-4.34,11.35-.75,29,0,16,.68,15.62-2,25.5-.5,8,1.23,22.6,3.44,31,16,6.06,9.07,8.78,23.07,3,33-6.52,11.19-19.7,10.12-22,19-.4,1.54-.54,4.68,10,20,10.4,15.13,17.33,21.86,15.5,24.5-1.14,1.64-4.42-.09-14,0-7.73.08-8.82,2-12,1-1.93-.62-5.12-2.37-11-17-5.73-14.26-6-20.75-12-24a20,20,0,0,0-7-2c-2-.18-7.39-.65-10,2s-1,6.68,1,19c2.64,16.51,1.32,18.92,0,20-2,1.63-3.68,0-12,0-9.22,0-11.76,1.89-14,0-3.11-2.62-1.25-8.83,0-16,.58-3.33.72-12.22,1-30,.36-22.64.53-34-2-49C462.23,52.62,460.83,48.11,463.65,45Z"/><path class="cls-2" d="M489.65,65c2.63-2.13,5.69,1,15,1,7.33,0,7.8-1.89,12-1,6.74,1.42,14.38,8.22,14,16-.26,5.2-4,9.76-8,12-7.23,4.09-11.84-1.33-25,2-4.19,1.06-6.23,2.24-8,1-2.4-1.68-1.11-5.56-1-16S487.49,66.74,489.65,65Z"/><path class="cls-2" d="M591.65,19c1.29-4.23,6.1-5.21,15-9,14.33-6.1,19.68-11.14,22-9,1.35,1.25-.48,3,0,10,.36,5.39,1.71,8.28,0,10-1.11,1.12-2.79,1-4,1-3.18,0-7.83,2.34-17,7-11.22,5.7-14.46,8.32-16,7-.93-.79-.19-2.11,0-8C591.86,21.53,591.05,21,591.65,19Z"/><path class="cls-2" d="M571.15,45.5c3-3.42,8.15-1.84,21-1a248.62,248.62,0,0,0,30,0c8.32-.45,16.87,1.84,25,0,.75-.17,3.15-.75,4.5.5,1.57,1.46.38,4.18,0,9-.62,7.78,1.76,10.08,0,12-2,2.21-6.12.14-14-1-7.32-1.06-6.57.32-20,0-14.85-.36-19.74-2.14-22,1-1.37,1.9,0,3.13,0,11,0,8.9-1.77,11.18,0,13,2.21,2.29,5.68-.61,16-1,8.2-.31,7.51,1.46,16,1,4.93-.27,8.17-1,10,1,.84.94,1,2,1,6,.08,7.86.1,11.82-1,13-.62.66-2,1.78-12,1-6.86-.53-10-1.36-17-2-10.7-1-12.27.14-13,1-1.57,1.83-.43,3.69,0,11,.59,10-1.18,12.64,1,15,1.77,1.92,4.39,1.75,13,1,0,0,14.77-1.29,26-2,12.66-.8,15.91-.05,17,2,1,1.87-.73,3.09-1,8-.39,6.9,2.71,9.95,1,12-1.47,1.75-4.69.67-10,0-.43-.05-5.95,0-17,0-4.7,0-7.85.1-32,1-18.32.68-20,.76-22-1-4.94-4.35-2-11.33-1-34,.29-6.25.19-16.17,0-36-.09-8.67.84-17.37,0-26S568.57,48.42,571.15,45.5Z"/><path class="cls-2" d="M692.15,45.5c-1.87-1.44-2.87,0-11.5-.5-8.17-.47-9.8-1.9-11.5-.5-2.82,2.32-.08,7.7.5,18.5.35,6.55-.5,7.47-1,17-.68,12.75.71,13.48.5,25.5-.72,39.67-1,45-1,45-.06,1.09-.22,3.81,1.5,5.5,2,2,5.48,1.34,9,1,5.14-.5,10.33.49,15.5.5,26.88.07,28.12.67,33,0,3.15-.43,5.64-1.09,9.5-.5,3,.46,4.23,1.28,5.5.5,1.61-1,1.3-3.37,1.5-9.5.28-8.84,1.17-11.25-.5-12.5-1.46-1.09-3.35-.16-6.5.5-5.84,1.23-8.8,0-15.5-.5-16.84-1.31-24.91,4.21-28,0-1.19-1.62-.16-2.66.5-9.5.88-9.15-.76-9.46-.5-23.5.1-5.49.36-7.14.2-12.3-.21-6.44-.93-8.84-.2-20.7C694.44,48.38,693.54,46.57,692.15,45.5Z"/><path class="cls-2" d="M756.15,44.5c1.8-1.69,4-.09,11,0,8.16.11,10.7-2,13,0,1.6,1.37,1.84,3.64,1.5,10.5-.38,7.54-.57,11.32-1.5,16.5-1.5,8.29.65,7.86,1,30,0,.91,0,.14,0,29v20c.48,1.85,1.33,4.51,0,6-.4.45-1.47,1.31-10,0-5.88-.9-7.66-1.66-11-1-2.8.55-3.1,1.39-4,1-3.16-1.35.41-11.61,0-28-.17-6.81-.82-6.17-1-14-.23-9.81.74-12.69,1-22,.3-10.86-1.25-11.06-1-23,.17-8.12.77-8,.5-13.5C755.32,49.19,754.28,46.26,756.15,44.5Z"/><path class="cls-2" d="M800.65,45c2-2.59,7.26-.86,15,0h43c5.66,0,11.44,1.11,17,0,2.54-.51,4.67-1.19,6,0,1.8,1.61-.11,4.67,0,12,.07,5.41,1.15,6.63,0,8-1.85,2.18-5.55.17-14,0-6.2-.12-5.75.93-13,1-4.47,0-5.24-.36-15-1-11-.73-12.94-.41-14,1-1.54,2,.84,3.56,0,10-.44,3.34-1.37,5.21-1,9,.2,2.08.3,3.12,1,4,1.84,2.34,5.66,1.42,13,1,8.91-.51,7.56.61,15,0,7.88-.65,11.11-2,13,0,.72.78.81,2.85,1,7,.26,5.76-.55,5.93,0,10,.23,1.71.46,2.35,0,3-1,1.48-3.94.48-9,0-4-.37-8,0-12,0h-9c-3.34,0-6.71.54-10,0-1.54-.25-2.38-.53-3,0-1.35,1.14.75,4,1,9,.16,3.33-.71,3.48-1,10-.17,3.71.05,5.07,1,6,1.19,1.17,3,1.07,5,1,3.66-.12,7.36.43,11,0,10.4-1.22,11.25,1.08,24,0,9.51-.81,14.25-2.53,16,0,.62.9.08,1.2,0,9,0,3.89-.06,5.83,0,7,.19,3.67.54,4.29,0,5-1.47,1.93-6-.15-12-1-5.5-.77-4.86.53-17,1-1.92.07-1.11,0-18,0h-10c-5,0-10-.47-15,0s-6.64,1.21-8,0-1.09-3-1-10c0-3,0-6,0-9,0-4.33,0-8.67,0-13V67c0-5.33.83-10.73,0-16C800.17,48,799.63,46.35,800.65,45Z"/><path class="cls-2" d="M1023.65,82c2.47,1.42,4.89-.33,11-2,7.55-2.07,10-1.08,11-3,.34-.64,1.28-3-5-11-4.31-5.51-9.39-12-19-17a55.76,55.76,0,0,0-24-6,64.43,64.43,0,0,0-20,2c-4.72,1.27-13.75,3.81-22,11-13.07,11.39-15.67,27-17,35-1,5.79-2.46,15.38,1,27a56.36,56.36,0,0,0,11,20,57,57,0,0,0,22,16c12,4.72,22.14,3.75,30,3,8.07-.77,14.81-1.41,22-6,4.81-3.07,7.87-7.05,14-15,4.68-6.08,8.65-11.34,7-14-.9-1.45-2.55-.63-8-2-7.05-1.77-9.77-4.51-12-3-1,.68-.81,1.47-2,4a31.57,31.57,0,0,1-5,7c-4.53,4.93-13.06,7.54-20,8a33.07,33.07,0,0,1-19-4,32.54,32.54,0,0,1-12-12,37.66,37.66,0,0,1-5-17,44.72,44.72,0,0,1,0-7,33.75,33.75,0,0,1,3-13,30.18,30.18,0,0,1,7-9c2.67-2.58,6.26-6,12-8,5.41-1.85,9.89-1.41,14-1,6.41.64,13.14,1.31,17,6,.65.8,2.76,3.59,5,7C1022.55,80.91,1022.7,81.46,1023.65,82Z"/><path class="cls-2" d="M1062.65,44c2.67-2.24,7.37.76,20,1l1.61,0c2.11,0,4.26,0,13.39,0h21c6,0,12.08,1,18,0,3.76-.64,6.46-1.53,8,0,1.81,1.8,1,6,0,11-.53,2.66-1.12,4.16-1,7,.08,2,.41,2.41,0,3-1.23,1.76-5.55-.36-13-1-1.12-.1-.47,0-9,0-11.05,0-10.43-.16-13,0-7.85.48-7.9,1.62-12,1-4.32-.65-6.41-2.23-8-1-.81.62-.94,1.54-1,7-.12,10.14.31,9.07,0,12s-.76,4,0,5c1.06,1.42,3.18,1.15,8,1,4.33-.14,8.66,0,13,0,7.8-.06,6.41.13,9,0,8-.39,10.54-1.66,12,0,.73.84.13,1.23,0,8-.1,4.81-.14,7.22,0,9,.17,2.2.33,2.5,0,3-1.24,1.88-5.25.36-14,0a58.33,58.33,0,0,0-7,0c-5.76.38-6.35,1.37-10,1s-7-1-7-1c-2-.38-3.3-.7-4,0s-.29,2,0,4a49.56,49.56,0,0,1,0,7v10c-.28,2.27-.62,3.13,0,4,1.08,1.54,3.81,1.21,7,1,4.32-.28,8.67.14,13,0h22c3.33,0,6.7.49,10,0,2.09-.31,3.21-.7,4,0,1.15,1,0,2.87,0,7,0,1.64.19,1.34,1,8,.46,3.81.46,4.44,0,5-1.24,1.49-4.1.46-8,0-5.78-.68-6,.83-14,1-7,.15-6.58-1-14-1-7.07,0-7.1,1-14,1-8.31-.05-7.88-1.56-14-1-3.75.34-6.52,1.14-12,1-3.36-.09-5.06-.15-6-1-2.82-2.54.59-7.66,1-18,.21-5.33-.67-4.62-1-15-.11-3.27,0-3.77,0-13,0-13-.11-11.78,0-16,.28-11.25,1.1-11.12,1-19-.06-4.55-.39-8.52-1-16C1061.68,47.18,1061.09,45.31,1062.65,44Z"/><path class="cls-2" d="M1160.65,46c1.83-3.14,7.58-2.39,17-2,17.19.72,14.69-.9,28,0,11.46.77,17.19,1.16,24,4,12.17,5.09,19,14.06,22,18a61.33,61.33,0,0,1,12,36,53.82,53.82,0,0,1-7,28,52.55,52.55,0,0,1-21,20c-9.34,4.79-17.85,5.41-26,6-11.83.86-12.43-1.49-24,0a77.34,77.34,0,0,1-17,1c-4.44-.29-6.62.46-8-1-2.25-2.36.18-6.27,1-14,.69-6.61-.7-7.36-1-17-.22-6.9.49-7,1-18a202.64,202.64,0,0,0,0-26c-.35-4.59-1-10.37-1-18,0-2.46,0-3.2,0-6C1160.49,48.62,1159.78,47.48,1160.65,46Z"/><path class="cls-2" d="M1185.65,66c1.46-1.18,2.6-.27,10,0,6,.22,6.43-.34,11,0a37.91,37.91,0,0,1,11,2,29.9,29.9,0,0,1,13,10c5.31,6.84,6.37,13.86,7,18a37.07,37.07,0,0,1,0,13,31.34,31.34,0,0,1-19,24,39.34,39.34,0,0,1-14,3c-6.93.46-7.92-1-15,0-2.83.39-4,.8-5,0-2.14-1.67-.44-6,0-15,.16-3.38-.09-2.42,0-8,.19-11.81,1.29-13.17,1-21-.12-3.18-.27-2.16-1-12C1183.9,69.89,1184,67.37,1185.65,66Z"/><path class="cls-2" d="M1277.65,45c1.19-1.55,3.74-.28,11,0,6.32.24,10,0,10,0,2.88-.19,3.31-.39,4,0,3.08,1.77.92,9.75,0,18-1.16,10.32,1,8.68,1,27,0,14.21-1.32,13.44-1,26,.37,15.08,1,22,1,22,.89,10,2.06,16-1,18-.94.6-1.19.11-9,0-3.63-.05-5.48-.08-8,0-5.63.18-6.13.62-7,0-2.45-1.74-.51-6.58,0-15,.48-8-1.06-7.42-1-18,0-8.83,1.11-8.58,1-17-.09-6.41-.71-7-1-16-.1-3-.23-7.36,0-13,.41-10.22,1.38-9.52,1-15-.57-8.22-.86-12.33-1-13C1277.28,47.29,1276.9,46,1277.65,45Z"/><path class="cls-2" d="M1355.65,45c1.23-.63,1.79-.14,6,0s8.66,0,13,0c3,0,6,.27,9,0,5.11-.46,7.54-1.49,10,0a7.87,7.87,0,0,1,3,4,63.46,63.46,0,0,1,5,16c.35,1.8,2.56,7.87,7,20,2,5.54,3.63,9.94,6,16,3.59,9.2,5.09,12.37,7,19,.87,3,1,3.92,2,7,1.5,4.65,2.13,5.5,5,13,3.71,9.68,2.5,7.85,4,11,1.58,3.34,2.71,4.95,2,6s-2.91.29-9,0c-4.27-.2-8.49,0-9,0-5.17.23-5.75.71-7,0-1.08-.6-1.54-1.45-4-9-1-3-2.15-5.95-3-9s-1-3.95-2-5c-.75-.74-2-1.58-7-2a53,53,0,0,0-9,0c-5.76.49-6.38,1.27-10,1-3.19-.24-3-.87-6-1-3.71-.16-3.87.77-9,1a39.24,39.24,0,0,1-7,0c-1.81-.26-2.91-.63-4,0-1.38.78-1.69,2.52-2,4-.73,3.4-2.07,6.65-3,10-2,7.28-2.92,8.34-4,9a9.59,9.59,0,0,1-5,1c-2.86,0-3.15-.76-6-1-1-.09-1.56,0-9,1-3.55.49-4.44.62-5,0-.75-.82-.39-2.4,1-6,1.85-4.8,2.91-6.39,4-9,2.16-5.19.76-5.59,3-12,.34-1,.31-.79,4-9,2.11-4.7,3.18-7.08,4-9,.92-2.16,2.52-5.92,4-10,2.38-6.6,2.07-7.51,5-17,1.08-3.5,2-6.34,4-12,1.38-4,2.08-6,2.57-7.28.26-.72.58-1.57,1-2.56,1.37-3.55,2.32-5.54,3.47-8.16C1354.12,47.07,1353.92,45.89,1355.65,45Z"/><path class="cls-2" d="M1371.65,66a10.79,10.79,0,0,1,3-1,5.86,5.86,0,0,1,3,0c1.94.84,1.66,4.75,2,8,.41,4,1.38,3.41,5,13,3.55,9.41,2.3,9.16,5,15s5.09,8.47,4,10c-1,1.33-3.28.24-9,0-8.6-.36-8.49,1.86-15,1-4.72-.62-6.87-2.07-11-1-2.31.6-3.45,1.52-4,1-1.14-1.07,2.86-5.63,6-14,1.39-3.72.78-3.3,3-10,2.68-8.12,2.95-6.86,4-11C1369,71.69,1369.09,67.39,1371.65,66Z"/><path class="cls-2" d="M1300.65,237s3.41.32,8.5.5c7.78.28,9-1.27,11,0,3.34,2.1,3.14,7.23,3.5,12.5.94,14.05,4.61,11.58,8,32,1.17,7.09,1.57,10.33,4,23,2,10.61,2.94,14,4,14s1.88-4.49,4-15c1.81-9,3.24-16.13,5-23,3.79-14.82,5.64-14.94,7-24,.8-5.37,3.42-10.59,3-16-.06-.76-.28-3,1-4,1.11-.88,2.53-.22,5,0,3.74.33,3.69-.93,8-1,3.59-.06,3.94.81,9,1,3.89.15,3.94-.36,5,0,4.29,1.45,3.62,9.88,6,22,1.56,8,2.12,5.75,7,24,1.93,7.24,2.9,10.85,4,16,2.63,12.3,2.79,18,4,18s2-5.76,5-20c2.35-11.33,1.68-6.92,6-27,1.58-7.35,4.27-14.52,5-22,.53-5.46.34-9,3-11,2.82-2.09,5.35.22,14,0,7.06-.18,10.77-1.86,12,0,.57.87.15,1.81-1,6-.73,2.65-1.22,5.36-2,8-3.26,11-3.44,16.68-8,31-1.48,4.64-1.55,4.32-3,9-2.29,7.39-3,10.9-5,19-5.24,20.79-6,18.22-7,26s-.29,10.93-3,13c-3,2.3-6.06.05-17,0-8.72,0-9.5,1.38-12,0-3.34-1.85-4.61-8.92-7-23-2.62-15.39-2.93-17.24-4-21-1.86-6.54-2.45-6.37-5-15-3-10.12-3.56-15-5-15-1.11,0-1.81,2.84-4,11-4.75,17.66-3.76,12.79-6,22-2.64,10.84-2.1,9.7-4,17-2,7.73-4.64,16.76-5,17.88l0,.12c-1.06,3.65-.41,5.14-1,6-1.11,1.61-5.7-.26-10-1-4.45-.77-9.23.3-14,1-3.37.49-4.7.87-6,0-2.57-1.72-2.09-6.34-2-9,.28-8.27-2.76-8.78-8-27-2.69-9.35-1.39-7.46-5-22-3.9-15.67-5.7-17.31-8-29-1.46-7.42-1.26-9.12-3-14-2-5.65-4.46-9.46-3-11C1295.33,236.28,1296.35,236.6,1300.65,237Z"/><path class="cls-2" d="M1466.65,237c1.23-1.06,2.71-.34,8,0h66c3-.43,4.75-1.08,6,0,.57.49.87,1.21,1,6,.14,5.47-.23,5.18,0,8,.28,3.52,1,5.19,0,6s-2.19.23-3,0c-2.24-.64-6.5-.43-15,0-6.33.32-5.41,1-10,1-5.71,0-5.73-1.12-11-1-4.58.11-5.11.94-11,1h-6a32.65,32.65,0,0,1,0,5c-.3,3.85-1,4.27-1,7,0,3.56,1.3,3.91,1,7s-1.65,4-1,5c.81,1.26,3.33.36,9,0h19c3,0,6,.27,9,0,3.66-.33,5.26-.93,6,0s-.74,2.47-1,6c-.15,2,.32,2.18,1,7,.84,6,.27,6.72,0,7-1,1-2.41.35-7,0-3.33-.25-6.67,0-10,0h-25a1.1,1.1,0,0,0-1,0c-.44.35-.15,1.35,0,2,.36,1.63,0,3.33,0,5v17c-.1,1.47-.2,1.66,0,2,.87,1.47,4.37.36,10,0,2.33-.15,4.66,0,7,0h32c3.41.47,5.09.29,6,0,.3-.1,1.5-.52,2,0a.9.9,0,0,1,.17.28c.23.58-.06,1.42-.17,4.72-.06,1.67,0,3.33,0,5v5c.14,4.44.66,5.21,0,6-1,1.24-3.28.48-7,0h-59c-3,0-6-.22-9,0-4,.3-5.06.81-6,0-1.44-1.24-.49-3.65,0-9V317c0-14.26.12-13.62,0-16-.4-8.1-1.2-8.29-1-14,.15-4.55.68-5.09,1-11,.16-3.08,0-3.52,0-12-.11-16.24.3-14.1,0-17C1466,241.15,1465,238.43,1466.65,237Z"/><path class="cls-2" d="M1588.65,258c1.21-1.36,3.52-.15,11,0,1.27,0,2.32,0,3,0,8.63,0,9.16-.32,13,0a20.41,20.41,0,0,1,8,2,10.75,10.75,0,0,1,4,3c1.79,2.3,1.9,4.88,2,7s.18,4-1,6a9.19,9.19,0,0,1-3,3,13.87,13.87,0,0,1-5,2,44.23,44.23,0,0,1-9,1c-1.75.06-1.58,0-9,0h-7c-4.55.29-6.06,1-7,0-.73-.77-.18-1.57,0-6v-6c0-1.67,0-3.33,0-5C1588.53,259.18,1588,258.72,1588.65,258Z"/><path class="cls-2" d="M1588.65,302c.61-1.34,5-.4,9,0,3.43.34,2.15-.16,10,0,.73,0,6.09.14,13,1,3.61.45,5.26.81,7,2a11.56,11.56,0,0,1,4,5,13,13,0,0,1,0,10,12.81,12.81,0,0,1-4,5c-2.83,2.2-5.79,2.59-9,3-2.5.32-2.77.06-11,0h-7c-3,0-6.07-.65-9,0-1.1.24-2.41.64-3,0s-.17-1.34,0-3V304C1588.63,302.21,1588.57,302.17,1588.65,302Z"/><path class="cls-2" d="M1633.65,291c0-.5,4.36-.61,9-3a18.84,18.84,0,0,0,5-4,25.85,25.85,0,0,0,7-11,24.62,24.62,0,0,0,0-14c-1.76-5.82-5.26-9.28-8-12a36.82,36.82,0,0,0-8-6,36,36,0,0,0-11-4c-3.17-.56-3.65-.15-13,0h-42a30.79,30.79,0,0,1-4,0c-2.39-.16-3.23-.49-4,0-1.43.91-1.12,3.76-1,5,.51,5.31-.27,10.67,0,16,.08,1.64,0,5.43,0,13-.06,7.25-.24,15.87,0,22,.26,6.74.56,7.92.78,10.64,0,0,.16,2.1.22,4.36.15,6.27-1,16.51-1,24v10c-.09,5.18-.69,6.19,0,7,1.24,1.47,4,.56,8,0h30c14.16-.06,21.35-.14,27-1,10.81-1.65,14.71-4.13,16-5a29.89,29.89,0,0,0,10-12c.63-1.38,5.36-12,1-23a21.15,21.15,0,0,0-6-9c-1.26-1-1.16-.65-6-4-2.55-1.76-3.38-2.43-5-3C1635.83,291,1633.68,291.35,1633.65,291Z"/><path class="cls-2" d="M2.65,236c-3.44,3-1.94,9-1,18,1.13,10.91-.75,5.08,0,31,.62,21.57,1.84,22.57,1,33-.43,5.33-.56,10.67-1,16-.87,10.37-1.45,12.18,0,14,3.23,4.07,11.07,1.26,25,0,14.72-1.33,16.18.88,26,0,5.91-.53,28.92-2.6,43-20,17-21,8.83-49.27,7-55-1.78-5.56-6.63-20.74-21-30-10.4-6.7-21.27-7.39-31-8-16.9-1.07-19.31,3.79-35,1C9.88,235,5.55,233.5,2.65,236Z"/><path class="cls-2" d="M27.65,256c2-1.95,5.26-.28,13,1,11.79,1.95,13.2-.42,20,2a29.37,29.37,0,0,1,13,9c6.58,8.16,6.22,17.84,6,24-.2,5.3-.57,15.56-8,24a33.28,33.28,0,0,1-11,8c-6.06,2.92-11.06,3.34-19,4-7.34.61-11,.88-13-1-2.74-2.62-1.4-6.61-1-16,.45-10.68-1.14-8.9-1-22,.16-15,2.2-14.5,1-23C26.94,261,25.8,257.82,27.65,256Z"/><path class="cls-2" d="M140.65,209c.93-1.12,2.07-1.19,5-2,2-.56,4-1.35,6-2,4.53-1.47,4.32-2.79,12-7s6.35-2.07,11-5c1-.63,2.2-1.45,3-1,1.17.66,0,3.31,0,8,0,5.75,1.65,7.89,0,10-.66.83-1.27.94-4,2,0,0-2.23,1.12-9,4-5.33,2.27-4,2.91-9,5-5.6,2.35-7,1.41-11,4-1.92,1.23-3.23,2.47-4,2s.14-2.37,0-6c-.13-3.23-1-3.61-1-7C139.63,211.73,139.63,210.22,140.65,209Z"/><path class="cls-2" d="M119.65,236h60c5,0,10.06.78,15,0,3.31-.52,5.66-1.26,7,0,1.58,1.49-.62,4.12-1,10-.43,6.52,1.78,9.17,0,11-1.31,1.34-3.27.7-9,0-5.29-.65-9.07-.77-16-1-2.39-.08-2.32,0-13,0h-11c-3.72-.46-5.86-1.22-7,0-.84.89-.28,1.93,0,6v15c-.24,2.23-.63,3.28,0,4,.87,1,2.86.39,5,0,3.93-.73,8,0,12,0h21c2.54-.38,4.08-.91,5,0,.28.28.77,1,0,6-.69,4.45-1.14,4.3-1,6,.2,2.64,1.32,3.46,1,6a5,5,0,0,1-1,3c-2,2.07-5.94-.43-14-1h-18c-5.05-.45-7.65-1.53-9,0a5.83,5.83,0,0,0-1,3,12.46,12.46,0,0,0,0,4v10a50,50,0,0,1,0,6c-.2,1.66-.47,2.4,0,3,.89,1.15,3.34.41,6,0h38a44.49,44.49,0,0,0,6,0c2.51-.34,4.37-1.05,6,0a3.27,3.27,0,0,1,1,1c.76,1.25.28,2.65,0,4v8c0,1.33-.07,2.67,0,4,.13,2.79.44,3.39,0,4-.93,1.28-3.68.46-7,0-3.63-.5-7.34,0-11,0h-56c-5.14.34-6.79,1.11-8,0-1.37-1.25-.44-3.31,0-9,.41-5.36-.29-5.12,0-12,.22-5.32.65-5.75,1-11a138.46,138.46,0,0,0,0-14c-.32-9.47-.71-10.71-1-18-.11-2.57,0-1.38,0-21V236Z"/><path class="cls-2" d="M211.65,236c1.21-1.62,3.9-.15,11,0,9.46.2,12-2.25,15,0,1.53,1.16,1.53,2.35,4,11,.95,3.35,2,6.66,3,10,1.89,6.53,2.49,7.5,6,18,3.71,11.11,3.38,11.05,8,25,3.26,9.85,3,8.68,4,12,2.45,8.37,2.79,11.91,4,12,1.83.14,3.56-7.83,6-17,3.86-14.52,3.3-8.64,14-43,2.41-7.75,7.24-14.92,8-23,.1-1.13.26-3.52,2-5,2.41-2.06,5.37-.23,12,0,7.79.27,11.55-2,13,0,1.06,1.46-.07,3.88-1,6-2.73,6.18-4.07,12.92-7,19-5.59,11.59-2.87,11.16-11,32-4.5,11.53-4.65,9.92-7,17s-5.18,17.73-8,25c-.76,1.95-1,2.4-2,5-2,5.28-1.9,6.15-3,7-1.52,1.18-2.78.39-9,0a49,49,0,0,0-10,0l-8,1c-2.29.32-3.09.45-4,0-2.14-1.06-2.44-4.12-3-7-.8-4.14-2.78-8-4-12-.38-1.23,0,.17-7-21-3.66-11-3.51-10.58-4-12-1.11-3.18-1.81-5.1-7-19-3.57-9.56-5.37-14.38-6-16-1.68-4.33-3.17-8.74-5-13C212.26,240.14,210.44,237.61,211.65,236Z"/><path class="cls-2" d="M336.15,235.5c2.7-2.56,6.8-.93,16,0,7.29.74,14.66,0,22,0,10.66,0,21.57,2.23,32,0,4.12-.88,8.89-2.34,11,0,.76.84.45,3.29,0,8-.31,3.21-.44,2.92-.5,4.5-.18,4.88,1.11,6.85,0,8s-3.56.38-5,0c-6-1.58-5.65.68-24,1h-22c-4-.33-5.14-.85-6,0-1.83,1.78,1.91,5.35,1,12-.32,2.33-1,3.69-1,7,0,2.43,0,4,1,5,1.65,1.77,4.7.62,10,0,4.63-.54,9.33,0,14,0,4.33,0,8.74.79,13,0,2.23-.41,4-1,5,0s.23,2.58,0,8c-.16,3.75,0,7,0,7,.18,3.81.53,4.3,0,5-1.33,1.73-4.57,0-11,0-5.15,0-4.69,1.06-10,1-4.85-.05-5.25-.95-11-1-4,0-4.37.4-7,0-1.49-.23-2.35-.52-3,0-1,.79-.34,2.54,0,6v9c0,2,.12,4,0,6-.22,3.37-.64,4.22,0,5,1,1.28,3.29.42,8,0h37c7.65-.27,9.78-1.41,11,0s-.47,2.84,0,8c.26,2.87.82,3.09,1,6,.19,3.13.33,5.59-1,7-1.67,1.76-4.37.56-11,0h-60c-5.64.42-7.47,1.25-9,0-2.19-1.78-1.44-5.88-1-9,1.39-9.9-.11-20,0-30V274c0-7,.32-14,0-21C335.09,240.87,333.74,237.78,336.15,235.5Z"/><path class="cls-2" d="M433.65,236c.88-.4,1.17.13,5,0,3.66-.12,4.86-.65,8-1,5-.56,8.92-1,11,1s1.4,5.14,1,9c-.77,7.29.32,14.67,0,22-1,22-1,20.62-1,22,.06,16.42,2.22,16.17,1,26-.8,6.44-2.14,9.87,0,12s5.46.63,15,0c7.72-.51,6.67.41,15,0,12.11-.6,17.11-2.68,19,0,.51.72.06.76,0,9,0,3.93,0,5.9,0,7,.15,3.81.43,4.29,0,5-1.5,2.46-7.41.86-14,0h-42c-4.67,0-9.38-.65-14,0-2.09.29-3,.57-4,0-3.44-2-1.19-10.86,0-19V294c0-9.33.73-18.7,0-28C432.48,251.26,429.47,237.88,433.65,236Z"/><path class="cls-2" d="M554.65,258a30.7,30.7,0,0,1,15-2c2.82.25,14.58,1.31,23,11,9.64,11.11,7.57,25.11,7,29-.52,3.51-2.2,13.77-11,22a32.75,32.75,0,0,1-19,9,30.13,30.13,0,0,1-19-4c-10-6.2-12.72-16.86-14-22-.85-3.37-4.51-18,4-31A30.86,30.86,0,0,1,554.65,258Z"/><path class="cls-2" d="M539.65,240c13.82-7.21,27-5.69,33-5a65.42,65.42,0,0,1,26,9c5.7,3.45,13.72,8.31,19,18,3.35,6.16,4,11.26,5,20,1.52,12.77,2.88,24.22-3,36-4.13,8.27-10,12.95-15,17-5.3,4.26-15.09,11.91-30,14-3.41.48-21.83,2.72-39-9a56.37,56.37,0,0,1-16-17c-3.08-4.79-10.48-16.64-10-33a54.9,54.9,0,0,1,5-21C517.16,263.18,523.53,248.41,539.65,240Z"/><path class="cls-2" d="M663.65,257c2.46-2.32,5,.23,16,0,8.78-.19,10.83-1.89,15,0,5.16,2.34,7.38,7.4,8,9,.31.83,3.22,8.75-1,14-1.49,1.85-3.33,2.56-7,4a47,47,0,0,1-15,3c-7.71.4-11.56.6-14-2-1.4-1.49-1.62-4-2-9C662.37,259.35,662.46,258.12,663.65,257Z"/><path class="cls-2" d="M639.65,236c2.83-3.82,8.8-1.89,27-1,13.51.66,14.83-.17,25,1,9.42,1.09,14.13,1.63,19,4,2.32,1.13,12.21,6,17,17,5.29,12.23,1.92,26.51-6,36-8.57,10.27-21.49,12.26-26,13a81.45,81.45,0,0,1-14,1c-9.89-.31-14.55-2.64-17,0-1.61,1.73-.37,3.54,0,11,.51,10.65-1.84,10.88-1,20,.52,5.76,1.71,8.43,0,10-1.16,1.06-2.13.24-9,0-6.39-.23-9.58-.34-12,0-1.66.23-2.3.43-3,0-2.53-1.56-.78-8.17,0-13,1-6.34-.14-6.53-1-23a366.6,366.6,0,0,1,0-42c.7-11.33,1.51-13.51,1-21C639.1,240.91,637.81,238.47,639.65,236Z"/><path class="cls-2" d="M768.65,257c1.93-2.69,7.07.07,18,0,6.85,0,7.65-1.14,11,0a16.14,16.14,0,0,1,10,10c.5,1.51,2,7-1,12a14.8,14.8,0,0,1-8,6c-5.12,1.86-6.19-.4-15,1a51.46,51.46,0,0,1-8,1c-3.87.11-5.8.16-7-1-1.67-1.61-.34-3.74,0-12,.26-6.44,0-11,0-11C768.39,258.44,768,257.89,768.65,257Z"/><path class="cls-2" d="M743.65,236c2.1-1.88,5-.84,11,0,1.34.19,10.56.12,29,0,15.34-.1,14.74-.34,17,0,5.77.87,15.18,2.3,23,10a34.52,34.52,0,0,1,9,16,35.78,35.78,0,0,1-1,20,34.66,34.66,0,0,1-8,14c-6.72,7-14.71,9-19,10-3.36.79-6.91.82-14,1-8.21.2-12.32.31-15,0-4.19-.48-5.71-1.08-7,0-2,1.65-.58,4.88,0,13,.55,7.8-.57,7.1,0,15s1.77,10.22,0,12c-.85.85-3.92.91-10,1-2.82,0-4.86,0-10,0-3.72,0-4.21.51-5,0-2.85-1.84-1-8.65,0-16V252C742.5,244.2,740.68,238.66,743.65,236Z"/><path class="cls-2" d="M848.65,236c2.84-3.33,8-.95,23,0h24c8.33,0,16.88,1.87,25,0,3-.69,7.32-2,9,0,.85,1,.16,1.88,0,8a72.46,72.46,0,0,0,0,8c.23,2.43.53,3.18,0,4-1.18,1.83-4.8,1.35-8,1a168.88,168.88,0,0,0-19-1c-7.67.1-7,1.41-13,1-12.24-.85-13-1-13-1-1.84-.37-3.07-.72-4,0-1.64,1.27,0,4.06,0,11,0,3.11-.29,4.77,0,9,.27,4.05.69,4.66,1,5,1.85,2.05,5.13.26,12,0,7.84-.29,7.65,1.89,14,1a85.26,85.26,0,0,1,10-1c2.66-.1,4.2,0,5,1,.93,1.2-.13,2.41,0,6,.08,2.27.52,2.29,1,6,.43,3.4.65,5.1,0,6-1,1.33-2.76,1.1-9,1-4-.06-8,0-12,0h-8c-3.67,0-7.37.52-11,0-1.75-.25-2.45-.49-3,0-1.48,1.31,1.45,5,1,11-.13,1.69-.34,1.11-1,5-1,5.72-1.47,8.74,0,10,1,.89,2.43.4,5,0h26c3.33,0,6.67.14,10,0,9.89-.42,14.65-2.18,16,0,.27.43.06.49,0,5,0,1.67,0,3.33,0,5v7c.19,1.89.43,2.45,0,3-1,1.24-3.7.39-6,0-4.17-.71-5.36.32-12,1-3.82.39-4.17.12-16,0-6-.06-12,0-18,0-6.34,0-12.7-.59-19,0s-8.19,1.42-10,0c-2.65-2.08-1.37-5.92-1-18s-.81-11.43,0-19a136.83,136.83,0,0,0,1-14c0-1.66,0-2.82,0-4V253C848.1,240.9,846.63,238.37,848.65,236Z"/><path class="cls-2" d="M969.65,236c-1.31-1.05-3.17-.41-6,0a35.75,35.75,0,0,1-10,0c-5-.35-6.91-1.19-8,0-.86.93-.32,2.36,0,5v9q0,10.5,0,21c0,10.67.27,21.34,0,32-.14,5.38-.32,9,1,14a39.82,39.82,0,0,0,7,14,46.28,46.28,0,0,0,17,14c11.91,5.58,22.84,4,30,3,7.68-1.1,17.2-2.45,26-10a42.46,42.46,0,0,0,13-21c1.23-4.38,1-6.36,1-21-.09-23.63-.13-35.44,0-37,1-12.3,3-20.64-1-23-1.23-.73-1.92-.23-6,0-11,.63-15.5-2.5-18,0-1.66,1.65-.74,4.07,0,10,1.07,8.6,0,17.33,0,26,0,5.67-.26,11.34,0,17,.32,7.05,1,12.18,0,20-.69,5.54-1.64,7.95-3,10a19.55,19.55,0,0,1-9,7,25.85,25.85,0,0,1-17,1c-2.75-.75-7.38-2-11-6-1.45-1.61-3.78-4.83-5-15-.86-7.11-.29-10.3,0-21,.39-14.52-.56-12.07,0-22,.39-7-1-14.08,0-21C970.84,240.7,971.38,237.39,969.65,236Z"/><path class="cls-2" d="M1115.65,266c1,.36,3.34-.43,8-2,6.34-2.14,7.76-3.27,11-3,1.64.14,2.51.54,3,0,1.35-1.48-2.77-7.27-4-9-3.37-4.73-6.77-9.5-13-13s-11.83-3.71-21-4c-9-.28-15.48-.48-23,3a33.11,33.11,0,0,0-15,13c-1.31,2.18-6.36,10.91-4,22,2.7,12.71,13.09,18.87,15,20,2.36,1.4,6.24,2.6,14,5,8.52,2.64,11.94,3,18,6,5.36,2.62,8.64,4.28,10,8a11.93,11.93,0,0,1-2,11c-3.31,4.26-8.56,4.66-13,5-3.67.28-11.83.9-16-4-3.08-3.61-1.88-7.75-5-9-1.05-.42-3,.05-7,1a46.86,46.86,0,0,0-7,2c-2.81,1.13-3.78,2-6,2-1.77,0-2.45-.48-3,0-1.51,1.32,1.45,7,2,8a35.14,35.14,0,0,0,8,10,43.57,43.57,0,0,0,7,5,51.28,51.28,0,0,0,16,6,54.36,54.36,0,0,0,27-2c5.1-1.71,10.08-3.38,15-8a32.07,32.07,0,0,0,10-21,30.74,30.74,0,0,0-4-17,32.29,32.29,0,0,0-11-11c-5.2-3.42-10.54-5-21-8-10.28-2.95-12.73-2.88-16-6-.65-.62-6.9-6.74-5-13a11.48,11.48,0,0,1,5-6,15.69,15.69,0,0,1,7-2,25.06,25.06,0,0,1,5,0c2.74.26,5.61.54,8,2C1113.28,259.85,1112,264.71,1115.65,266Z"/><path class="cls-2" d="M1155.65,236c2.92-3.19,7.49-1,22,0a187.38,187.38,0,0,0,28,0c7-.56,14-.18,21-1,4.41-.52,8.06-1.15,10,1,1.42,1.58.64,3.22,1,11,.27,6,.82,6.79,0,8-1.91,2.83-6.82,1.39-16,1-16.46-.7-17,3.2-28,1-5.86-1.18-9.88-3.13-12-1-.37.37-.87,1.05-1,9-.12,7,.26,6.43,0,10-.3,4.05-.81,5,0,6,1.31,1.59,3.93.53,10,0h24c4.54-.42,6.9-1.3,8,0,.89,1.05-.15,2.21,0,6,.1,2.81.7,3,1,6,.34,3.47.63,6.53-1,8-1.44,1.28-3.26.37-9,0-2.66-.17-5.34,0-8,0-4.67,0-9.35.33-14,0-7-.49-9.6-1.67-11,0-.87,1-.3,2,0,7a87.7,87.7,0,0,1,0,10c-.37,5.7-1.34,7.83,0,9,1.14,1,3,.42,5,0,4.57-.95,9.33,0,14,0h18c3.66,0,7.36.43,11,0,4.18-.5,6.78-1.39,8,0,.9,1,0,2.12,0,6,0,3.07.56,3.42,1,8,.39,4.1.58,6.16,0,7-1.81,2.61-6.94.75-17,0h-35c-6,0-12-.3-18,0-9.14.45-10.32,1.3-12,0-3.71-2.87-1-9.28,0-25,.52-8.32,0-16.67,0-25V254C1154.91,241.48,1153.29,238.58,1155.65,236Z"/></g></g></svg>