<svg xmlns="http://www.w3.org/2000/svg" viewBox="0 0 1176.98 137.54"><defs><style>.cls-1{fill:none;stroke:#000;stroke-miterlimit:10;stroke-width:2px;}</style></defs><g id="Calque_2" data-name="Calque 2"><g id="Calque_1-2" data-name="Calque 1"><path class="cls-1" d="M30.59,56.52c3.25-2.26,9.6.89,13,4,5.12,4.68,5.62,11.14,6,16,.36,4.55,1.17,15-6,22-3.39,3.34-9.77,7.11-13,5s0-8.67,0-23C30.61,65.58,27,59,30.59,56.52Z"/><path class="cls-1" d="M4.59,29.52c2.12-1.41,4-.4,14,0,7,.28,10.15-.05,13,0a49.42,49.42,0,0,1,33,15c13,13.88,12.25,31.85,12,38-.2,5.13-1.06,26.44-17,39-7.26,5.73-14.84,7.15-30,10-14.39,2.71-21.58,4.06-26,0-5.1-4.68-1.33-11.8,0-35,.86-14.91,1.55-26.81,0-42C2.3,41.73,0,32.52,4.59,29.52Z"/><path class="cls-1" d="M105.59,21.52c1.35,2.27,7,2.24,11,0,3.26-1.85,3.25-4,7-9,5.5-7.27,10.73-9.48,10-11-.61-1.29-4.18.63-12,0-3.94-.31-5.24-1-7,0-2.18,1.21-2.27,3.41-4,8C107.5,17.77,104.5,19.52,105.59,21.52Z"/><path class="cls-1" d="M85.59,28.52c2.77-2.1,4.75.2,18,1,9.66.58,14.49.88,21,0s10.15-2.28,13,0c1.68,1.34,1.91,3,3,8,3.15,14.4,4.83,17.14,3,19s-4.66.76-10,0c-18.09-2.57-20.56-1.33-22,0-3.09,2.87-3.29,9-1,11,1.19,1,2.66.66,8,0,12.2-1.5,13.47-.57,14,0,.86.92.59,4,0,10-.62,6.43-1.05,6.73-1,10,.08,4.73,1,5.84,0,7s-2.63,1.1-12,0c-5.69-.67-6.88-.89-8,0-2.4,1.92-2.55,7.5,0,10,2.24,2.19,5.54,1,14,0,11-1.33,19-2.28,21,1,1.42,2.27-1.48,4.17-3,12-1.69,8.73.76,12.3-2,15-2,2-4.76,1.4-12,1-3.57-.2-9.38-.13-21,0-15.8.18-19,1.89-22-1-2.72-2.67-2.31-6.44-2-15,.36-10-.22-20,0-30,.35-15.17.52-22.76,0-32C83.64,38.27,81.5,31.59,85.59,28.52Z"/><path class="cls-1" d="M143.09,30c.7-.66,1.5-1,14-1,11.64,0,12.77.23,14,1,3.91,2.45,3.46,6.64,6,20,2.79,14.67,3.91,12.69,7,29,1.55,8.15,1.9,12,3,12,1.43.06,2.21-6.22,6-22,5.75-23.9,7.06-22.34,7-29,0-4.61-.69-8.86,2-11,2.26-1.79,4.8-.46,11,0,5.9.44,17.47-.9,18,0a6,6,0,0,1,.32.68,3.88,3.88,0,0,1,.18.82c.63,5.49-3.5,11.5-3.5,11.5-2.39,3.49-1.83,5.56-5.5,22.5-5.39,24.93-7.12,22.79-10,39-3.3,18.64-2,26.78-8,30-3,1.6-4.27.09-16,0-13.67-.1-15.55,1.93-19,0-6.28-3.51-4.32-12.62-7-30-2.08-13.57-5.75-24.07-12-42C144.21,43.16,139.15,33.7,143.09,30Z"/><path class="cls-1" d="M234.59,28.52c2.81-2.45,6-.84,15,0,23.3,2.18,35-5.51,40,1,1.07,1.39.14,1.24,2,11,2.09,10.93,3.8,14,2,16-1.24,1.39-3.15,1.11-12,0-13.55-1.69-18.76-2.24-20,0-.44.8.11,1.08,0,6-.07,3.3-.33,3.45,0,4,1.39,2.34,7.1,1.76,14,1,4.59-.5,5.89-1,7,0,1.8,1.58.48,4.64,0,10-1,10.81,2.86,15.64,0,18-.93.77-3.63.53-9,0-7.48-.73-10.87-1.65-12,0-.4.59-.11.91,0,4,.16,4.27-.34,5.16,0,6,1.06,2.58,7.88,1.68,21,0,10.29-1.32,14-1.8,15,0,.89,1.55-1.22,3-3,9-.87,3-.52,3.17-2,11-.91,4.85-1.38,7.29-2,8-2.77,3.18-7.92,1-19,0a154.61,154.61,0,0,0-26,0c-7,.71-9,1.59-11,0-3.79-3.09-.59-9.93,0-23,.54-11.8-1.83-11.32-2-26-.16-14.43,2.15-13.93,2-27C234.4,39.86,230.12,32.4,234.59,28.52Z"/><path class="cls-1" d="M301.59,28.52c2.87-1.71,5.13,1.34,15,1,7-.24,10.15-1.9,12,0,2.4,2.47,0,8.29-1,11-4.55,12.72,1.56,15.54,1,37-.45,17.74-4.37,24.61,0,28,1.77,1.37,6.54.93,16,0,12.12-1.19,17.43-2.48,19,0,.81,1.28.07,2.65-1,6-4,12.75-1.08,17.67-5,21-1.83,1.56-3.33,1.21-13,1h-24c-16.21,0-17.8,1-20-1-4.47-4-1.81-11.29,0-27a255.27,255.27,0,0,0,1-45C300.3,42.1,296.69,31.4,301.59,28.52Z"/><path class="cls-1" d="M400.59,60.52a25.21,25.21,0,0,1,25-3,26.06,26.06,0,0,1,13,12c5.55,11,.66,21.63,0,23a24.46,24.46,0,0,1-26,14,26.22,26.22,0,0,1-15-8c-2-2-7.91-8-8-17a24.75,24.75,0,0,1,4-13A26.07,26.07,0,0,1,400.59,60.52Z"/><path class="cls-1" d="M375.59,44.52a49.74,49.74,0,0,1,23-15c9.46-2.79,17.22-1.8,23-1,7.67,1.06,20.86,2.88,32,13,16.62,15.09,16.22,37.27,16,42-.27,6.06-2,23.42-16,37-16,15.57-42.1,20.48-62,10-16.73-8.81-22.85-25.24-25-31-2.06-5.52-7.1-19.67-2-36A53.08,53.08,0,0,1,375.59,44.52Z"/><path class="cls-1" d="M475.09,29c2.64-2.41,5.75-1.47,28,0,10.64.7,10.68.54,13,1,5.54,1.1,17.32,3.45,25,13,10.73,13.34,5.78,31.19,5,34-1.09,4-4.74,17.12-16,23-11.84,6.19-23.39-.23-27,6-.61,1.07-.42,6.39,0,17,.23,5.75.37,7.54-1,9-2.07,2.21-5.22,1.16-14,1-10.4-.19-11,1.2-13,0-5.58-3.42-1.55-15.39,0-37,1-13.38,2-27.06,0-44C473.55,38.52,471.25,32.52,475.09,29Z"/><path class="cls-1" d="M502.59,54.52c1.34-1.47,3.94-1.21,6-1s5.33.54,8,3c5,4.64,3.14,12.49,3,13a14.53,14.53,0,0,1-7,9c-.38.2-7,3.64-10,1s1.84-7.6,0-18C502.07,58.52,501.18,56,502.59,54.52Z"/><path class="cls-1" d="M553.59,29.52c2.36-1.68,3.67-.47,16,0,15.88.61,17.44-1.25,25,0,4,.67,15.95,2.64,24,12,10.41,12.1,9.29,30.68,3,43a37.38,37.38,0,0,1-15,16c-4,2.2-12.06,6.64-21,5-2.35-.43-5.92-1.5-7,0-.73,1,.28,2.39,1,5,1.29,4.62-.34,5.77,0,12,.37,6.63,2.38,8.2,1,10s-3.86.81-11,1c-9.48.25-12.76,2.23-15,0-1.83-1.82-1.29-4.8-1-8,.81-8.74-1.18-8.36-2-23s1-17.3,1-33C552.5,44.16,547.6,33.76,553.59,29.52Z"/><path class="cls-1" d="M580.59,53.52c1.26-.86,3.18-.24,7,1,4,1.29,6.24,2,8,4,3.54,4,3.6,11.34,0,16-2.72,3.53-6.71,4.47-9,5-2.1.49-3.75.88-5,0-1.93-1.36-1.11-4.53-1-10C580.8,59.26,578.25,55.07,580.59,53.52Z"/><path class="cls-1" d="M685.59,29.52c-2.48-2.65-6-.8-18,0a165.73,165.73,0,0,1-24,0c-8.8-.69-10.89-1.76-13,0-3.85,3.21-1.37,10.52,0,22,1.23,10.26,0,20.67,0,31v37c-1.06,6.39-2.31,10.12,0,13,3.43,4.27,10.12,1,25,1,18.19,0,25,5,30,0,1.63-1.61.82-2,5-15,3.08-9.54,4.18-11.36,3-13-.82-1.16-2.77-2.22-20,0-10.08,1.3-13.93,2.25-16,0-2.43-2.65-2.36-8,0-10,1.53-1.26,3.21-.43,9,0,6.86.5,10.29.76,12-1,2-2.09-.06-4.72,0-13,.06-8,2.06-11.19,0-13-1.17-1-2.38-.5-9,0-10.09.76-11.45-.17-12-1s0-1.47,0-6c0-3.78-.47-4.22,0-5,1.38-2.25,6.62-.9,14,0,9.58,1.16,17.13,2.08,19-1,1.28-2.09-1.34-3.93-3-11C685.5,35.59,688.21,32.26,685.59,29.52Z"/><path class="cls-1" d="M695.59,29.52c2.22-1.79,4.57,0,13,0,9,0,12-2,14,0,2.29,2.3.24,6.67-1,13-2.24,11.46,1.61,11.78,1,27-.55,13.8-3.91,18.49-1,29,1.86,6.69,4.22,8.42,6,9,3.19,1,6.91-.77,9-3,3-3.19,3-7.58,3-10-.13-14.32-.19-21.48-1-27-2.82-19.35-5-34.38,1-38,1.72-1,2.13,0,10,0,11.16-.07,14.62-2.26,17,0s1,6.74,0,13c-.19,1.22-.12,9.48,0,26,.24,30.72,2.76,31.56,0,41-1.68,5.75-4.45,14.78-13,21s-18,6.07-22,6c-2.52,0-19.14-.34-29-12-5.59-6.62-6.06-17.08-7-38-1.17-26.3,2.9-25,0-40C694.29,39.74,692.09,32.3,695.59,29.52Z"/><path class="cls-1" d="M821.59,29.52c-2.29-2.89-6.41-3-14-3-10.06,0-15.1-.06-21,3a31.06,31.06,0,0,0-14,15c-4.43,10.45-1.28,20.08,0,24,1.12,3.41,3.78,11.54,11,18,3.9,3.48,7.71,5.22,9,10,.33,1.22,1.19,5.19-1,8-2.69,3.46-8.46,3.14-11,3-5.27-.29-7.41-2.28-9-1s-.5,4.15,0,9c1.14,11-2.51,14.81,0,18,1.49,1.89,3.58,1.38,16,1,14.57-.44,15,.06,18-1,9-3.2,13.68-10.84,15-13,6.5-10.57,5-21.56,4-26-.66-3-2.23-10.16-8-16-5-5.11-8.8-4.67-12-10-2.52-4.22-4-11-1-14s9.66-1.35,11-1c4.92,1.28,6.47,3.85,8,3,1.81-1,.35-5,0-14S823.44,31.8,821.59,29.52Z"/><path class="cls-1" d="M832.59,28.52c2.84-1.94,4.75.14,17,1,7,.49,13.7,1,22,0,7.73-.89,11.54-2.41,14,0,1.23,1.19.6,1.86,2,9a115.49,115.49,0,0,0,3,13c1,3.2,1.56,4.09,1,5-1.19,2-5.48.89-13,0-6-.71-18.75-2.22-20,1-.46,1.2,1.07,2,1,5s-1.59,3.95-1,5,3,1,11,0c6.3-.79,7.95-1.1,9,0s.28,2.61,0,7c-.22,3.65.19,7.43,1,15,.41,3.72.59,4.37,0,5-1.79,1.94-6.29-1.12-15-1-6,.08-6.82,1.57-7,2-.31.75,0,1.31,1,5,.91,3.51.72,3.52,1,4,1.63,2.72,7.56,1.85,15,1,16.43-1.86,18.14-1.09,19,0,1.34,1.69,0,3.28-2,13s-1.5,12.47-4,14-4.52-.09-10-1c-7.89-1.31-8.07,1.14-19,1-10.42-.14-12-2.39-20-1-4.54.79-5.47,1.77-7,1-4.78-2.42-1.14-14.8,0-33,1-16-.17-32.54-1-44C829.5,39.71,827.94,31.66,832.59,28.52Z"/><path class="cls-1" d="M951.59,30.52c-2.29-1.94-5.33-.52-11,0-9.58.88-12.74-2.1-15,0-3.09,2.89.51,10.69,3,18,4.94,14.47.63,13.2,6,50,2.64,18,3.52,17.87,3,23-.39,3.89-1.26,7.64,1,10,1.1,1.14,2.63,1.65,12,2,6.17.23,9.26.35,10,0,4.36-2,4.41-7.5,9-23,3.38-11.39,4.58-15.77,7-16,1.92-.18,3.64,2.54,7,8a102.87,102.87,0,0,1,9,19c2.74,7.35,1.31,10.27,4,12,2.31,1.48,4.23.34,12,0,8.81-.38,9.09,1,11,0,6.42-3.26,1.47-17.61,4-41,.75-6.94,2.17-13.29,5-26,4.69-21,8.56-31.31,4-35-1.58-1.28-2.36-.29-11-1-11-.91-13.48-2.83-16-1-2.74,2-2,5.94-2,16,0,10.23.11,25.25-3,26-2.15.52-5.42-5.92-8-11-8.66-17.08-9.86-30.07-13-30-1.1,0-1.46,1.66-4,7-4.5,9.48-5.6,9-10,18-4.73,9.72-5.33,14.13-7,14-2.71-.21-3.91-12.11-4-13-.52-5.39-.12-10.42-1-20C953.34,33.65,953.09,31.74,951.59,30.52Z"/><path class="cls-1" d="M1037.59,29.52c4.06-3.27,7.38,0,22,0,18.59,0,27.81-5.17,32,0,1,1.28.3,1.38,2,10,2.05,10.33,3.64,12.82,2,15-1.1,1.47-4.4,1.65-11,2-7.87.42-11.81.63-16,0-2.62-.39-5.45-1-6,0s1.27,2.18,2,5-.78,3.74,0,5c.6,1,2.1,1.56,11,1,6.22-.39,7-.78,8,0,2.32,1.74.68,5.24,1,14,.31,8.29,2,11.28,0,13-1,.89-2,.52-10,0-7-.45-8.89-.34-10,1s-1.06,3.77-1,5a9.93,9.93,0,0,0,1,4c1.48,2.33,5.85,2.92,22,1,8.36-1,10.74-1.58,12,0,1.81,2.26-1.45,5.48-3,15-1.12,6.93,0,8.94-2,11-2.44,2.52-6.16,1.61-14,1a204.44,204.44,0,0,0-25,0c-13.37.81-15.28,3.12-18,1-5.15-4,0-13.69,1-34,.21-4.12-.53-15.08-2-37C1034,39.11,1033.26,33,1037.59,29.52Z"/><path class="cls-1" d="M1103.59,29.52c2.3-1.72,3-.44,27,0,9.8.18,12.62,0,18,1,8.59,1.57,14.21,2.59,19,7,7.91,7.27,10.91,21.26,6,30-3.88,6.92-11.56,8.46-11,13,.35,2.81,3.37,3,7,7,7.21,8,6.09,19.26,6,20a27.26,27.26,0,0,1-8,16c-5.49,5.59-11.66,7.27-18,9-2.94.8-5.63,1.3-24,2s-20.58-.4-22-2c-3.74-4.21-.52-10.53,1-23,.63-5.12.09-13.75-1-31C1101.23,40.87,1098.29,33.46,1103.59,29.52Z"/><path class="cls-1" d="M1131.59,52.52c1.89-1.71,5.28-.76,8,0,2.93.82,5.49,1.53,7,4a8.84,8.84,0,0,1-1,10c-1.57,1.82-3.54,2.35-6,3-2.85.76-6.13,1.64-8,0-.77-.68-1-1.54-1-9C1130.62,54,1130.81,53.19,1131.59,52.52Z"/><path class="cls-1" d="M1131.59,91.52c2.3-2.45,7-1.25,8-1,1.43.36,5.17,1.31,7,5a9.13,9.13,0,0,1,0,8c-1.26,2.59-3.41,3.69-6,5s-7.7,3.92-10,2c-1.49-1.26-.17-3.1,0-12C1130.68,94.13,1130.4,92.75,1131.59,91.52Z"/></g></g></svg>