<svg xmlns="http://www.w3.org/2000/svg" viewBox="0 0 878.09 138.66"><defs><style>.cls-1{fill:none;stroke:#000;stroke-miterlimit:10;stroke-width:2px;}</style></defs><g id="Calque_2" data-name="Calque 2"><g id="Calque_1-2" data-name="Calque 1"><path class="cls-1" d="M1.27,133c1-4,2.73-10.06,5.07-17.45,7-22,9.49-23,15.21-41.67,1.77-5.83,6-20.2,9.19-28.35,2.81-7.05,3.73-6.43,4.7-10.7.39-1.73.74-4.06,2.44-4.88,1.26-.6,2.57,0,3.94.38,2.26.7,5,.72,10.32.75S60,31.13,63,30.52c1.86-.38,3.37-.83,4.69,0,1.75,1.09,1.68,3.7,2.07,5.06,1.3,4.59,3.28,9,4.69,13.52C76.63,56.1,79,63,81.24,69.94c7.54,23.6,11.32,35.41,15.76,45.42,3.86,8.68,7.62,15.71,5.07,18.21-1.8,1.77-4.69-.79-12.39-.57-8.51.25-12.5,3.6-15.2,1.13-2.09-1.91-2.82-6.76-2.82-6.76s-.61-3.35-2.06-4.69-3.8-.52-7.32,0-1.91-.24-13.52-.19c-9.08,0-8.58.51-10.51,0-1.57-.41-3.38-1.09-4.5-.18-.82.65-.68,1.66-.94,3.94-.4,3.41-.71,6.07-2.25,7.32-.86.68-1.51.48-5.82.37-4.69-.11-3.73.14-8.83,0-3.32-.09-5.86-.25-7.69-.37C5.48,133.38,3.13,133.17,1.27,133Z"/><path class="cls-1" d="M51.63,68.61c1.16,0,2.16,2.84,3.19,5.82,1.3,3.75.82,4.47,2.06,8.63a56.92,56.92,0,0,0,3,7.89c1.59,3.23,2.53,4.13,2.06,5.07-.64,1.29-3.07.77-8.44.93-7.28.22-9.83,1.39-10.7,0-.75-1.19.78-2.64,2.44-7.32.83-2.35.73-2.81,1.87-7.69C49.13,73.08,50.18,68.65,51.63,68.61Z"/><path class="cls-1" d="M103.2,30.5c.81-.39,1,0,6.19,0,3.09,0,5.35-.17,8.26-.38,8.83-.62,11-1.44,12.2,0,1,1.2.57,2.92.19,5.44-.74,5,.18,10,.19,15,0,12.73.24,11.09.19,19.71-.09,13.21-.13,19.82-.19,20.27-.37,2.72-1.06,6.77.56,11.45.72,2.09,1.73,4.85,4.51,6.2a8.34,8.34,0,0,0,8.63-1.13,9.6,9.6,0,0,0,3-6.19c2.46-17.25.38-48.24.38-48.24,0-12.86-3.9-19.36-.38-22,2.39-1.76,4.74.19,14.27,0,8.49-.16,10.62-1.78,12.76,0,2.86,2.38,1.47,7.24.75,16.33-.33,4.19.26-.51.19,22.34,0,15.67-.29,9.19-.56,29.28-.11,8.17-.08,10-.94,13.33a34.42,34.42,0,0,1-10.7,17.65c-11.33,9.58-25.75,7.4-30,6.75s-13.11-2-20.27-9.19c-6.44-6.48-8.13-14.23-8.83-17.65-1.15-5.65-.62-9.56-.18-15a266,266,0,0,0,.21-33.41C102.53,44.34,99.06,32.5,103.2,30.5Z"/><path class="cls-1" d="M183.54,30.5c2.13-2.72,6.49-.58,18,0,3.42.17,2.31-.06,21,.18a36.64,36.64,0,0,1,6.19.38,30,30,0,0,1,14.08,6.57c6.93,5.91,8.88,13.47,9.76,17.08.7,2.88,4.18,17.14-3.38,25.72-3.88,4.4-7.91,4.16-9,8.26-.84,3.15,1.11,4.94,5.26,13.14,5.64,11.14,3.64,11,8.45,19.52,3.41,6,6.4,9.57,5.06,11.45-.59.83-2.09.87-5.06.94-7.41.15-11.12.22-13,.18-10-.2-10.17.61-11.82-.37-3.43-2-2.51-5.29-5.82-14.08s-5.32-8.46-9-18.4c-2.09-5.64-3-9.86-3.57-9.76s-.22,3.31,0,9c.35,8.8-.09,7.34.19,17.27.36,12.52,1.07,15-.94,16.52-1.26,1-1.76.16-11.63.19h-8.83c-3.93,0-5.91-.07-6.38-.38-3.18-2.08-.85-8.62,0-21.77.12-1.9.15-7.46.19-18.58v-30c0-8.69,1.11-17.46,0-26.09C182.86,33.67,182.37,32,183.54,30.5Z"/><path class="cls-1" d="M210.57,53.78c1-.64,2.36-.24,5.06.57,4.27,1.27,7.34,2.18,9.39,5.25,3.13,4.68,1.12,10.23.94,10.7a13,13,0,0,1-7.13,7.13c-.94.42-6.35,2.83-8.83.57-1.74-1.59-.39-4-.18-11.08C210,58.82,208.48,55.12,210.57,53.78Z"/><path class="cls-1" d="M281.52,22.44c.9,2.38,7.13,3.36,11.26.93,2-1.19,1.64-2.07,4.88-6.19.59-.75,1.15-1.41,9.39-10.14,2.7-2.86,3.73-3.94,3.38-4.69-.48-1-2.8-.15-7.14-.19-7-.06-9.84-2.32-12.2-.37-.33.27-.51.51-1.87,3.94-2.38,6-2.41,6.7-3.38,8.82C283.31,20.06,280.91,20.82,281.52,22.44Z"/><path class="cls-1" d="M260.68,30.32c2.5-2,4.44.14,17.65.56,7.65.25,15-.23,17.08-.37,5.24-.37,10.57.4,15.77-.38,1.76-.26,4.81-.8,6,.75.79,1,.29,2.3,0,4.13-.21,1.41,0,1.38,1.88,13.33.41,2.54.15,5.19.75,7.69a2.36,2.36,0,0,1,0,1.88c-.85,1.32-4,.49-7.13,0-6-.91-5.25.49-13.14-.19-6.49-.55-9.3-1.7-10.7,0-.43.53-.54,2-.75,4.88-.24,3.32-.35,5,.19,5.64.72.86,1.72.67,8.07.37,9.69-.45,6.93,0,8.44-.19,1.84-.25,3.09-.56,3.95.19,1.08,1,.75,2.88.56,4.32-.3,2.26-.2,5.76,0,12.76.19,6.6,1.32,8.78-.19,10-.45.35-.84.39-6.38.19-2.91-.11-3.41-.14-5.26-.19-7.52-.21-4.89.15-6.57,0-1.45-.13-2.12-.28-2.62.19s-.3,1.11-.19,4.32a29.33,29.33,0,0,1,0,3.75c-.14,1.75-.35,1.87-.19,2.25.69,1.62,5.14,1.06,9.76.75,6.8-.44,5,.27,12.2-.18,9.14-.58,12.36-1.75,13.52,0,.73,1.09-.25,2-1.5,7.13-1.44,5.88-.47,6-1.88,10.13-1,2.88-1.8,3.92-2.44,7.14A4.24,4.24,0,0,1,317,133c-1.4,1.89-4.9.88-9.58.57-5.2-.35-4.54.68-12.76.75-5.16,0-4.56-.36-10-.38-7.92,0-14.45.57-14.45.57-5.23.46-8.16,1-9.2-.57-.69-1-.15-2.44.19-3.56,1.41-4.78,0-8.07-.75-13.52-.88-6.45-.06-10.55.37-34.91.23-13.14.35-19.71.19-22.53C260,41.21,256.53,33.69,260.68,30.32Z"/><path class="cls-1" d="M328.22,30.5c2-1.73,4.29-.26,12,0,9.59.33,11.53-1.75,14,0,3.54,2.51,1.81,8.35,1,22-1.09,18.51,1.51,17.4,0,32-1.44,14-4.25,19-1,22,2.14,2,4.77,1.13,20,0,13.38-1,16-.68,17,1,1.46,2.41-1.94,5-5,15-2.36,7.74-1.13,8.81-3,11-4.13,4.85-12,1.75-28,1-16.92-.79-25,3.51-28-1-1.64-2.48,0-4.79,1-12,1.11-8-.19-10.39-1-23-.64-10-.46-17.29,0-29,.7-17.5,2-17.4,1-25C327.31,37.61,325.63,32.78,328.22,30.5Z"/><path class="cls-1" d="M394.22,29.5c2.56-1.57,4.54,1.54,12,1,6.19-.45,9.47-2.93,12-1,1.61,1.22,1.85,3.39,2,5,1,10.91,1.58,16.36,1,20-1.61,10.21-.61,20.67-1,31-.86,23-1.27,34.52,0,38,1,2.75,3.1,7.58,1,10-1.25,1.44-2.76.62-11,1-4.54.21-7.81.63-13,0-3.17-.39-3.71-.76-4-1-3.3-2.74-.39-10.42,1-17,1.9-9-.57-8.52-1-29-.41-19.88,2-17.91,1-32C393.23,40.81,390.2,31.93,394.22,29.5Z"/><path class="cls-1" d="M429.22,29.5c2.77-2.8,6.66.24,22,1,7.53.37,11.88.59,18,0,8.6-.82,12.26-2.41,15,0,2.11,1.86.45,3.24,3,11,1.54,4.67,3.17,7.32,3,12-.07,1.9-.13,3.07-1,4-1.78,1.9-4.81.47-12,0h-11c-2.66,0-5.43.72-8,0h0s-.63,2.49-1,5c-.32,2.24-.47,3.37,0,4,.61.8,1.6.77,4,1,.93.09,3,.39,7,1,2,.3,8,1.34,6,1h0s3.23-.21,4,1c.58.9-.57,2-1,4s.36,2.81,1,6c.75,3.71.47,6.51,0,11-.32,3.18-.66,3.67-1,4-1.28,1.26-3.27.8-9,0-7.67-1.07-9.27-1-10,0s.31,2.06,0,5c-.39,3.8-2.49,4.77-2,6,.89,2.19,8.47,1.44,25,0,6.5-.57,9.77-.81,11,1,1.44,2.11-1.09,4.6-3,12-2.22,8.64-.41,11.56-3,14s-5.73.91-15,0a178.89,178.89,0,0,0-30,0c-8.09.73-10,1.66-12,0-4-3.35-.39-10.63,1-25,1.47-15.16-1.84-14.68-1-37,.51-13.2,1.68-13.75,1-22C429.24,37.5,426.26,32.5,429.22,29.5Z"/><path class="cls-1" d="M589.22,27.5c-4.26-4.42-13.44-2-21,0a55.6,55.6,0,0,0-40,38,56,56,0,0,0,0,30c1.56,6.21,5.43,21.6,20,32,9.59,6.85,18.85,8,27,9,11.46,1.42,14.21-1.13,15-2,2.2-2.4,1.11-4.65,2-14,1-10.53,3-14.54,1-16s-4.88,2-11,3c-9.23,1.46-17-4.25-18-5a26,26,0,0,1-10-23c.28-2.8,1.59-11.36,9-17a23.77,23.77,0,0,1,20-4c5,1.36,7.3,4.15,9,3,1.95-1.32.1-5.76-1-14C589.45,34.08,592.34,30.69,589.22,27.5Z"/><path class="cls-1" d="M599.22,30.5c2.1-2.18,4.39-1.22,18-1,13.1.21,19.65.31,24,0,7.23-.52,10.47-1.31,13,1,2,1.86,1.48,3.77,3,11,2.18,10.31,4.66,12.75,3,15-.75,1-2.33,2-14,1-12-1-17.36-2.54-19,0-.74,1.15-.49,3.1,0,7,.29,2.25.43,3.38,1,4,1.51,1.64,4.31.82,11,0,8.65-1,9.61-.37,10,0,1.91,1.76.14,4.56,0,12-.15,8.78,2.2,11.81,0,14-1.17,1.17-4.46,1.13-11,1-6.34-.13-8.71-.63-10,1-.6.77-.73,2.51-1,6-.18,2.37-.27,3.56,0,4,1.29,2.13,5.78.45,15,0,7.83-.38,7.43.68,14,0,4.36-.45,5.95-1.07,7,0,1.67,1.69-.45,5.12-3,14-2.76,9.6-1.84,11-4,13-3.47,3.18-8.35,1.78-18,1-8.49-.69-18.19-.09-23,0-11.33.23-13.13.75-15-1-3.69-3.46-1.05-9.6,0-22,1-11.57-1-9.67-1-29,0-20.56,2.28-19.54,1-31C598.87,39.35,595.87,34,599.22,30.5Z"/><path class="cls-1" d="M668.22,29.5c2.71-1.94,4.79.54,20,1,5.94.18,5.89-.19,9,0,15.12.93,26.13,10.24,27,11,9.09,7.89,12.23,17.38,14,23,1.72,5.43,5.74,21-1,38-1.69,4.3-5.24,13-14,20-5.79,4.65-11,6.29-20,9-15.39,4.65-31.53,9.53-37,3-2.72-3.25.08-5.89,1-20,.95-14.4-1.62-16.8-1-36,.29-8.93.81-7.09,1-15C667.78,41.31,663.63,32.76,668.22,29.5Z"/><path class="cls-1" d="M746.22,30.5c1.71-1.47,3.31-.17,10,0,9.8.26,13.44-2.34,16,0s1.54,6.69,1,10c-2.18,13.49.18,27.34,0,41-.18,14-.27,21,0,24,1.29,13.92,4.49,23.85,0,27-.81.57-2.87.71-7,1-5.61.39-6.46-.21-12,0-6.34.25-7.73,1.14-9,0-2.33-2.09-.24-7.48,1-12,1.78-6.45.11-4.85,0-42v-17c0-5,.28-10,0-15C745.63,36.41,743.79,32.55,746.22,30.5Z"/><path class="cls-1" d="M811.22,30.5c2.9-2.67,6.74,0,15,0s12.11-2.67,15,0a7.43,7.43,0,0,1,2,5c1.13,12.6,8.28,23.91,12,36,5.19,16.85,7.78,25.27,11,33,7,16.77,13.21,25.68,10,29-2.52,2.61-7.17-2.1-18,0-5.07,1-9,3-11,1-.83-.81-.54-1.52-2-6-.94-2.91-1.42-4.36-2-5-1.8-2-4.52-1.25-12-1-1.27,0-7,.24-13,0-6.6-.26-9.35-.86-11,1-.05.06-.18.26-.33.5a16.78,16.78,0,0,0-1.67,3.5c-1.33,3.92-.65,5.91-2,7-1.53,1.25-3.57-.4-9-1a39,39,0,0,0-7,0c-8.78.46-11.92,2.43-13,1s1.24-3.73,4-10c.7-1.59,1-2.42,4-12,2.69-8.54,4-12.8,5-16,4.08-13.33,5.1-13,12-33,3.24-9.37,9.15-18.13,10-28A7.43,7.43,0,0,1,811.22,30.5Z"/><path class="cls-1" d="M825.22,68.5c-1,0-1.7,3.58-3,8-3.83,13.06-8.14,17.5-6,20,.73.85,1.43.59,8,1,8.49.54,10.17,1.15,11,0,1-1.44-1-3.25-4-11a120.55,120.55,0,0,1-4-12C826.22,70.59,826,68.5,825.22,68.5Z"/><path class="cls-1" d="M694.72,57c-2.4,1.26-.07,6.38,0,20,.1,17.66-3.72,25.77,0,28,3.28,2,9.34-2.45,12-5,6.7-6.42,7.88-16.45,6-24C709.77,64.09,698.43,55,694.72,57Z"/></g></g></svg>