<svg xmlns="http://www.w3.org/2000/svg" viewBox="0 0 500 500"><defs><style>.cls-1{fill:#081720;}.cls-2{fill:#42a0d3;}.cls-3{fill:#1f5c93;}.cls-4{fill:#fff;}.cls-5{fill:#ea536c;}.cls-6{fill:#ffc72c;}.cls-7{fill:#f8a130;}.cls-8{fill:#bc2445;}.cls-9{fill:#ccd3d6;}.cls-10{fill:#f79931;}</style></defs><g id="Calque_2" data-name="Calque 2"><g id="BACKGROUND"><rect class="cls-1" width="500" height="500" rx="27.69"/></g><g id="OBJECTS"><path class="cls-2" d="M238.53,100.9a32.75,32.75,0,0,0,11.53,25.51,32.72,32.72,0,0,0,11.57-25.49c0-17-11.52-36-11.52-36S238.54,83.93,238.53,100.9Z"/><rect class="cls-3" x="249.58" y="73.11" width="1" height="53.3"/><rect class="cls-3" x="249.42" y="86.71" width="7.82" height="1" transform="translate(-5.53 156.29) rotate(-33.94)"/><rect class="cls-3" x="245.01" y="99.97" width="1" height="11.01" transform="translate(20.8 250.06) rotate(-56.01)"/><path class="cls-2" d="M222.55,115.33A21.76,21.76,0,0,0,240,121.9a21.76,21.76,0,0,0-6.53-17.42c-8-8-22.31-11.48-22.31-11.48S214.59,107.35,222.55,115.33Z"/><rect class="cls-3" x="226.95" y="91.66" width="1" height="35.41" transform="translate(-10.79 192.66) rotate(-44.95)"/><polygon class="cls-3" points="223.07 104.59 222.09 104.39 223.09 99.3 224.07 99.49 223.07 104.59"/><rect class="cls-3" x="224.33" y="113.7" width="7.31" height="1" transform="translate(-17.63 45.7) rotate(-11.02)"/><path class="cls-2" d="M277.56,115.33a21.75,21.75,0,0,1-17.4,6.57,21.79,21.79,0,0,1,6.54-17.42C274.67,96.5,289,93,289,93S285.53,107.35,277.56,115.33Z"/><rect class="cls-3" x="254.97" y="108.87" width="35.41" height="1" transform="translate(2.54 224.86) rotate(-45)"/><polygon class="cls-3" points="277.05 104.59 276.05 99.49 277.03 99.3 278.03 104.39 277.05 104.59"/><rect class="cls-3" x="271.63" y="110.54" width="1" height="7.31" transform="translate(108.08 359.52) rotate(-78.99)"/><path class="cls-4" d="M378.29,186.74s14.23-106.5-.35-114.85c-18.23-10.44-91.22,49.53-91.22,49.53a156.6,156.6,0,0,0-73.28,0s-73-60-91.23-49.53c-14.57,8.35-.34,114.85-.34,114.85S67.78,298.77,177,362.08c35.77,17.67,38.1-11.79,73.13-11.8s37.36,29.47,73.13,11.8C432.38,298.77,378.29,186.74,378.29,186.74ZM134.08,230.6c57.46-12.7,85.51,7.15,93.65,49C171.5,280.3,140.7,263.68,134.08,230.6Zm138.34,49c8.15-41.86,36.19-61.71,93.66-49C359.46,263.68,328.66,280.3,272.42,279.61Z"/><path class="cls-5" d="M136.72,98.48c8.94-6,45.31,35.18,45.31,35.18a161.2,161.2,0,0,0-43.59,32.79S127.88,104.37,136.72,98.48Z"/><path class="cls-5" d="M232.61,279.48c-4.3-22.09-15.61-39.7-32.71-50.92-19.63-12.87-45.59-16.24-75.07-9.72l-4.67,1,.69,4.72c6.08,41.58,37.85,61.09,99.81,61.09,2.29,0,4.64,0,7-.08l6.09-.14ZM134.94,231c56.94-12.6,84.73,7.09,92.79,48.63C172,280.3,141.5,263.8,134.94,231Z"/><path class="cls-5" d="M375.33,218.84c-29.48-6.52-55.44-3.15-75.07,9.72-17.1,11.22-28.41,28.83-32.71,50.92l-1.16,6,6.09.14c2.38,0,4.73.08,7,.08,62,0,93.73-19.51,99.81-61.09l.69-4.72ZM272.42,279.61c8.09-41.43,35.93-61.07,93-48.5C358.83,263.85,328.25,280.3,272.42,279.61Z"/><path class="cls-6" d="M260.14,264.29c-1.37-23.44,13.44-46.89,35.1-56a58.79,58.79,0,0,1,22.44-4.79l.17.92a136.08,136.08,0,0,0-19.94,9.18c-15.61,8.85-27.14,23.42-33.42,40.19a94.85,94.85,0,0,0-3.42,10.51l-.93,0Z"/><path class="cls-7" d="M241.69,144.94c-3.38-9.5-3.83-9.9-13-14l-.14-1c8.75-7.44,20.47,1.83,16.18,12.23a8.88,8.88,0,0,1-2.11,3.14l-.92-.38Z"/><path class="cls-5" d="M250.08,202.78A37.11,37.11,0,0,1,223.84,192l.71-.71a36.39,36.39,0,0,0,51.06,0l.71.71A37.11,37.11,0,0,1,250.08,202.78Z"/><path class="cls-7" d="M257.55,145.32a11,11,0,0,1-.46-14.55,10.25,10.25,0,0,1,14.53-.82l-.14,1c-2.22,1.13-4.09,1.85-5.55,2.62-4.74,2.33-5.56,6.55-7.46,11.38l-.92.38Z"/><path class="cls-5" d="M249.76,263.94c-3.2-21.19-4-42.45-4.16-63.79,0-21.35.69-42.62,4.16-63.79h.64c3.47,21.17,4.17,42.44,4.16,63.79-.17,21.34-1,42.6-4.16,63.79Z"/><path class="cls-6" d="M239,264.34c-5.4-20.91-17.74-40-36.76-50.7a136.4,136.4,0,0,0-19.92-9.18l.18-.92a58.58,58.58,0,0,1,22.41,4.8c18.13,7.61,31.35,25.21,34.42,44.48a46.43,46.43,0,0,1,.61,11.47l-.94,0Z"/><path class="cls-5" d="M112.7,283.48A143.7,143.7,0,0,0,189,323.82c-29.92,0-52.18-6.6-69.51-21.52A103.91,103.91,0,0,1,112.7,283.48Z"/><path class="cls-7" d="M336.39,201.34a6.13,6.13,0,1,1-6.13-6.13A6.13,6.13,0,0,1,336.39,201.34Z"/><path class="cls-7" d="M353.55,201.34a4.88,4.88,0,1,1-4.88-4.87A4.88,4.88,0,0,1,353.55,201.34Z"/><path class="cls-7" d="M367.83,204a3.44,3.44,0,1,1-3.44-3.44A3.44,3.44,0,0,1,367.83,204Z"/><circle class="cls-7" cx="169.89" cy="201.34" r="6.13"/><path class="cls-7" d="M146.61,201.34a4.88,4.88,0,1,0,4.88-4.87A4.88,4.88,0,0,0,146.61,201.34Z"/><path class="cls-7" d="M132.33,204a3.44,3.44,0,1,0,3.44-3.44A3.44,3.44,0,0,0,132.33,204Z"/><path class="cls-8" d="M215.75,281c-57,0-86.11-17.35-91.71-54.58l-.71-4.66,4.73-1c27.07-5.8,50.93-2.8,69,8.69,15.74,10,26.15,25.74,30.11,45.46l1.18,5.89-6.16.13C220,280.94,217.81,281,215.75,281Zm-91.29-58.46.56,3.73c5.52,36.65,34.35,53.73,90.73,53.73,2.06,0,4.21,0,6.41-.08l5-.1-.95-4.72c-3.9-19.45-14.16-34.95-29.67-44.81-17.83-11.35-41.43-14.31-68.24-8.56Z"/><path class="cls-8" d="M284.41,281c-2.07,0-4.23,0-6.43-.08l-6.16-.13,1.18-5.89c3.95-19.72,14.37-35.44,30.11-45.46,18.06-11.49,41.91-14.49,69-8.69l4.72,1-.7,4.66C370.52,263.62,341.37,281,284.41,281ZM273,279.79l5,.1c2.19.05,4.35.08,6.41.08,56.38,0,85.2-17.08,90.73-53.73l.56-3.73-3.81-.81c-26.81-5.75-50.41-2.79-68.24,8.56-15.51,9.86-25.77,25.36-29.67,44.81Z"/><path class="cls-7" d="M129.15,319.32C155.53,336.1,189,333.68,189,333.68s-28,8.19-48.16.17A122.2,122.2,0,0,1,129.15,319.32Z"/><path class="cls-5" d="M387.45,283.48a143.71,143.71,0,0,1-76.28,40.34c29.91,0,52.17-6.6,69.5-21.52A103.91,103.91,0,0,0,387.45,283.48Z"/><path class="cls-7" d="M371,319.32c-26.38,16.78-59.83,14.36-59.83,14.36s28,8.19,48.15.17A122.2,122.2,0,0,0,371,319.32Z"/><path class="cls-7" d="M254.67,126.41a4.6,4.6,0,1,1-4.59-4.6A4.58,4.58,0,0,1,254.67,126.41Z"/><path class="cls-5" d="M363.44,98.48c-8.94-6-45.31,35.18-45.31,35.18a161.2,161.2,0,0,1,43.59,32.79S372.27,104.37,363.44,98.48Z"/><path class="cls-1" d="M197.19,364.89c-5.57,0-12.13-1.69-20.47-6.09l.46-.88C197.62,368.7,207.07,362.8,218,356c8.05-5,17.17-10.71,32.08-10.71h0c14.9,0,24,5.69,32.07,10.71,10.93,6.82,20.37,12.71,40.81,1.94l.46.88c-20.94,11-30.61,5-41.8-2-7.94-4.95-16.93-10.56-31.55-10.56h0c-14.62,0-23.61,5.61-31.55,10.56C211.79,361,205.61,364.89,197.19,364.89Z"/><rect class="cls-1" x="249.58" y="335.34" width="1" height="10.43"/><path class="cls-9" d="M121.87,186.74a54.18,54.18,0,0,1,9.22-12.57,49.61,49.61,0,0,0-9.77,8.23Z"/><path class="cls-9" d="M378.3,186.75a54.46,54.46,0,0,0-9.23-12.56,49.61,49.61,0,0,1,9.78,8.22Z"/><path class="cls-6" d="M250.08,187.06c-14.37,0-26.79-7.51-32.75-18.43a33.07,33.07,0,0,0,65.5,0C276.87,179.55,264.44,187.06,250.08,187.06Z"/><path class="cls-5" d="M161.1,182.9c9.92-2.81,22.59,2.92,24.65,13.57-6.28-8.29-14.63-11.82-24.65-13.57Z"/><path class="cls-5" d="M339.06,182.9c-10,1.75-18.37,5.28-24.65,13.57a16,16,0,0,1,3.32-7c4.93-6.11,13.85-8.61,21.33-6.58Z"/><path class="cls-5" d="M166,166.54c6.35-1.8,12.63,2.59,16.28,7.5a38,38,0,0,1,3.88,7,51.82,51.82,0,0,1,1.65,5,46.65,46.65,0,0,1,1.47,10.37c-.71-1.62-1.29-3.24-1.87-4.85-2.35-6.19-4.85-12.59-9-17.82-3.09-3.83-7.33-7-12.41-7.26Z"/><path class="cls-5" d="M334.13,166.54c-5.08.31-9.32,3.43-12.41,7.26-4.15,5.23-6.65,11.63-9,17.82-.58,1.61-1.16,3.23-1.88,4.85a45.08,45.08,0,0,1,3.13-15.4,37.67,37.67,0,0,1,3.88-7c3.64-4.91,9.93-9.3,16.28-7.5Z"/><path class="cls-1" d="M233.6,323.86h0a6.35,6.35,0,0,0,3.51,5.68l4.37,2.19a6.22,6.22,0,0,1,2.79,2.74l2.85,5.46a2.73,2.73,0,0,0,2.42,1.47h1.08a2.74,2.74,0,0,0,2.42-1.47l2.84-5.46a6.29,6.29,0,0,1,2.8-2.74l4.37-2.19a6.35,6.35,0,0,0,3.51-5.68h0a6.39,6.39,0,0,0-5.11-6.23,53.81,53.81,0,0,0-22.74,0A6.39,6.39,0,0,0,233.6,323.86Z"/><path class="cls-7" d="M229.74,145.63A3.23,3.23,0,1,1,233,142.4,3.23,3.23,0,0,1,229.74,145.63Zm0-5.45A2.23,2.23,0,1,0,232,142.4,2.23,2.23,0,0,0,229.74,140.18Z"/><path class="cls-7" d="M270.42,145.63a3.23,3.23,0,1,1,3.23-3.23A3.23,3.23,0,0,1,270.42,145.63Zm0-5.45a2.23,2.23,0,1,0,2.23,2.22A2.23,2.23,0,0,0,270.42,140.18Z"/><path class="cls-6" d="M254.55,308.63a4.5,4.5,0,1,1-4.5-4.49A4.5,4.5,0,0,1,254.55,308.63Z"/><circle class="cls-6" cx="250.05" cy="294.66" r="2.67"/><circle class="cls-6" cx="250.05" cy="283.33" r="1.85"/><path class="cls-6" d="M251.21,273.52a1.16,1.16,0,1,1-1.16-1.16A1.15,1.15,0,0,1,251.21,273.52Z"/><path class="cls-8" d="M169.47,140.84c-10.29-16.4-21.8-33.28-29.15-34.09a4.25,4.25,0,0,0-3.69,1.37l-.71-.71a5.27,5.27,0,0,1,4.51-1.65c7.75.86,18.94,17.11,29.89,34.55Z"/><path class="cls-8" d="M330.73,140.84l-.84-.53c10.94-17.44,22.14-33.69,29.88-34.55a5.29,5.29,0,0,1,4.52,1.65l-.71.71a4.27,4.27,0,0,0-3.7-1.37C352.54,107.57,341,124.44,330.73,140.84Z"/><path class="cls-9" d="M193.39,128.55a160.43,160.43,0,0,1,20.05-7.13L209.18,118A56.69,56.69,0,0,0,193.39,128.55Z"/><path class="cls-9" d="M306.74,128.55a159.31,159.31,0,0,0-20.05-7.13L291,118A56.64,56.64,0,0,1,306.74,128.55Z"/><path class="cls-7" d="M55.37,395.38a7,7,0,0,1-2.32-.4c-6.32-2.22-10-12.74-10.19-13.19l1-.33c0,.11,3.71,10.52,9.57,12.57a6.41,6.41,0,0,0,5.76-.85c7.28-5.32,2.36-13.53-4.44-24.89-7.82-13-18.52-30.89-13.79-52.52,8.67-39.62,58.37-62,58.87-62.23l.41.91c-.5.22-49.74,22.41-58.3,61.53-4.65,21.25,5.5,38.19,13.66,51.8,6.82,11.37,12.2,20.35,4.15,26.23A8.12,8.12,0,0,1,55.37,395.38Z"/><path class="cls-7" d="M115.57,369.16l-.38-.92a20.12,20.12,0,0,0,11.14-10.85c2.41-5.86,2-13-1.28-20.73-3.5-8.32-11.87-14.38-20-20.23-8.29-6-16.13-11.68-18.94-19.54-2.36-6.58-.27-15.08,6.19-25.26a92.61,92.61,0,0,1,10.37-13.27l.72.7c-.22.22-21.72,22.46-16.34,37.49,2.71,7.57,10.42,13.16,18.58,19.07s16.68,12.08,20.3,20.65c3.35,8,3.79,15.39,1.27,21.5A21,21,0,0,1,115.57,369.16Z"/><path class="cls-2" d="M105.89,217.2a32.73,32.73,0,0,1,8.34,26.72,32.73,32.73,0,0,1-25.59-11.35C77.35,219.9,73.35,198,73.35,198S94.6,204.53,105.89,217.2Z"/><rect class="cls-3" x="96" y="197.38" width="1" height="53.3" transform="translate(-124.59 120.98) rotate(-41.71)"/><rect class="cls-3" x="81.82" y="216.32" width="7.82" height="1" transform="translate(-28.46 13.54) rotate(-7.75)"/><rect class="cls-3" x="98.21" y="224.76" width="11.01" height="1" transform="translate(-140.23 269.84) rotate(-75.63)"/><path class="cls-2" d="M86.86,235.19a25.61,25.61,0,0,1,18.88,11.06A25.59,25.59,0,0,1,85,253.14c-13.19-1.39-27-11.91-27-11.91S73.68,233.81,86.86,235.19Z"/><rect class="cls-3" x="84.53" y="223.25" width="1" height="41.64" transform="translate(-166.6 303.11) rotate(-84)"/><rect class="cls-3" x="71.96" y="245.07" width="6.11" height="1" transform="translate(-161.44 145.47) rotate(-50.07)"/><rect class="cls-3" x="89.35" y="236.69" width="1" height="8.6" transform="translate(-102.45 70.19) rotate(-27.94)"/><path class="cls-3" d="M105,243.33a33.7,33.7,0,0,1-12.6-6.51l.63-.77a32.67,32.67,0,0,0,12.23,6.31Z"/><path class="cls-5" d="M117.07,413.84l-2-3.48a72.67,72.67,0,0,0,16.21-13.29c9.33-10.54,11.53-21,6.55-31.08-5.78-11.69-23.62-14.56-40.87-17.33-19.73-3.18-40.13-6.46-44.17-23.19-7.38-30.6,52.05-74.58,54.58-76.44l2.36,3.22a263.19,263.19,0,0,0-29.37,25.87c-18.25,18.94-26.44,35-23.68,46.41,3.41,14.14,21.63,17.08,40.92,20.18,18.25,2.94,37.12,6,43.81,19.51C155.12,391.9,117.45,413.62,117.07,413.84Z"/><circle class="cls-6" cx="108.47" cy="250.64" r="10.69" transform="translate(-145.46 150.11) rotate(-45)"/><path class="cls-10" d="M108.47,257.82a7.18,7.18,0,1,1,7.18-7.18A7.19,7.19,0,0,1,108.47,257.82Zm0-13.36a6.18,6.18,0,1,0,6.18,6.18A6.18,6.18,0,0,0,108.47,244.46Z"/><path class="cls-2" d="M109.78,421.8l4.75-1.43a7.7,7.7,0,0,0-4.46-14.75l-4.76,1.44Z"/><circle class="cls-6" cx="88.35" cy="420.5" r="22.32" transform="translate(-325.1 303.49) rotate(-62.33)"/><path class="cls-6" d="M82,397.83a3.27,3.27,0,0,1,5.88-2.72c7.58,12,14,32.48,14.53,46.54a3.27,3.27,0,1,1-6.54.26c-.51-12.86-6.58-32.29-13.52-43.31A3.53,3.53,0,0,1,82,397.83Z"/><path class="cls-10" d="M95.38,441.6c-.59-12.55-6.52-31.57-13.22-42.4l.85-.52c6.89,11.13,12.76,30,13.37,42.88Z"/><path class="cls-10" d="M101.66,438A113.86,113.86,0,0,0,89.3,398.46l.87-.48a114.65,114.65,0,0,1,12.49,39.9Z"/><path class="cls-7" d="M74.78,429.05c-1,.31-2.31-1.21-3-3.38s-.44-4.18.54-4.48,2.31,1.21,3,3.38S75.76,428.75,74.78,429.05Z"/><path class="cls-7" d="M67.3,418.19c-.43,0-.79-.41-1-1a18.3,18.3,0,0,1,1.62-5.61c.89.08,1.48,1.63,1.32,3.45S68.19,418.27,67.3,418.19Z"/><path class="cls-7" d="M72.35,434.38a1.41,1.41,0,0,0-.27,1.42,18.26,18.26,0,0,0,4.51,3.68c.69-.57.3-2.18-.87-3.59S73,433.81,72.35,434.38Z"/><rect class="cls-10" x="66.91" y="425.82" width="5.8" height="1" transform="matrix(0.95, -0.3, 0.3, 0.95, -123.42, 39.95)"/><path class="cls-10" d="M72.47,435.43a23.81,23.81,0,0,1-5.62-18l1,.08a22.84,22.84,0,0,0,5.38,17.25Z"/><path class="cls-7" d="M46.7,380.33a3.8,3.8,0,1,1-3.8-3.8A3.8,3.8,0,0,1,46.7,380.33Z"/><path class="cls-7" d="M116.88,369.5a3.8,3.8,0,1,1-3.8-3.8A3.8,3.8,0,0,1,116.88,369.5Z"/><circle class="cls-6" cx="85.95" cy="292.99" r="2.12"/><circle class="cls-6" cx="87.42" cy="298.84" r="2.12"/><path class="cls-6" d="M92.85,304a2.12,2.12,0,1,1-2.12-2.13A2.12,2.12,0,0,1,92.85,304Z"/><path class="cls-6" d="M43.91,314.25a2.12,2.12,0,1,1-.76-2.91A2.13,2.13,0,0,1,43.91,314.25Z"/><path class="cls-6" d="M42.6,320a2.12,2.12,0,1,1-.76-2.9A2.14,2.14,0,0,1,42.6,320Z"/><path class="cls-6" d="M42.06,326.45a2.12,2.12,0,1,1-.75-2.91A2.12,2.12,0,0,1,42.06,326.45Z"/><path class="cls-7" d="M387,417.8l-.88-.46c9.9-19,2.76-28.53-4.14-37.75-5.13-6.85-10.44-13.93-8.16-24.62,2.67-12.58,14.06-20.56,25.08-28.29s21.42-15,23.8-26.48c4.75-22.91-24.86-41.89-25.16-42.08l.53-.84c.31.19,30.51,19.53,25.61,43.12-2.46,11.85-13.52,19.6-24.21,27.1-10.85,7.61-22.08,15.49-24.67,27.68-2.19,10.24,2.75,16.83,8,23.81C389.87,388.46,397.2,398.25,387,417.8Z"/><path class="cls-5" d="M332.87,400.82l-3.59-1.76c14.32-29.17,38.76-31.41,62.39-33.58,22.1-2,43-4,53.16-28.87,8.59-21,2.22-41.48-18.92-60.89-16-14.7-34.85-23.17-35-23.25l1.62-3.66a150,150,0,0,1,36.12,24c22.18,20.37,29.07,43,19.92,65.36-11.11,27.16-34.18,29.28-56.5,31.33C369.5,371.53,346.2,373.67,332.87,400.82Z"/><path class="cls-2" d="M394.27,217.2a32.73,32.73,0,0,0-8.34,26.72,32.74,32.74,0,0,0,25.59-11.35C422.81,219.9,426.81,198,426.81,198S405.56,204.53,394.27,217.2Z"/><rect class="cls-3" x="377.01" y="223.53" width="53.3" height="1" transform="translate(-32.28 375.98) rotate(-48.25)"/><rect class="cls-3" x="413.93" y="212.91" width="1" height="7.82" transform="translate(143.64 598.17) rotate(-82.24)"/><rect class="cls-3" x="395.94" y="219.75" width="1" height="11.01" transform="translate(-43.46 105.29) rotate(-14.35)"/><path class="cls-2" d="M413.29,235.19a25.6,25.6,0,0,0-18.87,11.06,25.59,25.59,0,0,0,20.76,6.89c13.19-1.39,27-11.91,27-11.91S426.48,233.81,413.29,235.19Z"/><rect class="cls-3" x="394.31" y="243.57" width="41.64" height="1" transform="translate(-23.44 45.17) rotate(-6.06)"/><rect class="cls-3" x="424.65" y="242.51" width="1" height="6.11" transform="translate(-58.46 330.29) rotate(-39.95)"/><rect class="cls-3" x="406.01" y="240.49" width="8.6" height="1" transform="translate(5.06 490.41) rotate(-62.04)"/><path class="cls-3" d="M395.21,243.33l-.26-1a32.67,32.67,0,0,0,12.23-6.31l.63.77A33.7,33.7,0,0,1,395.21,243.33Z"/><circle class="cls-6" cx="391.69" cy="250.64" r="10.69" transform="translate(-66.1 168.97) rotate(-22.5)"/><path class="cls-10" d="M391.69,257.82a7.18,7.18,0,1,1,7.18-7.18A7.19,7.19,0,0,1,391.69,257.82Zm0-13.36a6.18,6.18,0,1,0,6.18,6.18A6.18,6.18,0,0,0,391.69,244.46Z"/><path class="cls-2" d="M333.46,411l2.52-4.27a7.7,7.7,0,1,0-13.26-7.83l-2.52,4.27Z"/><circle class="cls-6" cx="316.8" cy="424.5" r="22.32"/><path class="cls-6" d="M296.79,412.09a3.27,3.27,0,0,1,2.5-6c13.73,3.73,32.26,14.46,42.19,24.43a3.27,3.27,0,0,1-4.63,4.62c-9.09-9.13-26.71-19.33-39.27-22.75A3,3,0,0,1,296.79,412.09Z"/><path class="cls-10" d="M336.26,435.27c-8.93-8.84-26.17-18.83-38.43-22.27l.27-1c12.61,3.54,29.68,13.43,38.86,22.52Z"/><path class="cls-10" d="M338.43,428.36a113.63,113.63,0,0,0-35.84-20.73l.31-.95a114.78,114.78,0,0,1,36.2,20.93Z"/><path class="cls-7" d="M312.6,440c-.51.89-2.52.68-4.49-.46s-3.15-2.78-2.64-3.66,2.53-.68,4.49.46S313.11,439.09,312.6,440Z"/><path class="cls-7" d="M299.75,437a1.4,1.4,0,0,1-1.45,0,18.34,18.34,0,0,1-2.6-5.22c.71-.55,2.2.19,3.31,1.64S300.46,436.5,299.75,437Z"/><path class="cls-7" d="M314.42,445.54a1.38,1.38,0,0,0,.75,1.23,18.31,18.31,0,0,0,5.82-.34c.12-.89-1.25-1.81-3.07-2.06S314.54,444.65,314.42,445.54Z"/><rect class="cls-10" x="304.19" y="440.82" width="5.8" height="1" transform="matrix(0.5, -0.86, 0.86, 0.5, -228.75, 485.46)"/><path class="cls-10" d="M315.22,446.24a23.82,23.82,0,0,1-16.31-9.44l.79-.62a22.78,22.78,0,0,0,15.64,9.06Z"/><path class="cls-7" d="M389.38,419.92a3.8,3.8,0,1,1-3.8-3.8A3.8,3.8,0,0,1,389.38,419.92Z"/><path class="cls-7" d="M458.11,407.16a3.8,3.8,0,1,1-3.8-3.8A3.8,3.8,0,0,1,458.11,407.16Z"/><path class="cls-7" d="M452.49,406.5c-2.79,0-12.26-.46-18.57-6.41-3.72-3.52-5.63-8.33-5.69-14.3-.07-8.39,6.63-16.53,14.38-26,12.25-14.88,26.13-31.73,17.57-55.09-13.81-37.7-58.59-52.18-59-52.32l.3-1c.45.14,45.7,14.76,59.68,52.92,8.75,23.9-5.32,41-17.73,56.07-7.64,9.28-14.23,17.28-14.16,25.31,0,5.69,1.86,10.26,5.38,13.58,7,6.61,18.48,6.13,18.61,6.13l0,1Z"/><circle class="cls-6" cx="463.28" cy="317.73" r="2.12"/><path class="cls-6" d="M460.47,311.45a2.12,2.12,0,0,1,4.17.78,2.12,2.12,0,1,1-4.17-.78Z"/><path class="cls-6" d="M458.8,305.23a2.12,2.12,0,0,1,2.47-1.69,2.12,2.12,0,1,1-2.47,1.69Z"/><path class="cls-6" d="M401.63,322.76a2.13,2.13,0,1,1-1.34,2.69A2.13,2.13,0,0,1,401.63,322.76Z"/><path class="cls-6" d="M406.63,319.13a2.13,2.13,0,1,1-1.34,2.69A2.13,2.13,0,0,1,406.63,319.13Z"/><path class="cls-6" d="M411.47,315.17a2.12,2.12,0,1,1-1.34,2.68A2.13,2.13,0,0,1,411.47,315.17Z"/></g></g></svg>