<svg xmlns="http://www.w3.org/2000/svg" viewBox="0 0 62.05 29.26"><defs><style>.cls-1{fill:#faf3d3;}</style></defs><g id="Calque_2" data-name="Calque 2"><g id="Calque_1-2" data-name="Calque 1"><path class="cls-1" d="M0,18.76C8.66,12.3,18.33,7.21,26.41,0c1.87,1.83,1.41,4.73,1.94,7.08,4.38-.27,8.75-.66,13.12-.93,6.58-.4,13.17-1.47,19.75-.65a106.23,106.23,0,0,1,.83,11.55c-.18.84.13,2.51-1.11,2.56C50.68,21,40.27,21,30,21.73c.26,2.5.73,5,.35,7.53-7.71-1.91-15-5.34-22.56-7.63A26,26,0,0,1,0,18.76ZM27.62,26.1c-3.79-5.31-7.56-10.63-11.52-15.81-1,.68-1.91,1.34-2.85,2,3.2,4,6.46,7.89,9.69,11.84C24.32,25.14,26.07,25.45,27.62,26.1Zm-8.3-3.24c-2.37-3-5.21-5.7-7.26-9a4,4,0,0,0-2.42,1c1.52,1.9,3.11,3.74,4.8,5.49C15.7,21.84,17.66,22.14,19.32,22.86Zm7.8-.37c-.06-.5-.19-1.49-.25-2,.52-.26,3.27.41,2-1-2.89-4.08-5.76-8.17-8.56-12.3l-2.78,2C20.83,13.59,24.31,17.8,27.12,22.49Zm7.58-2.64c-2.23-3.66-4.54-7.27-6.82-10.9l-2,.08c-.22-1.9-.45-3.79-.7-5.69q-1.82,1.47-3.65,2.91c3.21,4.71,6.83,9.14,9.87,14Zm-23.07.3c-1.05-1.44-2.12-2.85-3.18-4.27-1.21.8-2.43,1.58-3.65,2.35C7.09,18.82,9.37,19.43,11.63,20.15Zm25-.44,2.48-.07c-2.21-3.61-4.29-7.32-6.36-11-1,.07-1.92.12-2.88.17C32,12.52,34.36,16.1,36.65,19.71Zm7.72-.36c-2-3.68-4.1-7.3-6-11.06l-3.3.21c1.92,3.72,4.16,7.26,6.07,11Zm1.9-.18,4-.25c-1.93-3.6-3.89-7.2-5.53-11-1.5.12-3,.26-4.5.34C42.16,12,44.16,15.6,46.27,19.17Zm6.19-.42c1.42-.12,2.84-.23,4.26-.39C54.59,15,53.28,11.17,51.11,7.84c-1.36-.61-3,0-4.39,0C48.52,11.54,50.49,15.14,52.46,18.75Zm7.63-.48c.42-4.32-2.66-7.49-4.57-11L53,7.38c2,3.51,3.84,7.13,5.67,10.73ZM58.79,7.36l-1.47-.18A19.31,19.31,0,0,0,59,10.54C59,9.49,58.88,8.42,58.79,7.36Z"/></g></g></svg>