<?xml version="1.0" standalone="no"?>
<!DOCTYPE svg PUBLIC "-//W3C//DTD SVG 20010904//EN"
 "http://www.w3.org/TR/2001/REC-SVG-20010904/DTD/svg10.dtd">
<svg version="1.0" xmlns="http://www.w3.org/2000/svg"
 width="512.000000pt" height="512.000000pt" viewBox="0 0 512.000000 512.000000"
 preserveAspectRatio="xMidYMid meet">

<g transform="translate(0.000000,512.000000) scale(0.100000,-0.100000)"
fill="#000000" stroke="none">
<path d="M2526 4844 c-24 -23 -24 -545 0 -568 8 -9 24 -16 34 -16 10 0 26 7
34 16 14 13 16 53 16 284 0 231 -2 271 -16 284 -8 9 -24 16 -34 16 -10 0 -26
-7 -34 -16z"/>
<path d="M1832 4738 c-7 -7 -12 -23 -12 -37 0 -29 147 -490 163 -509 14 -18
67 -11 81 10 8 13 -7 72 -68 260 -44 134 -85 253 -93 266 -15 24 -52 29 -71
10z"/>
<path d="M3217 4728 c-8 -13 -49 -132 -93 -266 -82 -255 -83 -266 -37 -283 42
-15 58 16 137 262 42 130 76 247 76 260 0 50 -58 68 -83 27z"/>
<path d="M1208 4419 c-38 -21 -20 -57 138 -274 136 -187 160 -215 183 -215 32
0 51 17 51 44 0 17 -255 380 -307 439 -18 19 -40 21 -65 6z"/>
<path d="M3847 4413 c-52 -59 -307 -422 -307 -439 0 -27 19 -44 51 -44 23 0
47 28 183 215 159 219 176 253 137 275 -28 14 -46 12 -64 -7z"/>
<path d="M698 3904 c-9 -18 -9 -30 -1 -42 17 -28 427 -322 449 -322 28 0 44
19 44 51 0 24 -26 46 -215 183 -228 165 -255 178 -277 130z"/>
<path d="M4145 3775 c-170 -124 -211 -159 -213 -180 -4 -32 13 -55 42 -55 19
0 395 264 440 310 29 29 12 74 -29 77 -24 2 -69 -27 -240 -152z"/>
<path d="M382 3288 c-16 -16 -15 -53 1 -66 7 -6 125 -48 261 -92 263 -86 286
-90 299 -41 10 41 -22 58 -264 135 -241 78 -276 85 -297 64z"/>
<path d="M4431 3221 c-248 -81 -275 -96 -252 -140 6 -11 20 -22 30 -26 21 -6
478 136 519 161 24 16 29 53 10 72 -22 22 -70 11 -307 -67z"/>
<path d="M276 2594 c-9 -8 -16 -24 -16 -34 0 -10 7 -26 16 -34 13 -14 53 -16
284 -16 231 0 271 2 284 16 20 20 20 48 0 68 -13 14 -53 16 -284 16 -231 0
-271 -2 -284 -16z"/>
<path d="M4276 2594 c-9 -8 -16 -24 -16 -34 0 -10 7 -26 16 -34 13 -14 53 -16
284 -16 231 0 271 2 284 16 9 8 16 24 16 34 0 10 -7 26 -16 34 -13 14 -53 16
-284 16 -231 0 -271 -2 -284 -16z"/>
<path d="M641 1990 c-129 -42 -243 -83 -253 -89 -20 -13 -24 -51 -6 -69 21
-21 56 -14 301 65 264 85 286 98 253 148 -10 15 -25 25 -39 24 -12 -1 -127
-36 -256 -79z"/>
<path d="M4184 2045 c-33 -50 -11 -63 253 -148 245 -79 280 -86 301 -65 16 16
15 53 -2 67 -16 13 -496 171 -520 171 -8 0 -23 -11 -32 -25z"/>
<path d="M916 1427 c-115 -83 -214 -160 -219 -169 -17 -26 7 -68 37 -68 14 0
68 32 133 78 325 234 323 233 323 261 0 32 -17 51 -44 51 -12 0 -115 -69 -230
-153z"/>
<path d="M3942 1568 c-7 -7 -12 -24 -12 -39 0 -23 28 -47 216 -183 233 -170
258 -181 278 -123 8 22 6 31 -10 47 -44 45 -421 310 -439 310 -12 0 -26 -5
-33 -12z"/>
<path d="M1346 975 c-103 -142 -156 -224 -156 -240 0 -31 42 -55 68 -38 28 17
322 427 322 449 0 27 -19 44 -51 44 -23 0 -47 -28 -183 -215z"/>
<path d="M3552 1178 c-7 -7 -12 -21 -12 -32 1 -19 266 -396 310 -441 16 -15
25 -17 47 -9 58 20 47 45 -123 278 -136 188 -160 216 -183 216 -15 0 -32 -5
-39 -12z"/>
<path d="M1992 933 c-25 -22 -175 -480 -170 -520 4 -35 29 -50 61 -36 20 10
35 45 100 246 96 294 95 290 66 311 -29 20 -32 20 -57 -1z"/>
<path d="M3072 934 c-12 -8 -22 -22 -22 -31 0 -8 37 -128 82 -265 70 -214 85
-252 105 -261 32 -14 57 1 61 36 5 40 -145 498 -170 520 -25 21 -28 21 -56 1z"/>
<path d="M2526 844 c-24 -23 -24 -545 0 -568 20 -20 48 -20 68 0 14 13 16 53
16 284 0 231 -2 271 -16 284 -8 9 -24 16 -34 16 -10 0 -26 -7 -34 -16z"/>
</g>
</svg>
