<svg xmlns="http://www.w3.org/2000/svg" viewBox="0 0 427.29 381.89"><defs><style>.dark{fill:#42a0d3;}.darkcat{fill:#1f5c93;}.dark3{fill:#161925;}.dark4{fill:#ea536c;}.dark5{fill:#ffc72c;}.dark6{fill:#f8a130;}.dark7{fill:#bc2445;}.dark8{fill:#fff;}.dark9{fill:#081720;}.dark10{fill:#ccd3d6;}.dark11{fill:#f79931;}</style></defs><g id="Calque_2" data-name="Calque 2"><g id="OBJECTS"><path class="dark" d="M200.42,35.94A32.73,32.73,0,0,0,212,61.46,32.76,32.76,0,0,0,223.52,36C223.53,19,212,0,212,0S200.43,19,200.42,35.94Z"/><rect class="darkcat" x="211.47" y="8.16" width="1" height="53.3"/><rect class="darkcat" x="211.31" y="21.76" width="7.82" height="1" transform="translate(24.24 123.95) rotate(-33.94)"/><rect class="darkcat" x="206.9" y="35.02" width="1" height="11.01" transform="translate(57.85 189.83) rotate(-56.01)"/><path class="dark1" d="M184.44,50.37a21.76,21.76,0,0,0,17.4,6.57,21.73,21.73,0,0,0-6.54-17.41c-8-8-22.3-11.48-22.3-11.48S176.48,42.4,184.44,50.37Z"/><rect class="darkcat" x="188.83" y="26.71" width="1" height="35.41" transform="translate(23.96 146.75) rotate(-44.95)"/><polygon class="darkcat" points="184.96 39.63 183.98 39.44 184.98 34.34 185.96 34.54 184.96 39.63"/><rect class="darkcat" x="186.22" y="48.75" width="7.31" height="1" transform="translate(-5.91 37.22) rotate(-11.02)"/><path class="dark1" d="M239.45,50.37a21.75,21.75,0,0,1-17.4,6.57,21.73,21.73,0,0,1,6.54-17.41c8-8,22.31-11.48,22.31-11.48S247.42,42.4,239.45,50.37Z"/><rect class="darkcat" x="216.85" y="43.91" width="35.41" height="1" transform="translate(37.31 178.88) rotate(-45)"/><polygon class="darkcat" points="238.94 39.63 237.94 34.54 238.92 34.34 239.92 39.44 238.94 39.63"/><rect class="darkcat" x="233.52" y="45.59" width="1" height="7.31" transform="translate(141 269.56) rotate(-78.99)"/><path class="dark3" d="M340.18,121.79s14.23-106.5-.35-114.85C321.6-3.51,248.61,56.47,248.61,56.47a156.47,156.47,0,0,0-73.28,0s-73-60-91.23-49.53c-14.58,8.35-.34,114.85-.34,114.85s-54.09,112,55.08,175.34c35.77,17.67,38.1-11.8,73.13-11.81s37.36,29.48,73.13,11.81C394.27,233.82,340.18,121.79,340.18,121.79ZM96,165.65c57.46-12.7,85.51,7.15,93.65,49C133.39,215.35,102.59,198.73,96,165.65Zm138.34,49c8.15-41.86,36.19-61.71,93.66-49C321.35,198.73,290.55,215.35,234.31,214.66Z"/><path class="dark4" d="M98.61,33.53c8.94-6,45.3,35.18,45.3,35.18a161.24,161.24,0,0,0-43.58,32.79S89.77,39.42,98.61,33.53Z"/><path class="dark4" d="M194.5,214.53c-4.3-22.09-15.61-39.7-32.71-50.92-19.63-12.88-45.59-16.24-75.07-9.73l-4.67,1,.69,4.73c6.08,41.58,37.85,61.09,99.81,61.09,2.29,0,4.64,0,7-.08l6.09-.14ZM96.83,166c56.94-12.59,84.73,7.1,92.79,48.64C133.9,215.35,103.39,198.85,96.83,166Z"/><path class="dark4" d="M337.22,153.88c-29.48-6.51-55.44-3.15-75.07,9.73-17.1,11.22-28.41,28.83-32.71,50.92l-1.16,6,6.09.14c2.38,0,4.73.08,7,.08,62,0,93.73-19.51,99.81-61.09l.69-4.73ZM234.31,214.66c8.09-41.43,35.93-61.07,93-48.5C320.72,198.9,290.14,215.35,234.31,214.66Z"/><path class="dark5" d="M222,199.34c-1.37-23.44,13.44-46.9,35.1-56a58.79,58.79,0,0,1,22.44-4.79l.17.92a137.1,137.1,0,0,0-19.94,9.17c-15.61,8.85-27.14,23.42-33.42,40.2A94.17,94.17,0,0,0,223,199.39l-.93,0Z"/><path class="dark6" d="M203.58,80c-3.38-9.5-3.83-9.89-13-14l-.14-1c8.75-7.44,20.47,1.82,16.18,12.23a8.75,8.75,0,0,1-2.11,3.13l-.92-.38Z"/><path class="dark4" d="M212,137.82a37.11,37.11,0,0,1-26.24-10.75l.7-.7a36.42,36.42,0,0,0,51.07,0l.71.7A37.11,37.11,0,0,1,212,137.82Z"/><path class="dark6" d="M219.44,80.36A10.93,10.93,0,0,1,219,65.82,10.24,10.24,0,0,1,233.51,65l-.14,1c-2.22,1.13-4.09,1.85-5.55,2.62-4.75,2.33-5.56,6.55-7.46,11.37l-.92.38Z"/><path class="dark4" d="M211.65,199c-3.2-21.18-4-42.45-4.16-63.79,0-21.35.69-42.61,4.16-63.79h.64c3.47,21.17,4.17,42.44,4.16,63.79-.17,21.34-1,42.61-4.16,63.79Z"/><path class="dark5" d="M200.87,199.39c-5.4-20.91-17.74-40-36.76-50.7a135.36,135.36,0,0,0-19.92-9.18l.18-.92a58.57,58.57,0,0,1,22.41,4.79c18.13,7.61,31.35,25.22,34.42,44.49a46.41,46.41,0,0,1,.61,11.47l-.94,0Z"/><path class="dark4" d="M74.59,218.53a143.7,143.7,0,0,0,76.29,40.34c-29.92,0-52.18-6.6-69.51-21.52A104.18,104.18,0,0,1,74.59,218.53Z"/><path class="dark6" d="M298.28,136.39a6.13,6.13,0,1,1-6.13-6.13A6.12,6.12,0,0,1,298.28,136.39Z"/><path class="dark6" d="M315.44,136.39a4.88,4.88,0,1,1-4.88-4.88A4.88,4.88,0,0,1,315.44,136.39Z"/><path class="dark6" d="M329.71,139.05a3.44,3.44,0,1,1-3.43-3.44A3.42,3.42,0,0,1,329.71,139.05Z"/><circle class="dark6" cx="131.78" cy="136.39" r="6.13"/><path class="dark6" d="M108.5,136.39a4.88,4.88,0,1,0,4.88-4.88A4.88,4.88,0,0,0,108.5,136.39Z"/><path class="dark6" d="M94.22,139.05a3.44,3.44,0,1,0,3.44-3.44A3.43,3.43,0,0,0,94.22,139.05Z"/><path class="dark7" d="M177.64,216c-57,0-86.11-17.34-91.71-54.57l-.71-4.66,4.73-1c27.07-5.8,50.93-2.8,69,8.69,15.75,10,26.16,25.74,30.12,45.46l1.18,5.89-6.16.13C181.87,216,179.7,216,177.64,216ZM86.35,157.56l.56,3.73C92.43,197.94,121.26,215,177.64,215c2.06,0,4.21,0,6.41-.07l5-.11-1-4.71c-3.9-19.45-14.16-35-29.67-44.82C140.57,154,117,151,90.16,156.75Z"/><path class="dark7" d="M246.3,216c-2.07,0-4.23,0-6.43-.07l-6.16-.13,1.18-5.89c4-19.72,14.37-35.44,30.11-45.46,18.06-11.49,41.91-14.49,69-8.69l4.72,1-.7,4.66C332.41,198.67,303.26,216,246.3,216Zm-11.38-1.18,5,.11c2.19.05,4.35.07,6.41.07,56.38,0,85.2-17.07,90.72-53.72l.57-3.73-3.81-.81C307,151,283.37,154,265.54,165.3c-15.51,9.87-25.77,25.37-29.67,44.82Z"/><path class="dark6" d="M91,254.36c26.38,16.79,59.84,14.37,59.84,14.37s-28,8.19-48.16.16A121.28,121.28,0,0,1,91,254.36Z"/><path class="dark4" d="M349.34,218.53a143.71,143.71,0,0,1-76.28,40.34c29.91,0,52.17-6.6,69.5-21.52A104.18,104.18,0,0,0,349.34,218.53Z"/><path class="dark6" d="M332.89,254.36c-26.38,16.79-59.83,14.37-59.83,14.37s28,8.19,48.15.16A121.28,121.28,0,0,0,332.89,254.36Z"/><path class="dark6" d="M216.56,61.46a4.6,4.6,0,1,1-4.59-4.6A4.59,4.59,0,0,1,216.56,61.46Z"/><path class="dark4" d="M325.33,33.53c-8.94-6-45.31,35.18-45.31,35.18a161.2,161.2,0,0,1,43.59,32.79S334.16,39.42,325.33,33.53Z"/><path class="dark8" d="M159.08,299.94c-5.57,0-12.13-1.69-20.48-6.09l.47-.89c20.44,10.78,29.89,4.89,40.82-1.93,8.05-5,17.17-10.71,32.08-10.71h0c14.9,0,24,5.69,32.07,10.71,10.93,6.82,20.37,12.71,40.81,1.93l.46.89c-20.94,11-30.61,5-41.8-2-7.94-4.95-16.93-10.56-31.55-10.56h0c-14.62,0-23.61,5.61-31.55,10.56C173.68,296.08,167.5,299.94,159.08,299.94Z"/><rect class="dark9" x="211.47" y="270.39" width="1" height="10.43"/><path class="dark10" d="M83.76,121.79A54.18,54.18,0,0,1,93,109.22a49.61,49.61,0,0,0-9.77,8.23Z"/><path class="dark10" d="M340.18,121.8A54.18,54.18,0,0,0,331,109.23a50,50,0,0,1,9.78,8.23Z"/><path class="dark5" d="M212,122.11c-14.37,0-26.79-7.52-32.76-18.44a33.08,33.08,0,0,0,65.51,0C238.76,114.59,226.33,122.11,212,122.11Z"/><path class="dark4" d="M123,118c9.92-2.81,22.59,2.91,24.65,13.56C141.36,123.22,133,119.7,123,118Z"/><path class="dark4" d="M301,118c-10,1.75-18.38,5.28-24.65,13.56a16,16,0,0,1,3.32-7c4.93-6.11,13.85-8.62,21.33-6.58Z"/><path class="dark4" d="M127.92,101.59c6.35-1.8,12.63,2.59,16.28,7.5a38.58,38.58,0,0,1,3.88,7,50.94,50.94,0,0,1,1.65,5,46.48,46.48,0,0,1,1.47,10.36c-.72-1.61-1.29-3.23-1.87-4.85-2.35-6.18-4.85-12.58-9-17.81-3.09-3.83-7.33-6.95-12.41-7.26Z"/><path class="dark4" d="M296,101.59c-5.08.31-9.32,3.43-12.41,7.26-4.15,5.23-6.65,11.63-9,17.81-.58,1.62-1.16,3.24-1.88,4.85a45.08,45.08,0,0,1,3.13-15.39,37.67,37.67,0,0,1,3.88-7c3.64-4.91,9.93-9.3,16.28-7.5Z"/><path class="dark9" d="M195.49,258.91h0a6.36,6.36,0,0,0,3.51,5.68l4.37,2.18a6.29,6.29,0,0,1,2.79,2.75L209,275a2.72,2.72,0,0,0,2.42,1.46h1.08a2.73,2.73,0,0,0,2.42-1.46l2.84-5.46a6.36,6.36,0,0,1,2.8-2.75l4.37-2.18a6.36,6.36,0,0,0,3.51-5.68h0a6.4,6.4,0,0,0-5.11-6.24,54.13,54.13,0,0,0-22.74,0A6.4,6.4,0,0,0,195.49,258.91Z"/><path class="dark6" d="M191.63,80.67a3.22,3.22,0,1,1,3.22-3.22A3.23,3.23,0,0,1,191.63,80.67Zm0-5.44a2.22,2.22,0,1,0,2.22,2.22A2.22,2.22,0,0,0,191.63,75.23Z"/><path class="dark6" d="M232.31,80.67a3.22,3.22,0,1,1,3.23-3.22A3.22,3.22,0,0,1,232.31,80.67Zm0-5.44a2.22,2.22,0,1,0,2.23,2.22A2.22,2.22,0,0,0,232.31,75.23Z"/><path class="dark5" d="M216.44,243.68a4.5,4.5,0,1,1-4.5-4.49A4.51,4.51,0,0,1,216.44,243.68Z"/><circle class="dark5" cx="211.94" cy="229.71" r="2.67"/><circle class="dark5" cx="211.94" cy="218.38" r="1.85"/><path class="dark5" d="M213.1,208.57a1.16,1.16,0,1,1-1.16-1.16A1.16,1.16,0,0,1,213.1,208.57Z"/><path class="dark7" d="M131.36,75.89c-10.29-16.4-21.8-33.28-29.15-34.09a4.27,4.27,0,0,0-3.69,1.36l-.71-.7a5.27,5.27,0,0,1,4.51-1.65c7.75.85,18.94,17.11,29.89,34.55Z"/><path class="dark7" d="M292.62,75.89l-.84-.53c10.94-17.44,22.14-33.7,29.88-34.55a5.26,5.26,0,0,1,4.52,1.65l-.71.7a4.29,4.29,0,0,0-3.7-1.36C314.43,42.61,302.92,59.49,292.62,75.89Z"/><path class="dark10" d="M155.28,63.6a158.85,158.85,0,0,1,20.05-7.13l-4.26-3.42A56.69,56.69,0,0,0,155.28,63.6Z"/><path class="dark10" d="M268.63,63.6a157.74,157.74,0,0,0-20-7.13l4.27-3.42A56.64,56.64,0,0,1,268.63,63.6Z"/><path class="dark6" d="M17.26,330.43a7,7,0,0,1-2.32-.41c-6.32-2.21-10-12.73-10.19-13.18l1-.33c0,.11,3.71,10.52,9.57,12.57a6.44,6.44,0,0,0,5.76-.85c7.28-5.33,2.36-13.53-4.44-24.89-7.82-13-18.52-30.89-13.79-52.53,8.67-39.61,58.37-62,58.87-62.22l.41.91c-.5.22-49.74,22.41-58.3,61.53-4.65,21.25,5.5,38.19,13.66,51.8,6.82,11.36,12.2,20.34,4.15,26.23A8.12,8.12,0,0,1,17.26,330.43Z"/><path class="dark6" d="M77.46,304.21l-.38-.93a20.07,20.07,0,0,0,11.14-10.84c2.41-5.86,2-13-1.28-20.74-3.5-8.31-11.87-14.37-20-20.22-8.29-6-16.13-11.68-18.94-19.54-2.36-6.59-.27-15.08,6.19-25.26a92.61,92.61,0,0,1,10.37-13.27l.72.7c-.22.22-21.72,22.46-16.34,37.49,2.71,7.57,10.42,13.15,18.58,19.06s16.68,12.08,20.3,20.66c3.35,7.95,3.79,15.39,1.27,21.5A21.07,21.07,0,0,1,77.46,304.21Z"/><path class="dark1" d="M67.78,152.25A32.73,32.73,0,0,1,76.12,179a32.73,32.73,0,0,1-25.59-11.35C39.24,155,35.24,133.09,35.24,133.09S56.49,139.58,67.78,152.25Z"/><rect class="darkcat" x="57.89" y="132.42" width="1" height="53.3" transform="translate(-91.03 79.16) rotate(-41.71)"/><rect class="darkcat" x="43.71" y="151.36" width="7.82" height="1" transform="translate(-20.05 7.81) rotate(-7.75)"/><rect class="darkcat" x="60.1" y="159.81" width="11.01" height="1" transform="translate(-105.97 184.09) rotate(-75.63)"/><path class="dark1" d="M48.75,170.24A25.58,25.58,0,0,1,67.62,181.3a25.56,25.56,0,0,1-20.75,6.89c-13.19-1.39-27-11.91-27-11.91S35.57,168.85,48.75,170.24Z"/><rect class="darkcat" x="46.42" y="158.3" width="1" height="41.64" transform="translate(-136.13 207.05) rotate(-84)"/><rect class="darkcat" x="33.85" y="180.11" width="6.11" height="1" transform="translate(-125.28 92.98) rotate(-50.07)"/><rect class="darkcat" x="51.24" y="171.74" width="1" height="8.6" transform="translate(-76.46 44.76) rotate(-27.94)"/><path class="darkcat" d="M66.84,178.37a33.53,33.53,0,0,1-12.6-6.5l.63-.78a32.69,32.69,0,0,0,12.23,6.32Z"/><path class="dark4" d="M79,348.89l-2-3.48A72.67,72.67,0,0,0,93.2,332.12c9.33-10.54,11.53-21,6.55-31.08C94,289.35,76.13,286.48,58.88,283.71c-19.73-3.18-40.13-6.46-44.17-23.19-7.38-30.6,52.05-74.59,54.58-76.44l2.36,3.22a262,262,0,0,0-29.37,25.87c-18.25,18.94-26.44,35-23.68,46.41,3.41,14.14,21.63,17.07,40.92,20.18,18.25,2.93,37.12,6,43.81,19.51C117,327,79.34,348.67,79,348.89Z"/><circle class="dark5" cx="70.36" cy="185.69" r="10.69" transform="translate(-110.69 104.14) rotate(-45)"/><path class="dark11" d="M70.36,192.87a7.18,7.18,0,1,1,7.18-7.18A7.19,7.19,0,0,1,70.36,192.87Zm0-13.36a6.18,6.18,0,1,0,6.18,6.18A6.18,6.18,0,0,0,70.36,179.51Z"/><path class="dark1" d="M71.67,356.85l4.75-1.44A7.7,7.7,0,1,0,72,340.67l-4.76,1.44Z"/><circle class="dark5" cx="50.24" cy="355.55" r="22.32" transform="translate(-287.99 234.95) rotate(-62.33)"/><path class="dark5" d="M43.91,332.87a3.26,3.26,0,0,1,5.88-2.71c7.58,12,14,32.48,14.53,46.54a3.27,3.27,0,0,1-6.54.26c-.51-12.86-6.58-32.3-13.52-43.32A3.15,3.15,0,0,1,43.91,332.87Z"/><path class="dark11" d="M57.27,376.65c-.59-12.55-6.52-31.57-13.22-42.4l.85-.53c6.89,11.14,12.76,30,13.37,42.88Z"/><path class="dark11" d="M63.55,373a113.8,113.8,0,0,0-12.36-39.52l.87-.49a115,115,0,0,1,12.49,39.91Z"/><path class="dark6" d="M36.67,364.1c-1,.3-2.31-1.21-3-3.38s-.44-4.18.54-4.48,2.31,1.21,3,3.38S37.65,363.79,36.67,364.1Z"/><path class="dark6" d="M29.19,353.24c-.43,0-.79-.42-1-1a18.16,18.16,0,0,1,1.62-5.6c.89.08,1.48,1.62,1.32,3.45S30.08,353.32,29.19,353.24Z"/><path class="dark6" d="M34.24,369.43a1.39,1.39,0,0,0-.27,1.42,18.26,18.26,0,0,0,4.51,3.68c.69-.57.3-2.18-.87-3.59S34.93,368.85,34.24,369.43Z"/><rect class="dark11" x="28.8" y="360.87" width="5.8" height="1" transform="matrix(0.95, -0.3, 0.3, 0.95, -105.85, 25.7)"/><path class="dark11" d="M34.36,370.48a23.83,23.83,0,0,1-5.62-18l1,.08a22.85,22.85,0,0,0,5.38,17.25Z"/><path class="dark6" d="M8.59,315.37a3.8,3.8,0,1,1-3.8-3.8A3.8,3.8,0,0,1,8.59,315.37Z"/><path class="dark6" d="M78.77,304.55a3.8,3.8,0,1,1-3.8-3.8A3.81,3.81,0,0,1,78.77,304.55Z"/><circle class="dark5" cx="47.84" cy="228.04" r="2.12"/><circle class="dark5" cx="49.31" cy="233.89" r="2.12"/><path class="dark5" d="M54.74,239.07A2.12,2.12,0,1,1,52.62,237,2.12,2.12,0,0,1,54.74,239.07Z"/><path class="dark5" d="M5.8,249.29a2.12,2.12,0,1,1-.76-2.9A2.14,2.14,0,0,1,5.8,249.29Z"/><path class="dark5" d="M4.49,255.08a2.12,2.12,0,1,1-3.66-2.15,2.12,2.12,0,0,1,3.66,2.15Z"/><path class="dark5" d="M4,261.49a2.12,2.12,0,1,1-.75-2.9A2.12,2.12,0,0,1,4,261.49Z"/><path class="dark6" d="M348.89,352.85l-.88-.46c9.9-19,2.76-28.53-4.14-37.75-5.13-6.85-10.44-13.93-8.16-24.62,2.67-12.58,14.06-20.57,25.08-28.29s21.42-15,23.8-26.48c4.75-22.91-24.86-41.89-25.16-42.08l.53-.85c.31.2,30.51,19.54,25.6,43.13-2.46,11.84-13.51,19.6-24.2,27.1-10.85,7.61-22.08,15.48-24.68,27.68-2.18,10.24,2.76,16.83,8,23.81C351.76,323.51,359.09,333.3,348.89,352.85Z"/><path class="dark4" d="M294.76,335.87l-3.59-1.76c14.32-29.17,38.76-31.41,62.39-33.59,22.1-2,43-3.95,53.16-28.86,8.59-21,2.22-41.48-18.92-60.89a147.39,147.39,0,0,0-35-23.25l1.63-3.66a149.61,149.61,0,0,1,36.12,24c22.18,20.37,29.07,43,19.92,65.35-11.11,27.17-34.18,29.29-56.5,31.34C331.39,306.58,308.09,308.72,294.76,335.87Z"/><path class="dark1" d="M356.16,152.25A32.73,32.73,0,0,0,347.82,179a32.71,32.71,0,0,0,25.58-11.35c11.3-12.67,15.3-34.53,15.3-34.53S367.45,139.58,356.16,152.25Z"/><rect class="darkcat" x="338.9" y="158.57" width="53.3" height="1" transform="translate(3.45 325.85) rotate(-48.25)"/><rect class="darkcat" x="375.82" y="147.95" width="1" height="7.82" transform="translate(175.03 504.23) rotate(-82.24)"/><rect class="darkcat" x="357.83" y="154.8" width="1" height="11.01" transform="translate(-28.55 93.82) rotate(-14.35)"/><path class="dark1" d="M375.18,170.24a25.6,25.6,0,0,0-18.87,11.06,25.59,25.59,0,0,0,20.76,6.89c13.19-1.39,27-11.91,27-11.91S388.37,168.85,375.18,170.24Z"/><rect class="darkcat" x="356.2" y="178.62" width="41.64" height="1" transform="translate(-16.8 40.79) rotate(-6.06)"/><rect class="darkcat" x="386.54" y="177.56" width="1" height="6.11" transform="translate(-25.65 290.66) rotate(-39.95)"/><rect class="darkcat" x="367.9" y="175.54" width="8.6" height="1" transform="translate(42.19 422.25) rotate(-62.04)"/><path class="darkcat" d="M357.1,178.37l-.26-1a32.69,32.69,0,0,0,12.23-6.32l.63.78A33.53,33.53,0,0,1,357.1,178.37Z"/><circle class="dark5" cx="353.58" cy="185.69" r="10.69" transform="translate(-44.15 149.44) rotate(-22.5)"/><path class="dark11" d="M353.58,192.87a7.18,7.18,0,1,1,7.18-7.18A7.19,7.19,0,0,1,353.58,192.87Zm0-13.36a6.18,6.18,0,1,0,6.18,6.18A6.18,6.18,0,0,0,353.58,179.51Z"/><path class="dark1" d="M295.35,346l2.52-4.27a7.7,7.7,0,1,0-13.26-7.84l-2.52,4.28Z"/><circle class="dark5" cx="278.69" cy="359.55" r="22.32"/><path class="dark5" d="M258.68,347.14a3.27,3.27,0,0,1,2.5-6c13.73,3.73,32.26,14.47,42.19,24.44a3.27,3.27,0,1,1-4.63,4.61c-9.09-9.12-26.71-19.32-39.27-22.74A3,3,0,0,1,258.68,347.14Z"/><path class="dark11" d="M298.15,370.32c-8.93-8.84-26.17-18.83-38.43-22.27l.27-1c12.61,3.54,29.68,13.43,38.86,22.52Z"/><path class="dark11" d="M300.32,363.41a113.57,113.57,0,0,0-35.85-20.73l.32-.95A114.78,114.78,0,0,1,301,362.66Z"/><path class="dark6" d="M274.49,375c-.51.88-2.52.68-4.49-.46s-3.15-2.78-2.64-3.67,2.52-.67,4.49.47S275,374.14,274.49,375Z"/><path class="dark6" d="M261.64,372.09a1.42,1.42,0,0,1-1.45,0,18.34,18.34,0,0,1-2.6-5.22c.71-.55,2.19.19,3.31,1.64S262.35,371.54,261.64,372.09Z"/><path class="dark6" d="M276.31,380.59a1.39,1.39,0,0,0,.75,1.23,18.31,18.31,0,0,0,5.82-.34c.12-.89-1.25-1.81-3.07-2.06S276.43,379.7,276.31,380.59Z"/><rect class="dark11" x="266.08" y="375.87" width="5.8" height="1" transform="matrix(0.5, -0.86, 0.86, 0.5, -191.55, 420.14)"/><path class="dark11" d="M277.11,381.28a23.77,23.77,0,0,1-16.31-9.43l.79-.62a22.82,22.82,0,0,0,15.64,9.06Z"/><path class="dark6" d="M351.27,355a3.8,3.8,0,1,1-3.8-3.8A3.8,3.8,0,0,1,351.27,355Z"/><path class="dark6" d="M420,342.2a3.8,3.8,0,1,1-3.8-3.8A3.8,3.8,0,0,1,420,342.2Z"/><path class="dark6" d="M414.38,341.55c-2.79,0-12.26-.46-18.57-6.42-3.72-3.51-5.63-8.32-5.69-14.29-.07-8.39,6.63-16.53,14.38-25.95,12.25-14.88,26.13-31.74,17.57-55.1-13.81-37.69-58.59-52.17-59-52.31l.3-1c.45.15,45.7,14.77,59.68,52.93,8.75,23.9-5.32,41-17.73,56.07-7.64,9.27-14.23,17.28-14.16,25.31.05,5.69,1.86,10.25,5.38,13.58,7,6.6,18.48,6.13,18.61,6.13l0,1Z"/><circle class="dark5" cx="425.17" cy="252.78" r="2.12"/><path class="dark5" d="M422.36,246.5a2.12,2.12,0,1,1,1.69,2.47A2.12,2.12,0,0,1,422.36,246.5Z"/><path class="dark5" d="M420.69,240.28a2.12,2.12,0,0,1,4.17.78,2.12,2.12,0,1,1-4.17-.78Z"/><path class="dark5" d="M363.52,257.81a2.12,2.12,0,1,1-1.34,2.68A2.13,2.13,0,0,1,363.52,257.81Z"/><path class="dark5" d="M368.52,254.18a2.12,2.12,0,1,1-1.34,2.69A2.13,2.13,0,0,1,368.52,254.18Z"/><path class="dark5" d="M373.36,250.22A2.12,2.12,0,1,1,372,252.9,2.12,2.12,0,0,1,373.36,250.22Z"/></g></g></svg>