<?xml version="1.0" encoding="utf-8"?>
<!-- Generator: Adobe Illustrator 25.2.1, SVG Export Plug-In . SVG Version: 6.00 Build 0)  -->
<svg version="1.1" id="Calque_1" xmlns="http://www.w3.org/2000/svg" xmlns:xlink="http://www.w3.org/1999/xlink" x="0px" y="0px"
	 viewBox="0 0 512 512" style="enable-background:new 0 0 512 512;" xml:space="preserve">
<style type="text/css">
	.st0{fill:#191926;}
</style>
<g transform="translate(0.000000,512.000000) scale(0.100000,-0.100000)">
	<path class="st0" d="M2321,5110c-497-48-990-251-1376-565c-114-92-294-274-384-387c-229-287-417-675-495-1023
		c-49-218-60-325-60-575s11-357,60-575c79-355,272-749,509-1040c92-114,274-294,387-384c287-229,675-417,1023-495
		c218-49,325-60,575-60s357,11,575,60c261,58,603,204,828,353c389,259,688,599,893,1016c125,255,196,484,241,775
		c24,161,24,539,0,700c-45,291-116,520-241,775c-134,272-283,480-498,692c-211,209-404,346-673,478c-252,124-486,197-765,240
		C2794,5114,2452,5122,2321,5110z M2735,4600c193-18,353-54,525-118c284-106,534-266,745-477c566-566,752-1405,477-2145
		c-106-284-266-534-477-745c-566-566-1405-752-2145-477c-499,186-897,544-1133,1017c-286,576-286,1234,0,1810
		C1103,4221,1910,4677,2735,4600z"/>
	<path class="st0" d="M2040,3478c-33-18-51-37-70-73l-25-49v-796v-796l25-49c49-94,147-117,259-60c25,13,323,183,661,378
		c406,234,631,369,662,398c88,84,88,174,0,258c-31,29-256,164-662,398c-338,195-636,365-661,378C2156,3502,2094,3506,2040,3478z"/>
</g>
</svg>
