<?xml version="1.0" standalone="no"?>
<!DOCTYPE svg PUBLIC "-//W3C//DTD SVG 20010904//EN"
 "http://www.w3.org/TR/2001/REC-SVG-20010904/DTD/svg10.dtd">
<svg version="1.0" xmlns="http://www.w3.org/2000/svg"
 width="512.000000pt" height="512.000000pt" viewBox="0 0 512.000000 512.000000"
 preserveAspectRatio="xMidYMid meet">

<g transform="translate(0.000000,512.000000) scale(0.100000,-0.100000)"
fill="#000000" stroke="none">
<path d="M2321 5110 c-497 -48 -990 -251 -1376 -565 -114 -92 -294 -274 -384
-387 -229 -287 -417 -675 -495 -1023 -49 -218 -60 -325 -60 -575 0 -250 11
-357 60 -575 79 -355 272 -749 509 -1040 92 -114 274 -294 387 -384 287 -229
675 -417 1023 -495 218 -49 325 -60 575 -60 250 0 357 11 575 60 261 58 603
204 828 353 389 259 688 599 893 1016 125 255 196 484 241 775 24 161 24 539
0 700 -45 291 -116 520 -241 775 -134 272 -283 480 -498 692 -211 209 -404
346 -673 478 -252 124 -486 197 -765 240 -126 19 -468 27 -599 15z m414 -510
c193 -18 353 -54 525 -118 284 -106 534 -266 745 -477 566 -566 752 -1405 477
-2145 -106 -284 -266 -534 -477 -745 -566 -566 -1405 -752 -2145 -477 -499
186 -897 544 -1133 1017 -286 576 -286 1234 0 1810 376 756 1183 1212 2008
1135z"/>
<path d="M2040 3478 c-33 -18 -51 -37 -70 -73 l-25 -49 0 -796 0 -796 25 -49
c49 -94 147 -117 259 -60 25 13 323 183 661 378 406 234 631 369 662 398 88
84 88 174 0 258 -31 29 -256 164 -662 398 -338 195 -636 365 -661 378 -73 37
-135 41 -189 13z"/>
</g>
</svg>
