<svg xmlns="http://www.w3.org/2000/svg" viewBox="0 0 62.05 29.26"><defs><style>.cls-1{fill:#faf3d3;}</style></defs><g id="Calque_2" data-name="Calque 2"><g id="Calque_1-2" data-name="Calque 1"><path class="cls-1" d="M54.3,21.63c-7.59,2.29-14.85,5.72-22.56,7.63-.38-2.5.1-5,.36-7.53-10.32-.77-20.73-.7-31-2.12C-.13,19.56.19,17.89,0,17.05A106.23,106.23,0,0,1,.83,5.5c6.58-.82,13.17.25,19.75.65,4.37.27,8.75.66,13.12.93.53-2.35.07-5.25,1.94-7.08C43.72,7.21,53.4,12.3,62.05,18.76A26,26,0,0,1,54.3,21.63ZM39.12,24.15c3.22-3.95,6.48-7.88,9.68-11.84-.94-.68-1.89-1.34-2.85-2-4,5.18-7.73,10.5-11.52,15.81C36,25.45,37.74,25.14,39.12,24.15Zm8.49-3.73c1.7-1.75,3.28-3.59,4.8-5.49a4,4,0,0,0-2.42-1c-2.05,3.26-4.89,5.93-7.26,9C44.39,22.14,46.36,21.84,47.61,20.42ZM44.52,9.25l-2.78-2c-2.8,4.13-5.67,8.22-8.55,12.3-1.28,1.39,1.47.72,2,1-.07.49-.2,1.48-.26,2C37.74,17.8,41.22,13.59,44.52,9.25Zm-13.87,11c3-4.83,6.65-9.26,9.86-14q-1.83-1.44-3.65-2.91c-.25,1.9-.47,3.79-.7,5.69l-2-.08c-2.28,3.63-4.59,7.24-6.82,10.9Zm26.61-2q-1.84-1.15-3.66-2.35c-1.06,1.42-2.13,2.83-3.17,4.27C52.69,19.43,55,18.82,57.26,18.23ZM32.16,8.79c-1,0-1.92-.1-2.88-.17-2.07,3.7-4.15,7.41-6.36,11l2.48.07C27.69,16.1,30.05,12.52,32.16,8.79ZM20.88,19.47C22.79,15.76,25,12.22,27,8.5l-3.3-.21c-1.87,3.76-4,7.38-6,11.06Zm.94-11.16c-1.5-.08-3-.22-4.5-.34-1.64,3.75-3.6,7.35-5.53,11l4,.25C17.89,15.6,19.89,12,21.82,8.31Zm-6.49-.47c-1.43,0-3-.61-4.39,0C8.77,11.17,7.46,15,5.33,18.36c1.42.16,2.84.27,4.26.39C11.56,15.14,13.53,11.54,15.33,7.84ZM3.42,18.11c1.83-3.6,3.65-7.22,5.67-10.73L6.53,7.26c-1.91,3.52-5,6.69-4.57,11ZM3,10.54A19.31,19.31,0,0,0,4.73,7.18l-1.47.18C3.17,8.42,3.09,9.49,3,10.54Z"/></g></g></svg>