<svg id="Calque_1" data-name="Calque 1" xmlns="http://www.w3.org/2000/svg" viewBox="0 0 1176.98 282.52"><defs><style>.cls-1{fill:none;stroke:#000;stroke-miterlimit:10;stroke-width:2px;}</style></defs><g id="Calque_2" data-name="Calque 2"><g id="Calque_1-2" data-name="Calque 1-2"><path class="cls-1" d="M149.64,133c1.05-4,2.73-10.06,5.07-17.45,7-22,9.49-23,15.21-41.67,1.77-5.83,6-20.2,9.19-28.35,2.81-7.05,3.73-6.43,4.7-10.7.39-1.73.74-4.06,2.44-4.88,1.26-.6,2.57,0,3.94.38,2.26.7,4.95.72,10.32.75,5.22,0,7.83.05,10.89-.56,1.86-.38,3.37-.83,4.69,0,1.75,1.09,1.68,3.7,2.07,5.06,1.3,4.59,3.28,9,4.69,13.52,2.15,7,4.53,13.88,6.76,20.84,7.54,23.6,11.32,35.41,15.76,45.42,3.86,8.68,7.62,15.71,5.07,18.21-1.8,1.77-4.69-.79-12.39-.57-8.51.25-12.5,3.6-15.2,1.13-2.09-1.91-2.82-6.76-2.82-6.76s-.61-3.35-2.06-4.69-3.8-.52-7.32,0-1.91-.24-13.52-.19c-9.08,0-8.58.51-10.51,0-1.57-.41-3.38-1.09-4.5-.18-.82.65-.68,1.66-.94,3.94-.4,3.41-.71,6.07-2.25,7.32-.86.68-1.51.48-5.82.37-4.69-.11-3.73.14-8.83,0-3.32-.09-5.86-.25-7.69-.37C153.85,133.38,151.5,133.17,149.64,133Z" transform="translate(0 0)"/><path class="cls-1" d="M200,68.61c1.16,0,2.16,2.84,3.19,5.82,1.3,3.75.82,4.47,2.06,8.63a58.22,58.22,0,0,0,3,7.89c1.59,3.23,2.53,4.13,2.06,5.07-.64,1.29-3.07.77-8.44.93-7.28.22-9.83,1.39-10.7,0-.75-1.19.78-2.64,2.44-7.32.83-2.35.73-2.81,1.87-7.69C197.5,73.08,198.55,68.65,200,68.61Z" transform="translate(0 0)"/><path class="cls-1" d="M251.57,30.5c.81-.39,1,0,6.19,0,3.09,0,5.35-.17,8.26-.38,8.83-.62,11-1.44,12.2,0,1,1.2.57,2.92.19,5.44-.74,5,.18,10,.19,15,0,12.73.24,11.09.19,19.71-.09,13.21-.13,19.82-.19,20.27-.37,2.72-1.06,6.77.56,11.45.72,2.09,1.73,4.85,4.51,6.2a8.34,8.34,0,0,0,8.63-1.13,9.6,9.6,0,0,0,3-6.19c2.46-17.25.38-48.24.38-48.24,0-12.86-3.9-19.36-.38-22,2.39-1.76,4.74.19,14.27,0,8.49-.16,10.62-1.78,12.76,0,2.86,2.38,1.47,7.24.75,16.33-.33,4.19.26-.51.19,22.34,0,15.67-.29,9.19-.56,29.28-.11,8.17-.08,10-.94,13.33a34.36,34.36,0,0,1-10.7,17.65c-11.33,9.58-25.75,7.4-30,6.75s-13.11-2-20.27-9.19c-6.44-6.48-8.13-14.23-8.83-17.65-1.15-5.65-.62-9.56-.18-15A266,266,0,0,0,252,61.06C250.9,44.34,247.43,32.5,251.57,30.5Z" transform="translate(0 0)"/><path class="cls-1" d="M331.91,30.5c2.13-2.72,6.49-.58,18,0,3.42.17,2.31-.06,21,.18a36.64,36.64,0,0,1,6.19.38,29.9,29.9,0,0,1,14.08,6.57c6.93,5.91,8.88,13.47,9.76,17.08.7,2.88,4.18,17.14-3.38,25.72-3.88,4.4-7.91,4.16-9,8.26-.84,3.15,1.11,4.94,5.26,13.14,5.64,11.14,3.64,11,8.45,19.52,3.41,6,6.4,9.57,5.06,11.45-.59.83-2.09.87-5.06.94-7.41.15-11.12.22-13,.18-10-.2-10.17.61-11.82-.37-3.43-2-2.51-5.29-5.82-14.08s-5.32-8.46-9-18.4c-2.09-5.64-3-9.86-3.57-9.76s-.22,3.31,0,9c.35,8.8-.09,7.34.19,17.27.36,12.52,1.07,15-.94,16.52-1.26,1-1.76.16-11.63.19h-8.83c-3.93,0-5.91-.07-6.38-.38-3.18-2.08-.85-8.62,0-21.77.12-1.9.15-7.46.19-18.58v-30c0-8.69,1.11-17.46,0-26.09C331.23,33.67,330.74,32,331.91,30.5Z" transform="translate(0 0)"/><path class="cls-1" d="M358.94,53.78c1-.64,2.36-.24,5.06.57,4.27,1.27,7.34,2.18,9.39,5.25,3.13,4.68,1.12,10.23.94,10.7a13,13,0,0,1-7.13,7.13c-.94.42-6.35,2.83-8.83.57-1.74-1.59-.39-4-.18-11.08C358.41,58.82,356.85,55.12,358.94,53.78Z" transform="translate(0 0)"/><path class="cls-1" d="M429.89,22.44c.9,2.38,7.13,3.36,11.26.93,2-1.19,1.64-2.07,4.88-6.19.59-.75,1.15-1.41,9.39-10.14,2.7-2.86,3.73-3.94,3.38-4.69-.48-1-2.8-.15-7.14-.19-7-.06-9.84-2.32-12.2-.37-.33.27-.51.51-1.87,3.94-2.38,6-2.41,6.7-3.38,8.82C431.68,20.06,429.28,20.82,429.89,22.44Z" transform="translate(0 0)"/><path class="cls-1" d="M409.05,30.32c2.5-2,4.44.14,17.65.56,7.65.25,15-.23,17.08-.37,5.24-.37,10.57.4,15.77-.38,1.76-.26,4.81-.8,6,.75.79,1,.29,2.3,0,4.13-.21,1.41,0,1.38,1.88,13.33.41,2.54.15,5.19.75,7.69a2.36,2.36,0,0,1,0,1.88c-.85,1.32-4,.49-7.13,0-6-.91-5.25.49-13.14-.19-6.49-.55-9.3-1.7-10.7,0-.43.53-.54,2-.75,4.88-.24,3.32-.35,5,.19,5.64.72.86,1.72.67,8.07.37,9.69-.45,6.93,0,8.44-.19,1.84-.25,3.09-.56,3.95.19,1.08,1,.75,2.88.56,4.32-.3,2.26-.2,5.76,0,12.76.19,6.6,1.32,8.78-.19,10-.45.35-.84.39-6.38.19-2.91-.11-3.41-.14-5.26-.19-7.52-.21-4.89.15-6.57,0-1.45-.13-2.12-.28-2.62.19s-.3,1.11-.19,4.32a29.33,29.33,0,0,1,0,3.75c-.14,1.75-.35,1.87-.19,2.25.69,1.62,5.14,1.06,9.76.75,6.8-.44,5,.27,12.2-.18,9.14-.58,12.36-1.75,13.52,0,.73,1.09-.25,2-1.5,7.13-1.44,5.88-.47,6-1.88,10.13-1,2.88-1.8,3.92-2.44,7.14a4.24,4.24,0,0,1-.56,1.87c-1.4,1.89-4.9.88-9.58.57-5.2-.35-4.54.68-12.76.75-5.16,0-4.56-.36-9.95-.38-7.92,0-14.45.57-14.45.57-5.23.46-8.16,1-9.2-.57-.69-1-.15-2.44.19-3.56,1.41-4.78,0-8.07-.75-13.52-.88-6.45-.06-10.55.37-34.91.23-13.14.35-19.71.19-22.53C408.39,41.21,404.9,33.69,409.05,30.32Z" transform="translate(0 0)"/><path class="cls-1" d="M476.59,30.5c2-1.73,4.29-.26,12,0,9.59.33,11.53-1.75,14,0,3.54,2.51,1.81,8.35,1,22-1.09,18.51,1.51,17.4,0,32-1.44,14-4.25,19-1,22,2.14,2,4.77,1.13,20,0,13.38-1,16-.68,17,1,1.46,2.41-1.94,5-5,15-2.36,7.74-1.13,8.81-3,11-4.13,4.85-12,1.75-28,1-16.92-.79-25,3.51-28-1-1.64-2.48,0-4.79,1-12,1.11-8-.19-10.39-1-23-.64-10-.46-17.29,0-29,.7-17.5,2-17.4,1-25C475.68,37.61,474,32.78,476.59,30.5Z" transform="translate(0 0)"/><path class="cls-1" d="M542.59,29.5c2.56-1.57,4.54,1.54,12,1,6.19-.45,9.47-2.93,12-1,1.61,1.22,1.85,3.39,2,5,1,10.91,1.58,16.36,1,20-1.61,10.21-.61,20.67-1,31-.86,23-1.27,34.52,0,38,1,2.75,3.1,7.58,1,10-1.25,1.44-2.76.62-11,1-4.54.21-7.81.63-13,0-3.17-.39-3.71-.76-4-1-3.3-2.74-.39-10.42,1-17,1.9-9-.57-8.52-1-29-.41-19.88,2-17.91,1-32C541.6,40.81,538.57,31.93,542.59,29.5Z" transform="translate(0 0)"/><path class="cls-1" d="M577.59,29.5c2.77-2.8,6.66.24,22,1,7.53.37,11.88.59,18,0,8.6-.82,12.26-2.41,15,0,2.11,1.86.45,3.24,3,11,1.54,4.67,3.17,7.32,3,12-.07,1.9-.13,3.07-1,4-1.78,1.9-4.81.47-12,0h-11c-2.66,0-5.43.72-8,0h0s-.63,2.49-1,5c-.32,2.24-.47,3.37,0,4,.61.8,1.6.77,4,1,.93.09,3,.39,7,1,2,.3,8,1.34,6,1h0s3.23-.21,4,1c.58.9-.57,2-1,4s.36,2.81,1,6c.75,3.71.47,6.51,0,11-.32,3.18-.66,3.67-1,4-1.28,1.26-3.27.8-9,0-7.67-1.07-9.27-1-10,0s.31,2.06,0,5c-.39,3.8-2.49,4.77-2,6,.89,2.19,8.47,1.44,25,0,6.5-.57,9.77-.81,11,1,1.44,2.11-1.09,4.6-3,12-2.22,8.64-.41,11.56-3,14s-5.73.91-15,0a178.89,178.89,0,0,0-30,0c-8.09.73-10,1.66-12,0-4-3.35-.39-10.63,1-25,1.47-15.16-1.84-14.68-1-37,.51-13.2,1.68-13.75,1-22C577.61,37.5,574.63,32.5,577.59,29.5Z" transform="translate(0 0)"/><path class="cls-1" d="M737.59,27.5c-4.26-4.42-13.44-2-21,0a55.88,55.88,0,0,0-22,11,56.45,56.45,0,0,0-18,27,56,56,0,0,0,0,30c1.56,6.21,5.43,21.6,20,32,9.59,6.85,18.85,8,27,9,11.46,1.42,14.21-1.13,15-2,2.2-2.4,1.11-4.65,2-14,1-10.53,3-14.54,1-16s-4.88,2-11,3c-9.23,1.46-17-4.25-18-5a26,26,0,0,1-10-23c.28-2.8,1.59-11.36,9-17a23.78,23.78,0,0,1,20-4c5,1.36,7.3,4.15,9,3,1.95-1.32.1-5.76-1-14C737.82,34.08,740.71,30.69,737.59,27.5Z" transform="translate(0 0)"/><path class="cls-1" d="M747.59,30.5c2.1-2.18,4.39-1.22,18-1,13.1.21,19.65.31,24,0,7.23-.52,10.47-1.31,13,1,2,1.86,1.48,3.77,3,11,2.18,10.31,4.66,12.75,3,15-.75,1-2.33,2-14,1-12-1-17.36-2.54-19,0-.74,1.15-.49,3.1,0,7,.29,2.25.43,3.38,1,4,1.51,1.64,4.31.82,11,0,8.65-1,9.61-.37,10,0,1.91,1.76.14,4.56,0,12-.15,8.78,2.2,11.81,0,14-1.17,1.17-4.46,1.13-11,1-6.34-.13-8.71-.63-10,1-.6.77-.73,2.51-1,6-.18,2.37-.27,3.56,0,4,1.29,2.13,5.78.45,15,0,7.83-.38,7.43.68,14,0,4.36-.45,5.95-1.07,7,0,1.67,1.69-.45,5.12-3,14-2.76,9.6-1.84,11-4,13-3.47,3.18-8.35,1.78-18,1-8.49-.69-18.19-.09-23,0-11.33.23-13.13.75-15-1-3.69-3.46-1.05-9.6,0-22,1-11.57-1-9.67-1-29,0-20.56,2.28-19.54,1-31C747.24,39.35,744.24,34,747.59,30.5Z" transform="translate(0 0)"/><path class="cls-1" d="M816.59,29.5c2.71-1.94,4.79.54,20,1,5.94.18,5.89-.19,9,0,15.12.93,26.13,10.24,27,11,9.09,7.89,12.23,17.38,14,23,1.72,5.43,5.74,21-1,38-1.69,4.3-5.24,13-14,20-5.79,4.65-11,6.29-20,9-15.39,4.65-31.53,9.53-37,3-2.72-3.25.08-5.89,1-20,.95-14.4-1.62-16.8-1-36,.29-8.93.81-7.09,1-15C816.15,41.31,812,32.76,816.59,29.5Z" transform="translate(0 0)"/><path class="cls-1" d="M894.59,30.5c1.71-1.47,3.31-.17,10,0,9.8.26,13.44-2.34,16,0s1.54,6.69,1,10c-2.18,13.49.18,27.34,0,41-.18,14-.27,21,0,24,1.29,13.92,4.49,23.85,0,27-.81.57-2.87.71-7,1-5.61.39-6.46-.21-12,0-6.34.25-7.73,1.14-9,0-2.33-2.09-.24-7.48,1-12,1.78-6.45.11-4.85,0-42v-17c0-5,.28-10,0-15C894,36.41,892.16,32.55,894.59,30.5Z" transform="translate(0 0)"/><path class="cls-1" d="M959.59,30.5c2.9-2.67,6.74,0,15,0s12.11-2.67,15,0a7.39,7.39,0,0,1,2,5c1.13,12.6,8.28,23.91,12,36,5.19,16.85,7.78,25.27,11,33,7,16.77,13.21,25.68,10,29-2.52,2.61-7.17-2.1-18,0-5.07,1-9,3-11,1-.83-.81-.54-1.52-2-6-.94-2.91-1.42-4.36-2-5-1.8-2-4.52-1.25-12-1-1.27,0-7,.24-13,0-6.6-.26-9.35-.86-11,1-.05.06-.18.26-.33.5a16.78,16.78,0,0,0-1.67,3.5c-1.33,3.92-.65,5.91-2,7-1.53,1.25-3.57-.4-9-1a39,39,0,0,0-7,0c-8.78.46-11.92,2.43-13,1s1.24-3.73,4-10c.7-1.59,1-2.42,4-12,2.69-8.54,4-12.8,5-16,4.08-13.33,5.1-13,12-33,3.24-9.37,9.15-18.13,10-28A7.48,7.48,0,0,1,959.59,30.5Z" transform="translate(0 0)"/><path class="cls-1" d="M973.59,68.5c-1,0-1.7,3.58-3,8-3.83,13.06-8.14,17.5-6,20,.73.85,1.43.59,8,1,8.49.54,10.17,1.15,11,0,1-1.44-1-3.25-4-11a123.19,123.19,0,0,1-4-12C974.59,70.59,974.33,68.5,973.59,68.5Z" transform="translate(0 0)"/><path class="cls-1" d="M30.59,201.5c3.25-2.26,9.6.89,13,4,5.12,4.68,5.62,11.14,6,16,.36,4.55,1.17,14.95-6,22-3.39,3.34-9.77,7.11-13,5s0-8.67,0-23C30.61,210.56,27,203.94,30.59,201.5Z" transform="translate(0 0)"/><path class="cls-1" d="M4.59,174.5c2.12-1.41,4-.4,14,0,7,.28,10.15-.05,13,0a49.42,49.42,0,0,1,33,15c13,13.88,12.25,31.85,12,38-.2,5.13-1.06,26.44-17,39-7.26,5.73-14.84,7.15-30,10-14.39,2.71-21.58,4.06-26,0-5.1-4.68-1.33-11.8,0-35,.86-14.91,1.55-26.81,0-42C2.3,186.71,0,177.5,4.59,174.5Z" transform="translate(0 0)"/><path class="cls-1" d="M105.59,166.5c1.35,2.27,7,2.24,11,0,3.26-1.85,3.25-4,7-9,5.5-7.27,10.73-9.48,10-11-.61-1.29-4.18.63-12,0-3.94-.31-5.24-1-7,0-2.18,1.21-2.27,3.41-4,8C107.5,162.75,104.5,164.5,105.59,166.5Z" transform="translate(0 0)"/><path class="cls-1" d="M85.59,173.5c2.77-2.1,4.75.2,18,1,9.66.58,14.49.88,21,0s10.15-2.28,13,0c1.68,1.34,1.91,3,3,8,3.15,14.4,4.83,17.14,3,19s-4.66.76-10,0c-18.09-2.57-20.56-1.33-22,0-3.09,2.87-3.29,9-1,11,1.19,1,2.66.66,8,0,12.2-1.5,13.47-.57,14,0,.86.92.59,4,0,10-.62,6.43-1.05,6.73-1,10,.08,4.73,1,5.84,0,7s-2.63,1.1-12,0c-5.69-.67-6.88-.89-8,0-2.4,1.92-2.55,7.5,0,10,2.24,2.19,5.54,1,14,0,11-1.33,19-2.28,21,1,1.42,2.27-1.48,4.17-3,12-1.69,8.73.76,12.3-2,15-2,2-4.76,1.4-12,1-3.57-.2-9.38-.13-21,0-15.8.18-19,1.89-22-1-2.72-2.67-2.31-6.44-2-15,.36-10-.22-20,0-30,.35-15.17.52-22.76,0-32C83.64,183.25,81.5,176.57,85.59,173.5Z" transform="translate(0 0)"/><path class="cls-1" d="M143.09,175c.7-.66,1.5-1,14-1,11.64,0,12.77.23,14,1,3.91,2.45,3.46,6.64,6,20,2.79,14.67,3.91,12.69,7,29,1.55,8.15,1.9,11.95,3,12,1.43.06,2.21-6.22,6-22,5.75-23.9,7.06-22.34,7-29,0-4.61-.69-8.86,2-11,2.26-1.79,4.8-.46,11,0,5.9.44,17.47-.9,18,0a6,6,0,0,1,.32.68,3.88,3.88,0,0,1,.18.82c.63,5.49-3.5,11.5-3.5,11.5-2.39,3.49-1.83,5.56-5.5,22.5-5.39,24.93-7.12,22.79-10,39-3.3,18.64-2,26.78-8,30-3,1.6-4.27.09-16,0-13.67-.1-15.55,1.93-19,0-6.28-3.51-4.32-12.62-7-30-2.08-13.57-5.75-24.07-12-42C144.21,188.14,139.15,178.68,143.09,175Z" transform="translate(0 0)"/><path class="cls-1" d="M234.59,173.5c2.81-2.45,6-.84,15,0,23.3,2.18,35-5.51,40,1,1.07,1.39.14,1.24,2,11,2.09,10.93,3.8,14,2,16-1.24,1.39-3.15,1.11-12,0-13.55-1.69-18.76-2.24-20,0-.44.8.11,1.08,0,6-.07,3.3-.33,3.45,0,4,1.39,2.34,7.1,1.76,14,1,4.59-.5,5.89-1,7,0,1.8,1.58.48,4.64,0,10-1,10.81,2.86,15.64,0,18-.93.77-3.63.53-9,0-7.48-.73-10.87-1.65-12,0-.4.59-.11.91,0,4,.16,4.27-.34,5.16,0,6,1.06,2.58,7.88,1.68,21,0,10.29-1.32,14-1.8,15,0,.89,1.55-1.22,2.95-3,9-.87,3-.52,3.17-2,11-.91,4.85-1.38,7.29-2,8-2.77,3.18-7.92,1-19,0a154.61,154.61,0,0,0-26,0c-7,.71-9,1.59-11,0-3.79-3.09-.59-9.93,0-23,.54-11.8-1.83-11.32-2-26-.16-14.43,2.15-13.93,2-27C234.4,184.84,230.12,177.38,234.59,173.5Z" transform="translate(0 0)"/><path class="cls-1" d="M301.59,173.5c2.87-1.71,5.13,1.34,15,1,7-.24,10.15-1.9,12,0,2.4,2.47,0,8.29-1,11-4.55,12.72,1.56,15.54,1,37-.45,17.74-4.37,24.61,0,28,1.77,1.37,6.54.93,16,0,12.12-1.19,17.43-2.48,19,0,.81,1.28.07,2.65-1,6-4,12.75-1.08,17.67-5,21-1.83,1.56-3.33,1.21-13,1h-24c-16.21,0-17.8,1-20-1-4.47-4-1.81-11.29,0-27a255.27,255.27,0,0,0,1-45C300.3,187.08,296.69,176.38,301.59,173.5Z" transform="translate(0 0)"/><path class="cls-1" d="M400.59,205.5a25.21,25.21,0,0,1,25-3,26.06,26.06,0,0,1,13,12c5.55,11,.66,21.63,0,23a24.46,24.46,0,0,1-26,14,26.22,26.22,0,0,1-15-8c-2-2-7.91-8-8-17a24.73,24.73,0,0,1,4-13A26.07,26.07,0,0,1,400.59,205.5Z" transform="translate(0 0)"/><path class="cls-1" d="M375.59,189.5a49.74,49.74,0,0,1,23-15c9.46-2.79,17.22-1.8,23-1,7.67,1.06,20.86,2.88,32,13,16.62,15.09,16.22,37.27,16,42-.27,6.06-2,23.42-16,37-16,15.57-42.1,20.48-62,10-16.73-8.81-22.85-25.24-25-31-2.06-5.52-7.1-19.67-2-36A53.08,53.08,0,0,1,375.59,189.5Z" transform="translate(0 0)"/><path class="cls-1" d="M475.09,174c2.64-2.41,5.75-1.47,28,0,10.64.7,10.68.54,13,1,5.54,1.1,17.32,3.45,25,13,10.73,13.34,5.78,31.19,5,34-1.09,4-4.74,17.12-16,23-11.84,6.19-23.39-.23-27,6-.61,1.07-.42,6.39,0,17,.23,5.75.37,7.54-1,9-2.07,2.21-5.22,1.16-14,1-10.4-.19-11,1.2-13,0-5.58-3.42-1.55-15.39,0-37,1-13.38,2-27.06,0-44C473.55,183.5,471.25,177.5,475.09,174Z" transform="translate(0 0)"/><path class="cls-1" d="M502.59,199.5c1.34-1.47,3.94-1.21,6-1s5.33.54,8,3c5,4.64,3.14,12.49,3,13a14.53,14.53,0,0,1-7,9c-.38.2-7,3.64-10,1s1.84-7.6,0-18C502.07,203.5,501.18,201,502.59,199.5Z" transform="translate(0 0)"/><path class="cls-1" d="M553.59,174.5c2.36-1.68,3.67-.47,16,0,15.88.61,17.44-1.25,25,0,4,.67,15.95,2.64,24,12,10.41,12.1,9.29,30.68,3,43a37.43,37.43,0,0,1-15,16c-4,2.2-12.06,6.64-21,5-2.35-.43-5.92-1.5-7,0-.73,1,.28,2.39,1,5,1.29,4.62-.34,5.77,0,12,.37,6.63,2.38,8.2,1,10s-3.86.81-11,1c-9.48.25-12.76,2.23-15,0-1.83-1.82-1.29-4.8-1-8,.81-8.74-1.18-8.36-2-23s1-17.3,1-33C552.5,189.14,547.6,178.74,553.59,174.5Z" transform="translate(0 0)"/><path class="cls-1" d="M580.59,198.5c1.26-.86,3.18-.24,7,1,4,1.29,6.24,2,8,4,3.54,4,3.6,11.34,0,16-2.72,3.53-6.71,4.47-9,5-2.1.49-3.75.88-5,0-1.93-1.36-1.11-4.53-1-10C580.8,204.24,578.25,200.05,580.59,198.5Z" transform="translate(0 0)"/><path class="cls-1" d="M685.59,174.5c-2.48-2.65-6-.8-18,0a165.73,165.73,0,0,1-24,0c-8.8-.69-10.89-1.76-13,0-3.85,3.21-1.37,10.52,0,22,1.23,10.26,0,20.67,0,31v37c-1.06,6.39-2.31,10.12,0,13,3.43,4.27,10.12,1,25,1,18.19,0,25,5,30,0,1.63-1.61.82-2,5-15,3.08-9.54,4.18-11.36,3-13-.82-1.16-2.77-2.22-20,0-10.08,1.3-13.93,2.25-16,0-2.43-2.65-2.36-8.05,0-10,1.53-1.26,3.21-.43,9,0,6.86.5,10.29.76,12-1,2-2.09-.06-4.72,0-13,.06-8,2.06-11.19,0-13-1.17-1-2.38-.5-9,0-10.09.76-11.45-.17-12-1s0-1.47,0-6c0-3.78-.47-4.22,0-5,1.38-2.25,6.62-.9,14,0,9.58,1.16,17.13,2.08,19-1,1.28-2.09-1.34-3.93-3-11C685.5,180.57,688.21,177.24,685.59,174.5Z" transform="translate(0 0)"/><path class="cls-1" d="M695.59,174.5c2.22-1.79,4.57,0,13,0,9,0,12-2,14,0,2.29,2.3.24,6.67-1,13-2.24,11.46,1.61,11.78,1,27-.55,13.8-3.91,18.49-1,29,1.86,6.69,4.22,8.42,6,9,3.19,1,6.91-.77,9-3,3-3.19,3-7.58,3-10-.13-14.32-.19-21.48-1-27-2.82-19.35-5-34.38,1-38,1.72-1,2.13,0,10,0,11.16-.07,14.62-2.26,17,0s1,6.74,0,13c-.19,1.22-.12,9.48,0,26,.24,30.72,2.76,31.56,0,41-1.68,5.75-4.45,14.78-13,21s-18,6.07-22,6c-2.52,0-19.14-.34-29-12-5.59-6.62-6.06-17.08-7-38-1.17-26.3,2.9-25,0-40C694.29,184.72,692.09,177.28,695.59,174.5Z" transform="translate(0 0)"/><path class="cls-1" d="M821.59,174.5c-2.29-2.89-6.41-3-14-3-10.06,0-15.1-.06-21,3a31.06,31.06,0,0,0-14,15c-4.43,10.45-1.28,20.08,0,24,1.12,3.41,3.78,11.54,11,18,3.9,3.48,7.71,5.22,9,10,.33,1.22,1.19,5.19-1,8-2.69,3.46-8.46,3.14-11,3-5.27-.29-7.41-2.28-9-1s-.5,4.15,0,9c1.14,11-2.51,14.81,0,18,1.49,1.89,3.58,1.38,16,1,14.57-.44,15,.06,18-1,9-3.2,13.68-10.84,15-13,6.5-10.57,5-21.56,4-26-.66-3-2.23-10.16-8-16-5-5.11-8.8-4.67-12-10-2.52-4.22-4-11-1-14s9.66-1.35,11-1c4.92,1.28,6.47,3.85,8,3,1.81-1,.35-5,0-14S823.44,176.78,821.59,174.5Z" transform="translate(0 0)"/><path class="cls-1" d="M832.59,173.5c2.84-1.94,4.75.14,17,1,7,.49,13.7,1,22,0,7.73-.89,11.54-2.41,14,0,1.23,1.19.6,1.86,2,9a115.49,115.49,0,0,0,3,13c1,3.2,1.56,4.09,1,5-1.19,2-5.48.89-13,0-6-.71-18.75-2.22-20,1-.46,1.2,1.07,2,1,5s-1.59,3.95-1,5,3,1,11,0c6.3-.79,7.95-1.1,9,0s.28,2.61,0,7c-.22,3.65.19,7.43,1,15,.41,3.72.59,4.37,0,5-1.79,1.94-6.29-1.12-15-1-6,.08-6.82,1.57-7,2-.31.75,0,1.31,1,5,.91,3.51.72,3.52,1,4,1.63,2.72,7.56,1.85,15,1,16.43-1.86,18.14-1.09,19,0,1.34,1.69,0,3.28-2,13s-1.5,12.47-4,14-4.52-.09-10-1c-7.89-1.31-8.07,1.14-19,1-10.42-.14-12-2.39-20-1-4.54.79-5.47,1.77-7,1-4.78-2.42-1.14-14.8,0-33,1-16-.17-32.54-1-44C829.5,184.69,827.94,176.64,832.59,173.5Z" transform="translate(0 0)"/><path class="cls-1" d="M951.59,175.5c-2.29-1.94-5.33-.52-11,0-9.58.88-12.74-2.1-15,0-3.09,2.89.51,10.69,3,18,4.94,14.47.63,13.2,6,50,2.64,18,3.52,17.87,3,23-.39,3.89-1.26,7.64,1,10,1.1,1.14,2.63,1.65,12,2,6.17.23,9.26.35,10,0,4.36-2,4.41-7.5,9-23,3.38-11.39,4.58-15.77,7-16,1.92-.18,3.64,2.54,7,8a102.87,102.87,0,0,1,9,19c2.74,7.35,1.31,10.27,4,12,2.31,1.48,4.23.34,12,0,8.81-.38,9.09,1,11,0,6.42-3.26,1.47-17.61,4-41,.75-6.94,2.17-13.29,5-26,4.69-21,8.56-31.31,4-35-1.58-1.28-2.36-.29-11-1-11-.91-13.48-2.83-16-1-2.74,2-2,5.94-2,16,0,10.23.11,25.25-3,26-2.15.52-5.42-5.92-8-11-8.66-17.08-9.86-30.07-13-30-1.1,0-1.46,1.66-4,7-4.5,9.48-5.6,9-10,18-4.73,9.72-5.33,14.13-7,14-2.71-.21-3.91-12.11-4-13-.52-5.39-.12-10.42-1-20C953.34,178.63,953.09,176.72,951.59,175.5Z" transform="translate(0 0)"/><path class="cls-1" d="M1037.59,174.5c4.06-3.27,7.38,0,22,0,18.59,0,27.81-5.17,32,0,1,1.28.3,1.38,2,10,2.05,10.33,3.64,12.82,2,15-1.1,1.47-4.4,1.65-11,2-7.87.42-11.81.63-16,0-2.62-.39-5.45-1-6,0s1.27,2.18,2,5-.78,3.74,0,5c.6,1,2.1,1.56,11,1,6.22-.39,7-.78,8,0,2.32,1.74.68,5.24,1,14,.31,8.29,2,11.28,0,13-1,.89-2,.52-10,0-7-.45-8.89-.34-10,1s-1.06,3.77-1,5a9.93,9.93,0,0,0,1,4c1.48,2.33,5.85,2.92,22,1,8.36-1,10.74-1.58,12,0,1.81,2.26-1.45,5.48-3,15-1.12,6.93,0,8.94-2,11-2.44,2.52-6.16,1.61-14,1a204.44,204.44,0,0,0-25,0c-13.37.81-15.28,3.12-18,1-5.15-4,0-13.69,1-34,.21-4.12-.53-15.08-2-37C1034,184.09,1033.26,178,1037.59,174.5Z" transform="translate(0 0)"/><path class="cls-1" d="M1103.59,174.5c2.3-1.72,3-.44,27,0,9.8.18,12.62,0,18,1,8.59,1.57,14.21,2.59,19,7,7.91,7.27,10.91,21.26,6,30-3.88,6.92-11.56,8.46-11,13,.35,2.81,3.37,3,7,7,7.21,8,6.09,19.26,6,20a27.26,27.26,0,0,1-8,16c-5.49,5.59-11.66,7.27-18,9-2.94.8-5.63,1.3-24,2s-20.58-.4-22-2c-3.74-4.21-.52-10.53,1-23,.63-5.12.09-13.75-1-31C1101.23,185.85,1098.29,178.44,1103.59,174.5Z" transform="translate(0 0)"/><path class="cls-1" d="M1131.59,197.5c1.89-1.71,5.28-.76,8,0,2.93.82,5.49,1.53,7,4a8.84,8.84,0,0,1-1,10c-1.57,1.82-3.54,2.35-6,3-2.85.76-6.13,1.64-8,0-.77-.68-1-1.54-1-9C1130.62,199,1130.81,198.17,1131.59,197.5Z" transform="translate(0 0)"/><path class="cls-1" d="M1131.59,236.5c2.3-2.45,7-1.25,8-1,1.43.36,5.17,1.31,7,5a9.13,9.13,0,0,1,0,8c-1.26,2.59-3.41,3.69-6,5s-7.7,3.92-10,2c-1.49-1.26-.17-3.1,0-12C1130.68,239.11,1130.4,237.73,1131.59,236.5Z" transform="translate(0 0)"/><path class="cls-1" d="M843.09,57c-2.4,1.26-.07,6.38,0,20,.1,17.66-3.72,25.77,0,28,3.28,2,9.34-2.45,12-5,6.7-6.42,7.88-16.45,6-24C858.14,64.09,846.8,55,843.09,57Z" transform="translate(0 0)"/></g></g></svg>