<?xml version="1.0" encoding="utf-8"?>
<!-- Generator: Adobe Illustrator 25.2.1, SVG Export Plug-In . SVG Version: 6.00 Build 0)  -->
<svg version="1.1" id="Calque_1" xmlns="http://www.w3.org/2000/svg" xmlns:xlink="http://www.w3.org/1999/xlink" x="0px" y="0px"
	 viewBox="0 0 1177 282.5" style="enable-background:new 0 0 1177 282.5;" xml:space="preserve">
<style type="text/css">
	.st0{fill:none;stroke:#000000;stroke-width:2;stroke-miterlimit:10;}
</style>
<path class="st0" d="M149.6,133c1.1-4,2.7-10.1,5.1-17.4c7-22,9.5-23,15.2-41.7c1.8-5.8,6-20.2,9.2-28.3c2.8-7,3.7-6.4,4.7-10.7
	c0.4-1.7,0.7-4.1,2.4-4.9c1.3-0.6,2.6,0,3.9,0.4c2.3,0.7,4.9,0.7,10.3,0.8c5.2,0,7.8,0,10.9-0.6c1.9-0.4,3.4-0.8,4.7,0
	c1.8,1.1,1.7,3.7,2.1,5.1c1.3,4.6,3.3,9,4.7,13.5c2.1,7,4.5,13.9,6.8,20.8c7.5,23.6,11.3,35.4,15.8,45.4c3.9,8.7,7.6,15.7,5.1,18.2
	c-1.8,1.8-4.7-0.8-12.4-0.6c-8.5,0.2-12.5,3.6-15.2,1.1c-2.1-1.9-2.8-6.8-2.8-6.8s-0.6-3.3-2.1-4.7s-3.8-0.5-7.3,0
	s-1.9-0.2-13.5-0.2c-9.1,0-8.6,0.5-10.5,0c-1.6-0.4-3.4-1.1-4.5-0.2c-0.8,0.7-0.7,1.7-0.9,3.9c-0.4,3.4-0.7,6.1-2.2,7.3
	c-0.9,0.7-1.5,0.5-5.8,0.4c-4.7-0.1-3.7,0.1-8.8,0c-3.3-0.1-5.9-0.2-7.7-0.4C153.9,133.4,151.5,133.2,149.6,133z"/>
<path class="st0" d="M200,68.6c1.2,0,2.2,2.8,3.2,5.8c1.3,3.8,0.8,4.5,2.1,8.6c0.8,2.7,1.8,5.3,3,7.9c1.6,3.2,2.5,4.1,2.1,5.1
	c-0.6,1.3-3.1,0.8-8.4,0.9c-7.3,0.2-9.8,1.4-10.7,0c-0.8-1.2,0.8-2.6,2.4-7.3c0.8-2.3,0.7-2.8,1.9-7.7
	C197.5,73.1,198.6,68.7,200,68.6z"/>
<path class="st0" d="M251.6,30.5c0.8-0.4,1,0,6.2,0c3.1,0,5.4-0.2,8.3-0.4c8.8-0.6,11-1.4,12.2,0c1,1.2,0.6,2.9,0.2,5.4
	c-0.7,5,0.2,10,0.2,15c0,12.7,0.2,11.1,0.2,19.7c-0.1,13.2-0.1,19.8-0.2,20.3c-0.4,2.7-1.1,6.8,0.6,11.4c0.7,2.1,1.7,4.8,4.5,6.2
	c2.9,1.3,6.2,0.8,8.6-1.1c1.7-1.6,2.8-3.8,3-6.2c2.5-17.2,0.4-48.2,0.4-48.2c0-12.9-3.9-19.4-0.4-22c2.4-1.8,4.7,0.2,14.3,0
	c8.5-0.2,10.6-1.8,12.8,0c2.9,2.4,1.5,7.2,0.8,16.3c-0.3,4.2,0.3-0.5,0.2,22.3c0,15.7-0.3,9.2-0.6,29.3c-0.1,8.2-0.1,10-0.9,13.3
	c-1.7,6.8-5.4,13-10.7,17.6c-11.3,9.6-25.8,7.4-30,6.8s-13.1-2-20.3-9.2c-6.4-6.5-8.1-14.2-8.8-17.7c-1.1-5.7-0.6-9.6-0.2-15
	c0.8-11.1,0.8-22.3,0.2-33.4C250.9,44.3,247.4,32.5,251.6,30.5z"/>
<path class="st0" d="M331.9,30.5c2.1-2.7,6.5-0.6,18,0c3.4,0.2,2.3-0.1,21,0.2c2.1,0,4.1,0.1,6.2,0.4c5.2,0.9,10,3.2,14.1,6.6
	c6.9,5.9,8.9,13.5,9.8,17.1c0.7,2.9,4.2,17.1-3.4,25.7c-3.9,4.4-7.9,4.2-9,8.3c-0.8,3.2,1.1,4.9,5.3,13.1c5.6,11.1,3.6,11,8.5,19.5
	c3.4,6,6.4,9.6,5.1,11.4c-0.6,0.8-2.1,0.9-5.1,0.9c-7.4,0.1-11.1,0.2-13,0.2c-10-0.2-10.2,0.6-11.8-0.4c-3.4-2-2.5-5.3-5.8-14.1
	s-5.3-8.5-9-18.4c-2.1-5.6-3-9.9-3.6-9.8s-0.2,3.3,0,9c0.4,8.8-0.1,7.3,0.2,17.3c0.4,12.5,1.1,15-0.9,16.5c-1.3,1-1.8,0.2-11.6,0.2
	h-8.8c-3.9,0-5.9-0.1-6.4-0.4c-3.2-2.1-0.9-8.6,0-21.8c0.1-1.9,0.1-7.5,0.2-18.6v-30c0-8.7,1.1-17.5,0-26.1
	C331.2,33.7,330.7,32,331.9,30.5z"/>
<path class="st0" d="M358.9,53.8c1-0.6,2.4-0.2,5.1,0.6c4.3,1.3,7.3,2.2,9.4,5.2c3.1,4.7,1.1,10.2,0.9,10.7
	c-1.3,3.2-3.9,5.8-7.1,7.1c-0.9,0.4-6.4,2.8-8.8,0.6c-1.7-1.6-0.4-4-0.2-11.1C358.4,58.8,356.9,55.1,358.9,53.8z"/>
<path class="st0" d="M429.9,22.4c0.9,2.4,7.1,3.4,11.3,0.9c2-1.2,1.6-2.1,4.9-6.2c0.6-0.8,1.1-1.4,9.4-10.1c2.7-2.9,3.7-3.9,3.4-4.7
	c-0.5-1-2.8-0.2-7.1-0.2c-7-0.1-9.8-2.3-12.2-0.4c-0.3,0.3-0.5,0.5-1.9,3.9c-2.4,6-2.4,6.7-3.4,8.8
	C431.7,20.1,429.3,20.8,429.9,22.4z"/>
<path class="st0" d="M409,30.3c2.5-2,4.4,0.1,17.6,0.6c7.6,0.2,15-0.2,17.1-0.4c5.2-0.4,10.6,0.4,15.8-0.4c1.8-0.3,4.8-0.8,6,0.8
	c0.8,1,0.3,2.3,0,4.1c-0.2,1.4,0,1.4,1.9,13.3c0.4,2.5,0.1,5.2,0.8,7.7c0.3,0.6,0.3,1.3,0,1.9c-0.9,1.3-4,0.5-7.1,0
	c-6-0.9-5.2,0.5-13.1-0.2c-6.5-0.5-9.3-1.7-10.7,0c-0.4,0.5-0.5,2-0.8,4.9c-0.2,3.3-0.4,5,0.2,5.6c0.7,0.9,1.7,0.7,8.1,0.4
	c9.7-0.4,6.9,0,8.4-0.2c1.8-0.2,3.1-0.6,4,0.2c1.1,1,0.8,2.9,0.6,4.3c-0.3,2.3-0.2,5.8,0,12.8c0.2,6.6,1.3,8.8-0.2,10
	c-0.5,0.3-0.8,0.4-6.4,0.2c-2.9-0.1-3.4-0.1-5.3-0.2c-7.5-0.2-4.9,0.2-6.6,0c-1.5-0.1-2.1-0.3-2.6,0.2s-0.3,1.1-0.2,4.3
	c0.1,1.2,0.1,2.5,0,3.8c-0.1,1.8-0.4,1.9-0.2,2.2c0.7,1.6,5.1,1.1,9.8,0.8c6.8-0.4,5,0.3,12.2-0.2c9.1-0.6,12.4-1.8,13.5,0
	c0.7,1.1-0.2,2-1.5,7.1c-1.4,5.9-0.5,6-1.9,10.1c-1,2.9-1.8,3.9-2.4,7.1c0,0.7-0.2,1.3-0.6,1.9c-1.4,1.9-4.9,0.9-9.6,0.6
	c-5.2-0.4-4.5,0.7-12.8,0.8c-5.2,0-4.6-0.4-10-0.4c-7.9,0-14.5,0.6-14.5,0.6c-5.2,0.5-8.2,1-9.2-0.6c-0.7-1-0.1-2.4,0.2-3.6
	c1.4-4.8,0-8.1-0.8-13.5c-0.9-6.4-0.1-10.6,0.4-34.9c0.2-13.1,0.4-19.7,0.2-22.5C408.4,41.2,404.9,33.7,409,30.3z"/>
<path class="st0" d="M476.6,30.5c2-1.7,4.3-0.3,12,0c9.6,0.3,11.5-1.8,14,0c3.5,2.5,1.8,8.3,1,22c-1.1,18.5,1.5,17.4,0,32
	c-1.4,14-4.2,19-1,22c2.1,2,4.8,1.1,20,0c13.4-1,16-0.7,17,1c1.5,2.4-1.9,5-5,15c-2.4,7.7-1.1,8.8-3,11c-4.1,4.9-12,1.8-28,1
	c-16.9-0.8-25,3.5-28-1c-1.6-2.5,0-4.8,1-12c1.1-8-0.2-10.4-1-23c-0.6-10-0.5-17.3,0-29c0.7-17.5,2-17.4,1-25
	C475.7,37.6,474,32.8,476.6,30.5z"/>
<path class="st0" d="M542.6,29.5c2.6-1.6,4.5,1.5,12,1c6.2-0.5,9.5-2.9,12-1c1.6,1.2,1.8,3.4,2,5c1,10.9,1.6,16.4,1,20
	c-1.6,10.2-0.6,20.7-1,31c-0.9,23-1.3,34.5,0,38c1,2.8,3.1,7.6,1,10c-1.2,1.4-2.8,0.6-11,1c-4.5,0.2-7.8,0.6-13,0
	c-3.2-0.4-3.7-0.8-4-1c-3.3-2.7-0.4-10.4,1-17c1.9-9-0.6-8.5-1-29c-0.4-19.9,2-17.9,1-32C541.6,40.8,538.6,31.9,542.6,29.5z"/>
<path class="st0" d="M577.6,29.5c2.8-2.8,6.7,0.2,22,1c7.5,0.4,11.9,0.6,18,0c8.6-0.8,12.3-2.4,15,0c2.1,1.9,0.5,3.2,3,11
	c1.5,4.7,3.2,7.3,3,12c-0.1,1.9-0.1,3.1-1,4c-1.8,1.9-4.8,0.5-12,0h-11c-2.7,0-5.4,0.7-8,0l0,0c0,0-0.6,2.5-1,5
	c-0.3,2.2-0.5,3.4,0,4c0.6,0.8,1.6,0.8,4,1c0.9,0.1,3,0.4,7,1c2,0.3,8,1.3,6,1l0,0c0,0,3.2-0.2,4,1c0.6,0.9-0.6,2-1,4s0.4,2.8,1,6
	c0.8,3.7,0.5,6.5,0,11c-0.3,3.2-0.7,3.7-1,4c-1.3,1.3-3.3,0.8-9,0c-7.7-1.1-9.3-1-10,0s0.3,2.1,0,5c-0.4,3.8-2.5,4.8-2,6
	c0.9,2.2,8.5,1.4,25,0c6.5-0.6,9.8-0.8,11,1c1.4,2.1-1.1,4.6-3,12c-2.2,8.6-0.4,11.6-3,14s-5.7,0.9-15,0c-10-0.8-20-0.8-30,0
	c-8.1,0.7-10,1.7-12,0c-4-3.4-0.4-10.6,1-25c1.5-15.2-1.8-14.7-1-37c0.5-13.2,1.7-13.8,1-22C577.6,37.5,574.6,32.5,577.6,29.5z"/>
<path class="st0" d="M737.6,27.5c-4.3-4.4-13.4-2-21,0c-8.1,2-15.6,5.7-22,11c-8.5,7-14.8,16.4-18,27c-2.7,9.8-2.7,20.2,0,30
	c1.6,6.2,5.4,21.6,20,32c9.6,6.9,18.8,8,27,9c11.5,1.4,14.2-1.1,15-2c2.2-2.4,1.1-4.6,2-14c1-10.5,3-14.5,1-16s-4.9,2-11,3
	c-9.2,1.5-17-4.2-18-5c-7.1-5.4-10.8-14.1-10-23c0.3-2.8,1.6-11.4,9-17c5.7-4.3,13.1-5.7,20-4c5,1.4,7.3,4.2,9,3c2-1.3,0.1-5.8-1-14
	C737.8,34.1,740.7,30.7,737.6,27.5z"/>
<path class="st0" d="M747.6,30.5c2.1-2.2,4.4-1.2,18-1c13.1,0.2,19.7,0.3,24,0c7.2-0.5,10.5-1.3,13,1c2,1.9,1.5,3.8,3,11
	c2.2,10.3,4.7,12.8,3,15c-0.8,1-2.3,2-14,1c-12-1-17.4-2.5-19,0c-0.7,1.2-0.5,3.1,0,7c0.3,2.2,0.4,3.4,1,4c1.5,1.6,4.3,0.8,11,0
	c8.7-1,9.6-0.4,10,0c1.9,1.8,0.1,4.6,0,12c-0.2,8.8,2.2,11.8,0,14c-1.2,1.2-4.5,1.1-11,1c-6.3-0.1-8.7-0.6-10,1
	c-0.6,0.8-0.7,2.5-1,6c-0.2,2.4-0.3,3.6,0,4c1.3,2.1,5.8,0.4,15,0c7.8-0.4,7.4,0.7,14,0c4.4-0.4,6-1.1,7,0c1.7,1.7-0.5,5.1-3,14
	c-2.8,9.6-1.8,11-4,13c-3.5,3.2-8.3,1.8-18,1c-8.5-0.7-18.2-0.1-23,0c-11.3,0.2-13.1,0.8-15-1c-3.7-3.5-1-9.6,0-22
	c1-11.6-1-9.7-1-29c0-20.6,2.3-19.5,1-31C747.2,39.3,744.2,34,747.6,30.5z"/>
<path class="st0" d="M816.6,29.5c2.7-1.9,4.8,0.5,20,1c5.9,0.2,5.9-0.2,9,0c15.1,0.9,26.1,10.2,27,11c9.1,7.9,12.2,17.4,14,23
	c1.7,5.4,5.7,21-1,38c-1.7,4.3-5.2,13-14,20c-5.8,4.7-11,6.3-20,9c-15.4,4.6-31.5,9.5-37,3c-2.7-3.2,0.1-5.9,1-20
	c1-14.4-1.6-16.8-1-36c0.3-8.9,0.8-7.1,1-15C816.2,41.3,812,32.8,816.6,29.5z"/>
<path class="st0" d="M894.6,30.5c1.7-1.5,3.3-0.2,10,0c9.8,0.3,13.4-2.3,16,0s1.5,6.7,1,10c-2.2,13.5,0.2,27.3,0,41
	c-0.2,14-0.3,21,0,24c1.3,13.9,4.5,23.9,0,27c-0.8,0.6-2.9,0.7-7,1c-5.6,0.4-6.5-0.2-12,0c-6.3,0.2-7.7,1.1-9,0
	c-2.3-2.1-0.2-7.5,1-12c1.8-6.4,0.1-4.8,0-42v-17c0-5,0.3-10,0-15C894,36.4,892.2,32.5,894.6,30.5z"/>
<path class="st0" d="M959.6,30.5c2.9-2.7,6.7,0,15,0s12.1-2.7,15,0c1.3,1.4,2,3.1,2,5c1.1,12.6,8.3,23.9,12,36
	c5.2,16.8,7.8,25.3,11,33c7,16.8,13.2,25.7,10,29c-2.5,2.6-7.2-2.1-18,0c-5.1,1-9,3-11,1c-0.8-0.8-0.5-1.5-2-6c-0.9-2.9-1.4-4.4-2-5
	c-1.8-2-4.5-1.2-12-1c-1.3,0-7,0.2-13,0c-6.6-0.3-9.3-0.9-11,1c0,0.1-0.2,0.3-0.3,0.5c-0.7,1.1-1.3,2.3-1.7,3.5
	c-1.3,3.9-0.7,5.9-2,7c-1.5,1.2-3.6-0.4-9-1c-2.3-0.2-4.7-0.2-7,0c-8.8,0.5-11.9,2.4-13,1s1.2-3.7,4-10c0.7-1.6,1-2.4,4-12
	c2.7-8.5,4-12.8,5-16c4.1-13.3,5.1-13,12-33c3.2-9.4,9.2-18.1,10-28C957.6,33.6,958.3,31.9,959.6,30.5z"/>
<path class="st0" d="M973.6,68.5c-1,0-1.7,3.6-3,8c-3.8,13.1-8.1,17.5-6,20c0.7,0.8,1.4,0.6,8,1c8.5,0.5,10.2,1.2,11,0
	c1-1.4-1-3.2-4-11c-1.5-3.9-2.9-7.9-4-12C974.6,70.6,974.3,68.5,973.6,68.5z"/>
<path class="st0" d="M30.6,201.5c3.2-2.3,9.6,0.9,13,4c5.1,4.7,5.6,11.1,6,16c0.4,4.6,1.2,14.9-6,22c-3.4,3.3-9.8,7.1-13,5
	s0-8.7,0-23C30.6,210.6,27,203.9,30.6,201.5z"/>
<path class="st0" d="M4.6,174.5c2.1-1.4,4-0.4,14,0c7,0.3,10.1-0.1,13,0c12.5,0.6,24.3,6,33,15c13,13.9,12.2,31.9,12,38
	c-0.2,5.1-1.1,26.4-17,39c-7.3,5.7-14.8,7.1-30,10c-14.4,2.7-21.6,4.1-26,0c-5.1-4.7-1.3-11.8,0-35c0.9-14.9,1.6-26.8,0-42
	C2.3,186.7,0,177.5,4.6,174.5z"/>
<path class="st0" d="M105.6,166.5c1.3,2.3,7,2.2,11,0c3.3-1.9,3.2-4,7-9c5.5-7.3,10.7-9.5,10-11c-0.6-1.3-4.2,0.6-12,0
	c-3.9-0.3-5.2-1-7,0c-2.2,1.2-2.3,3.4-4,8C107.5,162.8,104.5,164.5,105.6,166.5z"/>
<path class="st0" d="M85.6,173.5c2.8-2.1,4.8,0.2,18,1c9.7,0.6,14.5,0.9,21,0c6.5-0.9,10.1-2.3,13,0c1.7,1.3,1.9,3,3,8
	c3.1,14.4,4.8,17.1,3,19s-4.7,0.8-10,0c-18.1-2.6-20.6-1.3-22,0c-3.1,2.9-3.3,9-1,11c1.2,1,2.7,0.7,8,0c12.2-1.5,13.5-0.6,14,0
	c0.9,0.9,0.6,4,0,10c-0.6,6.4-1.1,6.7-1,10c0.1,4.7,1,5.8,0,7s-2.6,1.1-12,0c-5.7-0.7-6.9-0.9-8,0c-2.4,1.9-2.6,7.5,0,10
	c2.2,2.2,5.5,1,14,0c11-1.3,19-2.3,21,1c1.4,2.3-1.5,4.2-3,12c-1.7,8.7,0.8,12.3-2,15c-2,2-4.8,1.4-12,1c-3.6-0.2-9.4-0.1-21,0
	c-15.8,0.2-19,1.9-22-1c-2.7-2.7-2.3-6.4-2-15c0.4-10-0.2-20,0-30c0.3-15.2,0.5-22.8,0-32C83.6,183.2,81.5,176.6,85.6,173.5z"/>
<path class="st0" d="M143.1,175c0.7-0.7,1.5-1,14-1c11.6,0,12.8,0.2,14,1c3.9,2.4,3.5,6.6,6,20c2.8,14.7,3.9,12.7,7,29
	c1.6,8.1,1.9,11.9,3,12c1.4,0.1,2.2-6.2,6-22c5.8-23.9,7.1-22.3,7-29c0-4.6-0.7-8.9,2-11c2.3-1.8,4.8-0.5,11,0
	c5.9,0.4,17.5-0.9,18,0c0.1,0.2,0.2,0.4,0.3,0.7c0.1,0.3,0.1,0.5,0.2,0.8c0.6,5.5-3.5,11.5-3.5,11.5c-2.4,3.5-1.8,5.6-5.5,22.5
	c-5.4,24.9-7.1,22.8-10,39c-3.3,18.6-2,26.8-8,30c-3,1.6-4.3,0.1-16,0c-13.7-0.1-15.6,1.9-19,0c-6.3-3.5-4.3-12.6-7-30
	c-2.1-13.6-5.8-24.1-12-42C144.2,188.1,139.1,178.7,143.1,175z"/>
<path class="st0" d="M234.6,173.5c2.8-2.4,6-0.8,15,0c23.3,2.2,35-5.5,40,1c1.1,1.4,0.1,1.2,2,11c2.1,10.9,3.8,14,2,16
	c-1.2,1.4-3.1,1.1-12,0c-13.5-1.7-18.8-2.2-20,0c-0.4,0.8,0.1,1.1,0,6c-0.1,3.3-0.3,3.4,0,4c1.4,2.3,7.1,1.8,14,1c4.6-0.5,5.9-1,7,0
	c1.8,1.6,0.5,4.6,0,10c-1,10.8,2.9,15.6,0,18c-0.9,0.8-3.6,0.5-9,0c-7.5-0.7-10.9-1.6-12,0c-0.4,0.6-0.1,0.9,0,4
	c0.2,4.3-0.3,5.2,0,6c1.1,2.6,7.9,1.7,21,0c10.3-1.3,14-1.8,15,0c0.9,1.6-1.2,2.9-3,9c-0.9,3-0.5,3.2-2,11c-0.9,4.9-1.4,7.3-2,8
	c-2.8,3.2-7.9,1-19,0c-8.7-0.7-17.3-0.7-26,0c-7,0.7-9,1.6-11,0c-3.8-3.1-0.6-9.9,0-23c0.5-11.8-1.8-11.3-2-26
	c-0.2-14.4,2.1-13.9,2-27C234.4,184.8,230.1,177.4,234.6,173.5z"/>
<path class="st0" d="M301.6,173.5c2.9-1.7,5.1,1.3,15,1c7-0.2,10.1-1.9,12,0c2.4,2.5,0,8.3-1,11c-4.5,12.7,1.6,15.5,1,37
	c-0.5,17.7-4.4,24.6,0,28c1.8,1.4,6.5,0.9,16,0c12.1-1.2,17.4-2.5,19,0c0.8,1.3,0.1,2.6-1,6c-4,12.8-1.1,17.7-5,21
	c-1.8,1.6-3.3,1.2-13,1h-24c-16.2,0-17.8,1-20-1c-4.5-4-1.8-11.3,0-27c1.7-14.9,2-30,1-45C300.3,187.1,296.7,176.4,301.6,173.5z"/>
<path class="st0" d="M400.6,205.5c7.2-5.4,16.7-6.5,25-3c5.6,2.4,10.2,6.6,13,12c5.5,11,0.7,21.6,0,23c-4.6,10-15.2,15.7-26,14
	c-5.7-0.9-11-3.7-15-8c-2-2-7.9-8-8-17c0.1-4.6,1.5-9.1,4-13C395.3,210.4,397.7,207.7,400.6,205.5z"/>
<path class="st0" d="M375.6,189.5c6.1-7.1,14.1-12.3,23-15c9.5-2.8,17.2-1.8,23-1c7.7,1.1,20.9,2.9,32,13c16.6,15.1,16.2,37.3,16,42
	c-0.3,6.1-2,23.4-16,37c-16,15.6-42.1,20.5-62,10c-16.7-8.8-22.9-25.2-25-31c-2.1-5.5-7.1-19.7-2-36
	C366.9,201.5,370.6,195,375.6,189.5z"/>
<path class="st0" d="M475.1,174c2.6-2.4,5.8-1.5,28,0c10.6,0.7,10.7,0.5,13,1c5.5,1.1,17.3,3.4,25,13c10.7,13.3,5.8,31.2,5,34
	c-1.1,4-4.7,17.1-16,23c-11.8,6.2-23.4-0.2-27,6c-0.6,1.1-0.4,6.4,0,17c0.2,5.8,0.4,7.5-1,9c-2.1,2.2-5.2,1.2-14,1
	c-10.4-0.2-11,1.2-13,0c-5.6-3.4-1.5-15.4,0-37c1-13.4,2-27.1,0-44C473.5,183.5,471.2,177.5,475.1,174z"/>
<path class="st0" d="M502.6,199.5c1.3-1.5,3.9-1.2,6-1s5.3,0.5,8,3c5,4.6,3.1,12.5,3,13c-1,3.8-3.5,7.1-7,9c-0.4,0.2-7,3.6-10,1
	s1.8-7.6,0-18C502.1,203.5,501.2,201,502.6,199.5z"/>
<path class="st0" d="M553.6,174.5c2.4-1.7,3.7-0.5,16,0c15.9,0.6,17.4-1.2,25,0c4,0.7,16,2.6,24,12c10.4,12.1,9.3,30.7,3,43
	c-3.3,6.7-8.5,12.3-15,16c-4,2.2-12.1,6.6-21,5c-2.3-0.4-5.9-1.5-7,0c-0.7,1,0.3,2.4,1,5c1.3,4.6-0.3,5.8,0,12c0.4,6.6,2.4,8.2,1,10
	s-3.9,0.8-11,1c-9.5,0.2-12.8,2.2-15,0c-1.8-1.8-1.3-4.8-1-8c0.8-8.7-1.2-8.4-2-23s1-17.3,1-33C552.5,189.1,547.6,178.7,553.6,174.5
	z"/>
<path class="st0" d="M580.6,198.5c1.3-0.9,3.2-0.2,7,1c4,1.3,6.2,2,8,4c3.5,4,3.6,11.3,0,16c-2.7,3.5-6.7,4.5-9,5
	c-2.1,0.5-3.8,0.9-5,0c-1.9-1.4-1.1-4.5-1-10C580.8,204.2,578.2,200.1,580.6,198.5z"/>
<path class="st0" d="M685.6,174.5c-2.5-2.6-6-0.8-18,0c-8,0.6-16,0.6-24,0c-8.8-0.7-10.9-1.8-13,0c-3.8,3.2-1.4,10.5,0,22
	c1.2,10.3,0,20.7,0,31v37c-1.1,6.4-2.3,10.1,0,13c3.4,4.3,10.1,1,25,1c18.2,0,25,5,30,0c1.6-1.6,0.8-2,5-15c3.1-9.5,4.2-11.4,3-13
	c-0.8-1.2-2.8-2.2-20,0c-10.1,1.3-13.9,2.2-16,0c-2.4-2.6-2.4-8.1,0-10c1.5-1.3,3.2-0.4,9,0c6.9,0.5,10.3,0.8,12-1
	c2-2.1-0.1-4.7,0-13c0.1-8,2.1-11.2,0-13c-1.2-1-2.4-0.5-9,0c-10.1,0.8-11.5-0.2-12-1s0-1.5,0-6c0-3.8-0.5-4.2,0-5
	c1.4-2.2,6.6-0.9,14,0c9.6,1.2,17.1,2.1,19-1c1.3-2.1-1.3-3.9-3-11C685.5,180.6,688.2,177.2,685.6,174.5z"/>
<path class="st0" d="M695.6,174.5c2.2-1.8,4.6,0,13,0c9,0,12-2,14,0c2.3,2.3,0.2,6.7-1,13c-2.2,11.5,1.6,11.8,1,27
	c-0.5,13.8-3.9,18.5-1,29c1.9,6.7,4.2,8.4,6,9c3.2,1,6.9-0.8,9-3c3-3.2,3-7.6,3-10c-0.1-14.3-0.2-21.5-1-27c-2.8-19.4-5-34.4,1-38
	c1.7-1,2.1,0,10,0c11.2-0.1,14.6-2.3,17,0s1,6.7,0,13c-0.2,1.2-0.1,9.5,0,26c0.2,30.7,2.8,31.6,0,41c-1.7,5.8-4.5,14.8-13,21
	s-18,6.1-22,6c-2.5,0-19.1-0.3-29-12c-5.6-6.6-6.1-17.1-7-38c-1.2-26.3,2.9-25,0-40C694.3,184.7,692.1,177.3,695.6,174.5z"/>
<path class="st0" d="M821.6,174.5c-2.3-2.9-6.4-3-14-3c-10.1,0-15.1-0.1-21,3c-6.2,3.3-11.2,8.6-14,15c-4.4,10.4-1.3,20.1,0,24
	c1.1,3.4,3.8,11.5,11,18c3.9,3.5,7.7,5.2,9,10c0.3,1.2,1.2,5.2-1,8c-2.7,3.5-8.5,3.1-11,3c-5.3-0.3-7.4-2.3-9-1s-0.5,4.1,0,9
	c1.1,11-2.5,14.8,0,18c1.5,1.9,3.6,1.4,16,1c14.6-0.4,15,0.1,18-1c9-3.2,13.7-10.8,15-13c6.5-10.6,5-21.6,4-26c-0.7-3-2.2-10.2-8-16
	c-5-5.1-8.8-4.7-12-10c-2.5-4.2-4-11-1-14s9.7-1.4,11-1c4.9,1.3,6.5,3.9,8,3c1.8-1,0.3-5,0-14S823.4,176.8,821.6,174.5z"/>
<path class="st0" d="M832.6,173.5c2.8-1.9,4.8,0.1,17,1c7,0.5,13.7,1,22,0c7.7-0.9,11.5-2.4,14,0c1.2,1.2,0.6,1.9,2,9
	c0.7,4.4,1.8,8.7,3,13c1,3.2,1.6,4.1,1,5c-1.2,2-5.5,0.9-13,0c-6-0.7-18.8-2.2-20,1c-0.5,1.2,1.1,2,1,5s-1.6,3.9-1,5s3,1,11,0
	c6.3-0.8,8-1.1,9,0s0.3,2.6,0,7c-0.2,3.6,0.2,7.4,1,15c0.4,3.7,0.6,4.4,0,5c-1.8,1.9-6.3-1.1-15-1c-6,0.1-6.8,1.6-7,2
	c-0.3,0.8,0,1.3,1,5c0.9,3.5,0.7,3.5,1,4c1.6,2.7,7.6,1.9,15,1c16.4-1.9,18.1-1.1,19,0c1.3,1.7,0,3.3-2,13s-1.5,12.5-4,14
	s-4.5-0.1-10-1c-7.9-1.3-8.1,1.1-19,1c-10.4-0.1-12-2.4-20-1c-4.5,0.8-5.5,1.8-7,1c-4.8-2.4-1.1-14.8,0-33c1-16-0.2-32.5-1-44
	C829.5,184.7,827.9,176.6,832.6,173.5z"/>
<path class="st0" d="M951.6,175.5c-2.3-1.9-5.3-0.5-11,0c-9.6,0.9-12.7-2.1-15,0c-3.1,2.9,0.5,10.7,3,18c4.9,14.5,0.6,13.2,6,50
	c2.6,18,3.5,17.9,3,23c-0.4,3.9-1.3,7.6,1,10c1.1,1.1,2.6,1.6,12,2c6.2,0.2,9.3,0.4,10,0c4.4-2,4.4-7.5,9-23c3.4-11.4,4.6-15.8,7-16
	c1.9-0.2,3.6,2.5,7,8c3.6,6,6.7,12.4,9,19c2.7,7.4,1.3,10.3,4,12c2.3,1.5,4.2,0.3,12,0c8.8-0.4,9.1,1,11,0c6.4-3.3,1.5-17.6,4-41
	c0.8-6.9,2.2-13.3,5-26c4.7-21,8.6-31.3,4-35c-1.6-1.3-2.4-0.3-11-1c-11-0.9-13.5-2.8-16-1c-2.7,2-2,5.9-2,16c0,10.2,0.1,25.2-3,26
	c-2.2,0.5-5.4-5.9-8-11c-8.7-17.1-9.9-30.1-13-30c-1.1,0-1.5,1.7-4,7c-4.5,9.5-5.6,9-10,18c-4.7,9.7-5.3,14.1-7,14
	c-2.7-0.2-3.9-12.1-4-13c-0.5-5.4-0.1-10.4-1-20C953.3,178.6,953.1,176.7,951.6,175.5z"/>
<path class="st0" d="M1037.6,174.5c4.1-3.3,7.4,0,22,0c18.6,0,27.8-5.2,32,0c1,1.3,0.3,1.4,2,10c2.1,10.3,3.6,12.8,2,15
	c-1.1,1.5-4.4,1.6-11,2c-7.9,0.4-11.8,0.6-16,0c-2.6-0.4-5.4-1-6,0s1.3,2.2,2,5s-0.8,3.7,0,5c0.6,1,2.1,1.6,11,1c6.2-0.4,7-0.8,8,0
	c2.3,1.7,0.7,5.2,1,14c0.3,8.3,2,11.3,0,13c-1,0.9-2,0.5-10,0c-7-0.4-8.9-0.3-10,1s-1.1,3.8-1,5c0,1.4,0.4,2.8,1,4
	c1.5,2.3,5.8,2.9,22,1c8.4-1,10.7-1.6,12,0c1.8,2.3-1.4,5.5-3,15c-1.1,6.9,0,8.9-2,11c-2.4,2.5-6.2,1.6-14,1c-8.3-0.5-16.7-0.5-25,0
	c-13.4,0.8-15.3,3.1-18,1c-5.2-4,0-13.7,1-34c0.2-4.1-0.5-15.1-2-37C1034,184.1,1033.3,178,1037.6,174.5z"/>
<path class="st0" d="M1103.6,174.5c2.3-1.7,3-0.4,27,0c9.8,0.2,12.6,0,18,1c8.6,1.6,14.2,2.6,19,7c7.9,7.3,10.9,21.3,6,30
	c-3.9,6.9-11.6,8.5-11,13c0.3,2.8,3.4,3,7,7c7.2,8,6.1,19.3,6,20c-0.8,6.1-3.6,11.7-8,16c-5.5,5.6-11.7,7.3-18,9
	c-2.9,0.8-5.6,1.3-24,2s-20.6-0.4-22-2c-3.7-4.2-0.5-10.5,1-23c0.6-5.1,0.1-13.8-1-31C1101.2,185.9,1098.3,178.4,1103.6,174.5z"/>
<path class="st0" d="M1131.6,197.5c1.9-1.7,5.3-0.8,8,0c2.9,0.8,5.5,1.5,7,4c1.8,3.2,1.4,7.2-1,10c-1.6,1.8-3.5,2.4-6,3
	c-2.8,0.8-6.1,1.6-8,0c-0.8-0.7-1-1.5-1-9C1130.6,199,1130.8,198.2,1131.6,197.5z"/>
<path class="st0" d="M1131.6,236.5c2.3-2.4,7-1.2,8-1c1.4,0.4,5.2,1.3,7,5c1.2,2.5,1.2,5.5,0,8c-1.3,2.6-3.4,3.7-6,5s-7.7,3.9-10,2
	c-1.5-1.3-0.2-3.1,0-12C1130.7,239.1,1130.4,237.7,1131.6,236.5z"/>
<path class="st0" d="M843.1,57c-2.4,1.3-0.1,6.4,0,20c0.1,17.7-3.7,25.8,0,28c3.3,2,9.3-2.4,12-5c6.7-6.4,7.9-16.4,6-24
	C858.1,64.1,846.8,55,843.1,57z"/>
</svg>
